<!DOCTYPE svg PUBLIC "-//W3C//DTD SVG 1.1//EN" "http://www.w3.org/Graphics/SVG/1.1/DTD/svg11.dtd">
<svg xmlns="http://www.w3.org/2000/svg" width="101" height="108" viewBox="24.488 21 101 108" enable-background="new 24.488 21 101 108"><path d="M100.145 125.5c-6.168 0-8.25-6.06-8.25-24.01 0-19.76.734-28.42 7.754-28.42 4.81 0 15.99 1.408 15.99 14.452h-1c0-11.704-9.392-13.452-14.99-13.452-6.114 0-6.753 8.356-6.753 27.42 0 19.244 2.658 23.01 7.25 23.01.87 0 21.33-.517 21.33-45.33 0-37.075-23.35-53.67-46.49-53.67S28.5 42.094 28.5 79.17c0 44.813 20.46 45.33 21.33 45.33 4.592 0 7.25-3.766 7.25-23.01 0-19.064-.64-27.42-6.754-27.42-5.6 0-14.99 1.748-14.99 13.452h-1c0-13.043 11.182-14.452 15.99-14.452 7.02 0 7.754 8.66 7.754 28.42 0 17.95-2.082 24.01-8.25 24.01-.91 0-22.33-.527-22.33-46.33 0-37.766 23.852-54.67 47.49-54.67s47.487 16.904 47.487 54.67c0 45.803-21.418 46.33-22.33 46.33h-.002z"/></svg>