<!DOCTYPE svg PUBLIC "-//W3C//DTD SVG 1.1//EN" "http://www.w3.org/Graphics/SVG/1.1/DTD/svg11.dtd">
<svg xmlns="http://www.w3.org/2000/svg" width="108" height="84" viewBox="21.582 34.115 108 84" enable-background="new 21.582 34.115 108 84"><path d="M117.257 114.614H25.082V46.44h8.825v-8.824h92.175v68.173h-8.825v8.823zm-17.365-1h16.365V47.44H26.082v64.807l28.073-48.623L71.1 92.974l8.44-14.614 20.352 35.254zm-39.554 0h38.398L79.538 80.36l-19.2 33.254zm-33.89 0h32.736l11.34-19.64-16.37-28.35-27.707 47.99zm90.81-8.825h7.824V38.614H34.907v7.825h82.35v58.35zM98.302 75.812c-5.745 0-10.42-4.674-10.42-10.42s4.675-10.42 10.42-10.42 10.42 4.675 10.42 10.42-4.675 10.42-10.42 10.42zm0-19.84c-5.194 0-9.42 4.227-9.42 9.42s4.226 9.42 9.42 9.42 9.42-4.225 9.42-9.42-4.226-9.42-9.42-9.42z"/></svg>