<!DOCTYPE svg PUBLIC "-//W3C//DTD SVG 1.1//EN" "http://www.w3.org/Graphics/SVG/1.1/DTD/svg11.dtd">
<svg xmlns="http://www.w3.org/2000/svg" width="108" height="103" viewBox="20.699 23.258 108 103" enable-background="new 20.699 23.258 108 103"><path d="M102.308 123.062c-3.076 0-7.16-1.785-11.812-5.165L74.7 106.42 58.904 117.9c-4.65 3.38-8.735 5.165-11.81 5.165-1.973 0-3.556-.743-4.578-2.15-1.996-2.747-1.875-7.82.35-14.667l6.034-18.57L33.104 76.2c-6.76-4.913-9.836-9.614-8.66-13.237 1.177-3.623 6.428-5.618 14.786-5.618h19.524l6.033-18.568C67.37 30.827 70.89 26.45 74.7 26.45c3.808 0 7.33 4.378 9.912 12.327l6.033 18.568h19.524c8.355 0 13.606 1.995 14.783 5.618 1.178 3.623-1.897 8.324-8.66 13.236L100.5 87.674l6.033 18.57c2.225 6.846 2.346 11.918.35 14.666-1.022 1.408-2.604 2.15-4.575 2.152zm-26.757-17.26l15.535 11.287c7.08 5.14 12.708 6.375 14.99 3.233 1.775-2.443 1.6-7.333-.49-13.77l-5.935-18.26-24.1 17.51zm-25.8-17.51l-5.932 18.262c-2.092 6.438-2.267 11.328-.492 13.77 2.282 3.142 7.913 1.908 14.99-3.234l15.534-11.286-24.1-17.51v-.002zm.326-1L74.7 105.186l24.625-17.89-9.406-28.95H59.48l-9.405 28.948v-.002zM90.97 58.346l9.206 28.33 15.532-11.284c6.29-4.57 9.313-8.986 8.296-12.118-1.017-3.13-6.06-4.927-13.834-4.927h-19.2zm-51.74 0c-7.774 0-12.817 1.796-13.834 4.927-1.017 3.13 2.006 7.548 8.296 12.118l15.532 11.286 9.205-28.33h-19.2zm50.364-1l-5.933-18.26c-2.4-7.394-5.667-11.635-8.96-11.635s-6.56 4.24-8.96 11.636l-5.933 18.26h29.788z"/></svg>