<!DOCTYPE svg PUBLIC "-//W3C//DTD SVG 1.1//EN" "http://www.w3.org/Graphics/SVG/1.1/DTD/svg11.dtd">
<svg xmlns="http://www.w3.org/2000/svg" width="108" height="94" viewBox="-3.72 1.798 108 94" enable-background="new -3.72 1.798 108 94"><path stroke="#000" stroke-miterlimit="10" d="M75.846 66.655H94.67c2.805 0 5.61-3.316 5.61-6.122V42.675c0-2.806-2.805-6.122-5.61-6.122H5.892C3.087 36.553.28 39.87.28 42.675v17.857c0 2.806 2.807 6.122 5.613 6.122H24.71m-3 25.51L26.812 48.8H73.75l5.102 43.367H21.71v-.003zM89.2 21.47v5.388c0 2.254-1.826 4.082-4.08 4.082H15.44c-2.254 0-4.082-1.827-4.082-4.082V21.47c0-2.254 1.828-4.082 4.082-4.082h15.45V5.43h38.78v11.96h15.45c2.254 0 4.08 1.826 4.08 4.08z" fill="none"/></svg>