<!DOCTYPE svg PUBLIC "-//W3C//DTD SVG 1.1//EN" "http://www.w3.org/Graphics/SVG/1.1/DTD/svg11.dtd">
<svg xmlns="http://www.w3.org/2000/svg" width="108" height="97" viewBox="21 23.845 108 97" enable-background="new 21 23.845 108 97"><path d="M125.5 117.53H98.565V85.785c0-4.237 2.818-7.83 6.678-9V71.27c0-1.913 1.556-3.468 3.467-3.468h6.646c1.91 0 3.467 1.555 3.467 3.467v5.517c3.86 1.17 6.677 4.76 6.677 8.998v31.745zm-25.935-1H124.5V93.34H99.565v23.19zm0-24.19H124.5v-6.555c0-4.632-3.77-8.4-8.4-8.4h-8.135c-4.632 0-8.4 3.77-8.4 8.4v6.555zm8.4-15.955h8.135c.59 0 1.165.055 1.724.158V71.27c0-1.36-1.106-2.468-2.467-2.468h-6.646c-1.36 0-2.465 1.106-2.465 2.467v5.273c.558-.104 1.133-.158 1.72-.158zM93.288 117.53H66.354v-7.427h4.44V43.16h-4.44v-7.427h6.677v-5.116c0-1.912 1.557-3.467 3.47-3.467h6.645c1.912 0 3.468 1.556 3.468 3.467v5.116h6.677v7.427h-4.44v66.943h4.44l-.002 7.427zm-25.934-1h24.934v-5.427H67.354v5.427zm12.584-6.427h7.91V43.16h-8.444c.598.756 1.71 2.365 2.513 4.72 1.035 3.03 1.727 7.92-.856 14.005-5.042 11.884-3.89 22.986-1.977 27.19 1.78 3.918 4.407 11.47 1.988 18.027l-1.13 3h-.002zm-8.145 0h7.076l1.262-3.35c2.293-6.22-.245-13.486-1.962-17.264-1.98-4.36-3.2-15.817 1.97-27.997 4.698-11.065-1.81-18.066-1.875-18.135l.208-.2h-6.68v66.945zm-4.44-67.943H92.29v-5.427H67.354v5.427zm6.678-6.427h11.583v-5.116c0-1.36-1.107-2.467-2.468-2.467H76.5c-1.36 0-2.468 1.107-2.468 2.467v5.116zM61.077 117.53H24.5v-7.427h3.955v-42.95H24.5v-7.428h11.498V54.61c0-1.913 1.555-3.468 3.467-3.468h6.646c1.914 0 3.47 1.555 3.47 3.467v5.115h11.496v7.427H57.12v42.95h3.955v7.428zm-35.575-1h34.576v-5.427H45.753l-.007.007-.007-.007H25.5v5.427zm21.157-6.427h9.464v-13.53c-2.094 1.286-4.482 1.967-6.966 1.98.276 1.057.424 2.166.424 3.31 0 3.037-1.03 5.917-2.92 8.24zm-17.2 0H45.33c2.097-2.243 3.248-5.153 3.248-8.24 0-6.66-5.418-12.08-12.08-12.08-2.553 0-4.982.782-7.042 2.264v18.056zm7.69-21.304c5.683.28 10.424 4.2 11.93 9.476v-.72c2.535 0 4.964-.75 7.044-2.17v-20.78l-.052.08c-2.068-1.398-4.485-2.136-6.99-2.136-6.894 0-12.502 5.608-12.502 12.5 0 1.282.192 2.542.57 3.75zm-7.69-21.648v23.686c1.99-1.276 4.26-1.98 6.643-2.05-.35-1.21-.525-2.463-.525-3.737 0-7.443 6.057-13.5 13.502-13.5 2.503 0 4.926.683 7.043 1.98v-6.377H29.455h.002zm-3.956-1h34.576v-5.427H25.5v5.427zM37 59.725h11.58V54.61c0-1.36-1.108-2.468-2.468-2.468h-6.645c-1.36 0-2.467 1.106-2.467 2.467v5.115z"/></svg>