<!DOCTYPE svg PUBLIC "-//W3C//DTD SVG 1.1//EN" "http://www.w3.org/Graphics/SVG/1.1/DTD/svg11.dtd">
<svg xmlns="http://www.w3.org/2000/svg" width="43" height="43" viewBox="8.866 8.554 43 43" enable-background="new 8.866 8.554 43 43"><path d="M30.366 48.054c-9.925 0-18-8.074-18-18s8.075-18 18-18h.5v17.5h11.53v1h-12.53V13.062c-9.144.265-16.5 7.786-16.5 16.993 0 9.374 7.626 17 17 17s17-7.626 17-17c0-5.845-2.947-11.21-7.885-14.353-1.188-.757-2.47-1.364-3.807-1.803l.312-.95c1.416.464 2.772 1.106 4.032 1.908 5.227 3.327 8.348 9.007 8.348 15.196 0 9.925-8.074 18-18 18z"/></svg>