<!DOCTYPE svg PUBLIC "-//W3C//DTD SVG 1.1//EN" "http://www.w3.org/Graphics/SVG/1.1/DTD/svg11.dtd">
<svg xmlns="http://www.w3.org/2000/svg" width="108" height="108" viewBox="23.035 21.115 108 108" enable-background="new 23.035 21.115 108 108"><path d="M115.497 125.615H38.574c-6.638 0-12.038-5.4-12.038-12.038V24.615h77.923v23.852h23.074v65.11c0 6.638-5.4 12.038-12.038 12.038zM104.46 49.467v64.11c0 6.086 4.95 11.038 11.037 11.038s11.038-4.952 11.038-11.038v-64.11H104.46zM27.535 25.615v87.962c0 6.086 4.952 11.038 11.038 11.038h72.12c-4.255-1.858-7.235-6.106-7.235-11.038V25.615H27.535zm64.884 80.77H69.342v-1H92.42v1zm-30.77 0H38.574v-1H61.65v1zM92.42 91H69.342v-1H92.42v1zm-30.77 0H38.574v-1H61.65v1zm31.27-15.386H68.842v-31.77H92.92v31.77zm-23.078-1H91.92v-29.77H69.843v29.77zm-8.192 1H38.575v-1H61.65v1zm0-15.385H38.575v-1H61.65v1zm0-15.386H38.575v-1H61.65v1z"/></svg>