<!DOCTYPE svg PUBLIC "-//W3C//DTD SVG 1.1//EN" "http://www.w3.org/Graphics/SVG/1.1/DTD/svg11.dtd">
<svg xmlns="http://www.w3.org/2000/svg" width="96" height="108" viewBox="27.5 21.5 96 108" enable-background="new 27.5 21.5 96 108"><path d="M75.5 126c-24.54 0-44.506-8.904-44.506-19.85V44.848C30.994 33.904 50.96 25 75.5 25s44.506 8.903 44.506 19.847v61.304c0 10.947-19.965 19.85-44.506 19.85zm0-100c-23.99 0-43.506 8.454-43.506 18.847v61.304C31.994 116.546 51.51 125 75.5 125s43.506-8.455 43.506-18.85V44.85C119.006 34.455 99.49 26 75.5 26zm0 38.695c-24.54 0-44.506-8.904-44.506-19.848h1c0 10.393 19.517 18.848 43.506 18.848s43.506-8.455 43.506-18.848h1c0 10.944-19.965 19.848-44.506 19.848zm0 20.435c-24.54 0-44.506-8.904-44.506-19.848h1c0 10.393 19.517 18.848 43.506 18.848s43.506-8.455 43.506-18.848h1c0 10.944-19.965 19.848-44.506 19.848zm0 20.434c-24.54 0-44.506-8.903-44.506-19.848h1c0 10.393 19.517 18.848 43.506 18.848s43.506-8.455 43.506-18.848h1c0 10.944-19.965 19.848-44.506 19.848z"/></svg>