<!DOCTYPE svg PUBLIC "-//W3C//DTD SVG 1.1//EN" "http://www.w3.org/Graphics/SVG/1.1/DTD/svg11.dtd">
<svg xmlns="http://www.w3.org/2000/svg" width="108" height="84" viewBox="21.5 33 108 84" enable-background="new 21.5 33 108 84"><path d="M117.295 113.622H33.02c-4.42 0-8.02-3.598-8.02-8.02v-43.08c0-4.42 3.6-8.02 8.02-8.02h46.163C80.62 42.016 90.1 36.38 99.503 36.38c10.207 0 20.506 6.642 20.506 21.48 0 11.98-3.877 16.624-6.99 20.354-2.146 2.568-3.84 4.598-3.84 8.335 0 4.896 4 6.902 8.23 9.026 4.224 2.12 8.59 4.31 8.59 9.59 0 6.675-5.47 8.455-8.705 8.455v.002zM80.17 61.962c.77 8.645 3.956 12.463 6.584 15.61 2.186 2.617 4.072 4.877 4.072 8.977 0 5.513-4.465 7.753-8.782 9.92-4.134 2.074-8.04 4.033-8.04 8.697 0 7.245 6.918 7.454 7.708 7.454h35.584c.79 0 7.705-.21 7.705-7.453 0-4.664-3.903-6.623-8.037-8.697-4.318-2.167-8.783-4.407-8.783-9.922 0-4.1 1.887-6.36 4.07-8.976 3.012-3.606 6.76-8.094 6.76-19.713 0-3.425-.68-6.857-2.094-9.91-1.77 2.82-7.763 11.074-15.828 8.233-8.565-3.018-13.868-1.562-20.92 5.778zM33.02 55.5c-3.87 0-7.02 3.15-7.02 7.02v43.08c0 3.87 3.15 7.02 7.02 7.02H77.36c-2.32-1.137-4.353-3.387-4.353-7.454 0-2.55 1.017-4.378 2.544-5.826H54.835v-1h21.917c1.446-1.06 3.155-1.918 4.842-2.764 4.232-2.124 8.23-4.13 8.23-9.027 0-3.737-1.694-5.767-3.84-8.335-1.77-2.12-3.788-4.538-5.198-8.43h-25.95v-1H80.45c-.88-2.804-1.453-6.324-1.453-10.924 0-.81.03-1.595.09-2.357H33.023l-.002-.002zm66.483-18.123c-13.476 0-19.507 10.286-19.507 20.48 0 .97.026 1.895.076 2.77 7.002-7.04 12.695-8.436 21.347-5.39 7.98 2.814 13.88-6.48 14.97-8.343-2.953-5.502-8.467-9.52-16.888-9.52v.002zM46.95 103.49h-9.297v-9.295h9.297v9.295zm-8.296-1h7.297v-7.295h-7.297v7.295zm8.297-13.778h-9.297v-9.297h9.297v9.298zm-8.295-1h7.297v-7.297h-7.3v7.296l.003.002zm42.49-3.15H54.837v-1h26.306v1h.002zM46.95 73.93h-9.297v-9.297h9.297v9.297zm-8.295-1h7.297v-7.297h-7.3v7.296l.003.002z"/></svg>