<!DOCTYPE svg PUBLIC "-//W3C//DTD SVG 1.1//EN" "http://www.w3.org/Graphics/SVG/1.1/DTD/svg11.dtd">
<svg xmlns="http://www.w3.org/2000/svg" width="78" height="108" viewBox="34 21.5 78 108" enable-background="new 34 21.5 78 108"><path d="M108.528 126H51.432c-7.698 0-13.96-6.263-13.96-13.96 0-4.608 2.245-8.703 5.7-11.246-1.157-10 .668-18.376 5.425-24.896 3.107-4.257 7.336-7.54 12.572-9.757 1.253-3.69 4.665-6.394 8.725-6.6v-9.58c0-4.222 3.033-7.75 7.036-8.52V28.865c0-2.13 1.734-3.865 3.865-3.865h7.54c2.13 0 3.863 1.732 3.863 3.863V41.44c4.002.77 7.035 4.298 7.035 8.52v33.79c0 5.207-2.82 10.03-7.38 12.66v9.713l-.354.108c-4.49 1.39-9.383 1.39-13.875 0l-.353-.107V96.41c-4.56-2.63-7.38-7.452-7.38-12.657v-4.756c-2.095-.106-4.018-.878-5.56-2.108-2.856 1.405-5.154 3.297-6.833 5.626-2.844 3.95-3.997 9.27-3.428 15.815 6.437 1.24 11.315 6.916 11.315 13.71 0 1.286-.175 2.533-.503 3.72h32.032c.176-.024 5.605-.69 5.605-5.607h1c0 5.818-6.485 6.596-6.55 6.603l-32.406.003c-1.35 3.75-4.264 6.76-7.952 8.24h51.91v1h.005zM51.433 99.08c-7.147 0-12.96 5.814-12.96 12.96S44.286 125 51.433 125s12.958-5.814 12.958-12.96-5.812-12.96-12.96-12.96h.003zm26.843 6.302c4.085 1.19 8.498 1.19 12.58 0v-9.56l.258-.144c4.394-2.418 7.123-6.988 7.123-11.927V49.96c0-4.23-3.443-7.674-7.675-7.674h-11.99c-4.232 0-7.675 3.443-7.675 7.675v.2c10.31.265 18.615 8.735 18.615 19.108 0 10.147-7.77 18.4-17.806 19.07 1.115 3.067 3.33 5.7 6.312 7.342l.26.142v9.56h-.002zM60.84 67.377c-4.736 2.137-8.58 5.198-11.434 9.11-4.522 6.198-6.303 14.16-5.298 23.674 2.13-1.317 4.64-2.08 7.324-2.08.55 0 1.092.033 1.626.096-.54-6.682.68-12.145 3.632-16.243 1.704-2.364 4.003-4.3 6.84-5.76-1.775-1.765-2.876-4.208-2.876-6.904 0-.648.064-1.28.186-1.893zm10.056 11.62v4.756c0 1.233.17 2.443.494 3.603 9.632-.516 17.122-8.388 17.122-18.087 0-9.82-7.858-17.843-17.616-18.108v8.38c5.14.262 9.24 4.526 9.24 9.73s-4.1 9.465-9.24 9.725zm-.5-18.47c-4.82 0-8.74 3.922-8.74 8.742s3.92 8.74 8.74 8.74 8.74-3.92 8.74-8.74-3.92-8.74-8.74-8.74v-.003zm8.175-19.24h11.99c.216 0 .43.007.64.022V28.862c0-1.58-1.284-2.865-2.863-2.865h-7.54c-1.58 0-2.864 1.284-2.864 2.864V41.31c.21-.016.423-.024.638-.024zM51.43 118.02c-3.296 0-5.98-2.68-5.98-5.98s2.684-5.98 5.98-5.98 5.983 2.685 5.983 5.98-2.683 5.98-5.98 5.98h-.002zm0-10.958c-2.745 0-4.98 2.233-4.98 4.98 0 2.746 2.235 4.98 4.98 4.98s4.983-2.234 4.983-4.98c0-2.747-2.234-4.98-4.98-4.98h-.002z"/></svg>