<!DOCTYPE svg PUBLIC "-//W3C//DTD SVG 1.1//EN" "http://www.w3.org/Graphics/SVG/1.1/DTD/svg11.dtd">
<svg xmlns="http://www.w3.org/2000/svg" width="108" height="108" viewBox="21.141 21.582 108 108" enable-background="new 21.141 21.582 108 108"><path d="M68.832 126.082c-1.964 0-3.81-.765-5.2-2.153l-36.84-36.844c-2.866-2.867-2.866-7.53 0-10.397L73.74 29.742c1.85-1.85 4.303-2.962 6.91-3.136l22.68-1.504c2.837-.187 5.53.84 7.52 2.827l11.94 11.94c1.982 1.982 3.014 4.724 2.828 7.522l-1.504 22.677c-.173 2.606-1.287 5.06-3.136 6.91L74.03 123.93c-1.388 1.387-3.235 2.152-5.198 2.152zm35.14-100c-.19 0-.384.006-.577.02l-22.678 1.504c-2.366.157-4.594 1.167-6.27 2.845l-46.95 46.947c-2.476 2.477-2.476 6.506 0 8.983l36.84 36.84c1.2 1.2 2.797 1.86 4.494 1.86 1.697 0 3.293-.66 4.49-1.86l46.95-46.947c1.678-1.678 2.688-3.905 2.845-6.27l1.504-22.678c.166-2.51-.76-4.97-2.537-6.747l-11.94-11.94c-1.626-1.625-3.875-2.556-6.17-2.556zm-.697 29.978c-2.486 0-4.824-.968-6.583-2.727-3.63-3.63-3.63-9.536 0-13.165 1.76-1.758 4.097-2.727 6.583-2.727s4.824.97 6.582 2.73c1.76 1.757 2.727 4.095 2.727 6.582s-.968 4.825-2.727 6.584c-1.757 1.758-4.095 2.726-6.582 2.726v-.002zm0-17.618c-2.22 0-4.307.864-5.876 2.434-3.24 3.24-3.24 8.51 0 11.75 1.567 1.57 3.654 2.435 5.874 2.435s4.306-.862 5.875-2.432 2.433-3.656 2.433-5.875-.864-4.306-2.434-5.875-3.656-2.435-5.875-2.436z"/></svg>