<!DOCTYPE svg PUBLIC "-//W3C//DTD SVG 1.1//EN" "http://www.w3.org/Graphics/SVG/1.1/DTD/svg11.dtd">
<svg xmlns="http://www.w3.org/2000/svg" width="100" height="107" viewBox="28.805 22.252 100 107" enable-background="new 28.805 22.252 100 107"><path d="M101.61 126.002h-1V111.48H86.09v-1h14.523V95.955h1v14.522h14.523v1H101.61v14.525zm-23.643-9.89H41.97c-5.55 0-10.066-4.516-10.066-10.066v-51.02c0-5.55 4.516-10.065 10.066-10.065h54.207c5.55 0 10.066 4.518 10.066 10.068v32.808h-1v-32.81c0-5-4.067-9.065-9.066-9.065H41.97c-5 0-9.066 4.07-9.066 9.068v51.02c0 4.998 4.067 9.065 9.066 9.065h35.997v1zm-3.117-11H63.298V93.56H74.85v11.552zm-10.552-1h9.552V94.56h-9.552v9.552zm-8.44 1H44.303V93.56h11.553v11.553h.002zm-10.554-1h9.553V94.56h-9.553v9.552zm48.54-17.8H82.29V74.76h11.554v11.553zm-10.553-1h9.555V75.76H83.29v9.553zm-8.44 1H63.3V74.76H74.85v11.553zm-10.55-1h9.55V75.76H64.3v9.553zm-8.44 1H44.302V74.76h11.553v11.553h.003zm-10.555-1h9.553V75.76h-9.553v9.553zm48.54-17.8H82.29V55.96h11.554v11.552zm-10.553-1h9.554V56.96H83.29v9.553h.002zm-8.44 1H63.298V55.96H74.85v11.553h.002zm-10.552-1h9.552V56.96H64.3v9.552zm-8.44 1H44.303V55.96h11.553v11.553h.004zm-10.554-1h9.553V56.96h-9.554v9.552zm80.4-11.485h-1c0-15.73-12.798-28.525-28.526-28.525v-1c16.28 0 29.525 13.245 29.526 29.525zm-9.676 0h-1c0-10.394-8.456-18.85-18.85-18.85v-1c10.945 0 19.85 8.905 19.85 19.85z"/></svg>