<!DOCTYPE svg PUBLIC "-//W3C//DTD SVG 1.1//EN" "http://www.w3.org/Graphics/SVG/1.1/DTD/svg11.dtd">
<svg xmlns="http://www.w3.org/2000/svg" width="43" height="43" viewBox="8.739 8.555 43 43" enable-background="new 8.739 8.555 43 43"><path d="M26.85 47.94c-.654 0-1.306-.245-1.8-.737L12.984 35.218c-.48-.48-.746-1.117-.745-1.798 0-.69.273-1.343.77-1.834L31.783 12.93c1.014-1.006 2.65-1.017 3.647-.024l12.063 11.986c.48.478.746 1.115.746 1.796 0 .692-.274 1.345-.77 1.836L28.695 47.18c-.51.508-1.18.76-1.844.76zm6.78-34.773c-.41 0-.824.158-1.14.472L13.712 32.294c-.305.303-.473.702-.473 1.126 0 .413.16.8.45 1.09l12.063 11.984c.61.605 1.613.595 2.237-.022l18.776-18.657c.306-.303.474-.703.474-1.127 0-.412-.16-.798-.45-1.086L34.726 13.614c-.3-.3-.698-.447-1.097-.447zm-6.362 29.758c-.46 0-.937-.175-1.37-.604-.88-.873-.51-1.96-.213-2.832.297-.87.457-1.43.01-1.872-.39-.388-.78-.42-1.37-.467-.927-.077-2.2-.182-3.893-1.865-.932-.926-1.425-2.005-1.425-3.12 0-1.098.476-2.174 1.338-3.03 1.516-1.508 4.016-2.066 6.182.087 1.696 1.685 1.8 2.95 1.877 3.873.048.584.08.97.47 1.356.448.446 1.01.29 1.89-.008.874-.295 1.965-.663 2.844.212.407.405.614.862.613 1.36 0 .798-.553 1.386-.664 1.496l-4.793 4.76c-.388.387-.927.655-1.495.655zm-3.87-14.12c-.926 0-1.758.452-2.347 1.038-.67.667-1.042 1.493-1.042 2.323 0 .854.38 1.665 1.13 2.41 1.435 1.426 2.41 1.506 3.27 1.576.66.054 1.344.11 1.993.755.913.906.535 2.014.232 2.904-.29.848-.444 1.388-.028 1.802.652.646 1.28.127 1.456-.05l4.794-4.762c.016-.016.37-.37.37-.788 0-.224-.105-.437-.32-.65-.42-.416-.964-.26-1.82.027-.893.3-2.005.674-2.914-.23-.65-.646-.707-1.325-.76-1.982-.07-.854-.15-1.82-1.586-3.247-.817-.81-1.654-1.124-2.426-1.124zm12.834 3.082l-.705-.71 6.522-6.48.704.71-6.522 6.48zm-3.482-3.462l-.705-.71 6.52-6.48.706.71-6.52 6.48zm-3.484-3.462l-.705-.71 6.522-6.48.705.71-6.52 6.48z"/></svg>