<!DOCTYPE svg PUBLIC "-//W3C//DTD SVG 1.1//EN" "http://www.w3.org/Graphics/SVG/1.1/DTD/svg11.dtd">
<svg xmlns="http://www.w3.org/2000/svg" width="108" height="108" viewBox="20.124 21.341 108 108" enable-background="new 20.124 21.341 108 108"><path d="M74.124 125.84c-27.846 0-50.5-22.654-50.5-50.5s22.654-50.5 50.5-50.5h.5v50h42.552v1H73.624V25.844c-27.065.268-49 22.37-49 49.497 0 27.295 22.206 49.5 49.5 49.5s49.5-22.204 49.5-49.5c0-17.017-8.582-32.64-22.958-41.79-6.005-3.82-12.62-6.256-19.66-7.235l.136-.99c7.186 1 13.935 3.483 20.062 7.383 14.665 9.334 23.42 25.272 23.42 42.634 0 27.844-22.654 50.5-50.5 50.5v-.002z"/></svg>