<!DOCTYPE svg PUBLIC "-//W3C//DTD SVG 1.1//EN" "http://www.w3.org/Graphics/SVG/1.1/DTD/svg11.dtd">
<svg xmlns="http://www.w3.org/2000/svg" width="107" height="84" viewBox="20.955 33.582 107 84" enable-background="new 20.955 33.582 107 84"><path d="M74.347 114.33c-20.928 0-38.035-16.68-38.726-37.443l-10.766 14.33-.8-.6L35.878 74.88l15.734 11.826-.6.8-14.396-10.82c.586 20.305 17.287 36.642 37.73 36.642 15.815 0 30.074-9.98 35.48-24.833l.94.342c-5.55 15.245-20.186 25.49-36.42 25.49v.003zm38.68-37.886L97.292 64.62l.602-.8 14.185 10.66c-.587-20.307-17.288-36.645-37.733-36.645-15.815 0-30.074 9.98-35.48 24.834l-.94-.344c5.55-15.248 20.187-25.492 36.42-25.492 21.073 0 38.27 16.908 38.738 37.87l10.97-14.596.8.6-11.83 15.734.002.002z"/></svg>