<!DOCTYPE svg PUBLIC "-//W3C//DTD SVG 1.1//EN" "http://www.w3.org/Graphics/SVG/1.1/DTD/svg11.dtd">
<svg xmlns="http://www.w3.org/2000/svg" width="108" height="108" viewBox="21.5 22.502 108 108" enable-background="new 21.5 22.502 108 108"><path d="M62.554 127.005c-1.544 0-3.09-.587-4.265-1.763l-8.525-8.525.18-.328c.84-1.543 1.285-3.29 1.285-5.054 0-5.823-4.74-10.562-10.563-10.562-1.764 0-3.51.444-5.052 1.284l-.328.18-8.525-8.524c-2.35-2.352-2.35-6.177 0-8.528l57.425-57.423c2.352-2.352 6.18-2.354 8.53 0l8.523 8.522-.18.328c-.84 1.543-1.286 3.29-1.286 5.052 0 5.824 4.74 10.563 10.564 10.563 1.762 0 3.51-.444 5.052-1.285l.328-.18 8.522 8.524c1.136 1.135 1.76 2.65 1.76 4.265 0 1.614-.624 3.128-1.76 4.263L66.817 125.24c-1.173 1.176-2.718 1.764-4.263 1.765zm-11.557-10.47l8 8c1.96 1.96 5.154 1.96 7.116 0l57.424-57.425c.946-.946 1.468-2.21 1.468-3.557s-.52-2.61-1.468-3.558l-7.998-8c-1.606.808-3.396 1.233-5.198 1.233-6.378 0-11.565-5.187-11.565-11.563 0-1.803.426-3.59 1.234-5.197l-8-8c-1.96-1.96-5.153-1.96-7.115 0L27.47 85.893c-1.96 1.96-1.96 5.153 0 7.114l8 8c1.603-.808 3.392-1.232 5.196-1.232 6.376 0 11.563 5.187 11.563 11.562 0 1.804-.425 3.593-1.233 5.198zm50.955-36.906l-3.286-3.287.707-.707 3.287 3.286-.708.707zm-6.572-6.575l-3.285-3.286.707-.708 3.285 3.285-.707.708zm-6.57-6.57l-3.288-3.288.708-.707 3.286 3.286-.707.707v.002zm-6.575-6.574l-3.286-3.285.706-.707 3.286 3.286-.707.707zm-6.57-6.57l-3.287-3.286.707-.706 3.286 3.286-.707.707h.002z"/></svg>