<?xml version="1.0" encoding="utf-8"?>
<!-- Generator: Adobe Illustrator 16.0.4, SVG Export Plug-In . SVG Version: 6.00 Build 0)  -->
<!DOCTYPE svg PUBLIC "-//W3C//DTD SVG 1.1//EN" "http://www.w3.org/Graphics/SVG/1.1/DTD/svg11.dtd">
<svg version="1.1" id="Layer_2" xmlns="http://www.w3.org/2000/svg" xmlns:xlink="http://www.w3.org/1999/xlink" x="0px" y="0px"
	 width="108px" height="108px" viewBox="0 0 108 108" enable-background="new 0 0 108 108" xml:space="preserve">
<path fill="none" stroke="#000000" stroke-miterlimit="10" d="M81.131,43.51c0,15.123-12.258,27.378-27.379,27.378
	c-15.121,0-27.377-12.256-27.377-27.378c0-15.12,12.257-27.377,27.377-27.377C68.873,16.133,81.131,28.391,81.131,43.51z
	 M53.752,31.561c-6.6,0-11.95,5.35-11.95,11.95c0,6.601,5.35,11.951,11.95,11.951c6.602,0,11.95-5.35,11.95-11.951
	C65.702,36.911,60.354,31.561,53.752,31.561z M86.635,68.235c5.185-6.883,8.258-15.443,8.258-24.725
	c0-22.72-18.418-41.139-41.141-41.139c-22.72,0-41.14,18.419-41.14,41.139c0,9.282,3.073,17.842,8.256,24.725l0.003-0.001
	L53.752,108l32.88-39.766L86.635,68.235z"/>
</svg>
