<!DOCTYPE svg PUBLIC "-//W3C//DTD SVG 1.1//EN" "http://www.w3.org/Graphics/SVG/1.1/DTD/svg11.dtd">
<svg xmlns="http://www.w3.org/2000/svg" width="108" height="104" viewBox="25.282 27.882 108 104" enable-background="new 25.282 27.882 108 104"><path d="M118.117 128.538H40.445c-6.432 0-11.664-5.232-11.664-11.664V55.63c0-6.433 5.234-11.665 11.666-11.665h2.134v-12.74h1v12.74h17.1v-12.74h1v12.74h17.1v-12.74h1v12.74h17.102v-12.74h1v12.74h17.102v-12.74h1v12.74h2.133c6.432 0 11.664 5.23 11.664 11.664l.003 61.244c0 6.43-5.233 11.664-11.666 11.664zM40.445 44.966c-5.88 0-10.664 4.783-10.664 10.663v61.244c0 5.88 4.786 10.664 10.666 10.664h77.672c5.88 0 10.664-4.784 10.664-10.664V55.63c0-5.88-4.784-10.665-10.664-10.665h-2.133V57.64h-1V44.965h-17.1V57.64h-1V44.966H79.78V57.64h-1V44.966h-17.1V57.64h-1V44.966h-17.1V57.64h-1V44.966h-2.135zm75.538 69.94H103.57v-12.414h12.413V114.906zm-11.412-1h10.414v-10.414H104.57V113.906zm-8.917 1H83.24v-12.414h12.412V114.906zm-11.412-1h10.413v-10.414H84.24V113.906zm-8.917 1H62.91v-12.414h12.412V114.906zm-11.412-1h10.413v-10.414H63.91V113.906zm-8.92 1H42.58v-12.414h12.41V114.906zm-11.41-1h10.41v-10.414H43.58V113.906zm72.404-19.332H103.57V82.162h12.413v12.412zm-11.412-1h10.413V83.162H104.57v10.412h.002zm-8.918 1H83.24V82.162h12.412v12.412h.002zm-11.412-1h10.412V83.162H84.24v10.412h.002zm-8.918 1H62.91V82.162h12.412v12.412h.002zm-11.412-1h10.412V83.162H63.91v10.412h.002z"/></svg>