<!DOCTYPE svg PUBLIC "-//W3C//DTD SVG 1.1//EN" "http://www.w3.org/Graphics/SVG/1.1/DTD/svg11.dtd">
<svg xmlns="http://www.w3.org/2000/svg" width="108" height="106" viewBox="-3.5 -3.396 108 106" enable-background="new -3.5 -3.396 108 106"><path stroke="#000" stroke-miterlimit="10" d="M5.805 24.988c0 8.334 2.783 14.35 8.272 17.886 4.492 2.895 9.71 3.327 12.42 3.327.657 0 1.185-.02 1.553-.043 0 0-.86 5.597 3.29 11.14l-.186-.003C23.96 57.29.5 58.79.5 78.078c0 19.624 21.548 20.62 25.87 20.62.338 0 .536-.007.536-.007.048.005.357.017.883.017 2.77 0 9.94-.35 16.6-3.585 8.64-4.196 13.02-11.49 13.02-21.68 0-9.85-6.677-15.71-11.55-19.992-2.976-2.61-5.546-4.865-5.546-7.056 0-2.23 1.876-3.91 4.25-6.036 3.844-3.438 7.466-8.33 7.466-17.582 0-8.13-1.054-13.59-7.55-17.052.68-.347 3.07-.6 4.258-.763 3.52-.48 8.67-1.027 8.67-3.9V.5H31.75c-.256.007-25.947.96-25.947 24.488h.002zm41.42 50.29c.49 7.848-6.222 13.638-16.3 14.37-10.238.75-18.666-3.86-19.157-11.698-.237-3.765 1.42-7.46 4.66-10.397 3.29-2.978 7.803-4.815 12.714-5.177.58-.037 1.155-.06 1.728-.06 9.475 0 15.892 5.57 16.356 12.96v.002zm-6.7-55.66c2.518 8.853-1.283 18.11-7.34 19.817-.695.195-1.417.295-2.145.295-5.55 0-11.048-5.615-13.084-13.347-1.138-4.345-1.046-8.142.26-11.794 1.283-3.598 3.587-6.02 6.488-6.84.697-.197 1.42-.298 2.147-.298 6.7 0 11.01 2.78 13.68 12.16l-.005.006zM83.762 38.9V22.16h-10.6V38.9H56.42v10.602h16.74v16.74h10.6V49.5h16.74V38.9H83.76h.002z" fill="none"/></svg>