<!DOCTYPE svg PUBLIC "-//W3C//DTD SVG 1.1//EN" "http://www.w3.org/Graphics/SVG/1.1/DTD/svg11.dtd">
<svg xmlns="http://www.w3.org/2000/svg" width="108" height="95" viewBox="39.5 65.5 108 95" enable-background="new 39.5 65.5 108 95"><path d="M131.16 157.01c-4.91 0-8.906-3.996-8.906-8.906 0-3.434 1.954-6.42 4.808-7.905H84.884c2.854 1.484 4.808 4.47 4.808 7.905 0 4.91-3.995 8.906-8.906 8.906-4.91 0-8.906-3.994-8.906-8.904 0-3.784 2.373-7.025 5.71-8.312-3.763-.978-6.92-3.655-8.47-7.364L54.18 86.498c-.726.192-1.488.294-2.274.294-4.91 0-8.906-3.995-8.906-8.906 0-4.91 3.995-8.906 8.906-8.906s8.906 3.995 8.906 8.906c0 3.774-2.36 7.007-5.68 8.3l14.927 45.897c1.8 4.31 6.017 7.118 10.73 7.118h50.37c4.91 0 8.907 3.996 8.907 8.907 0 4.91-3.996 8.906-8.907 8.906v-.004zm0-16.813c-4.36 0-7.906 3.547-7.906 7.906 0 4.36 3.546 7.905 7.905 7.905 4.358 0 7.905-3.546 7.905-7.905 0-4.36-3.548-7.906-7.906-7.906zm-50.374 0c-4.36 0-7.906 3.547-7.906 7.906 0 4.36 3.547 7.905 7.906 7.905 4.36 0 7.906-3.546 7.906-7.905 0-4.36-3.547-7.906-7.906-7.906zm-28.88-70.22c-4.36 0-7.907 3.546-7.907 7.905 0 4.36 3.546 7.905 7.905 7.905s7.905-3.546 7.905-7.906-3.546-7.906-7.906-7.906l.002.003zm72.258 61.573H85.382c-3.84 0-7.93-2.97-9.114-6.623l-10.39-32c-.593-1.826-.39-3.56.57-4.882s2.547-2.05 4.467-2.05h67.715c1.92 0 3.506.728 4.467 2.05.96 1.322 1.163 3.056.57 4.882l-10.39 32c-1.185 3.652-5.274 6.623-9.113 6.623zm-13.66-1h13.66c3.438 0 7.102-2.66 8.163-5.932l4.983-15.345h-19.898l-6.91 21.277h.002zm-10.41 0h9.357l6.91-21.277H93.185l6.908 21.277zm-27.858-21.277l4.982 15.345c1.062 3.27 4.724 5.932 8.163 5.932h13.66l-6.904-21.277h-19.9zm45.5-1h19.9l5.083-15.654c.49-1.515.34-2.93-.428-3.987-.768-1.056-2.067-1.638-3.658-1.638h-13.988l-6.91 21.278zm-24.875 0h23.826l6.908-21.278H85.952l6.91 21.278zm-20.95 0h19.9L84.9 86.995H70.917c-1.592 0-2.892.582-3.66 1.638-.767 1.056-.92 2.472-.427 3.985l5.08 15.655z"/></svg>