<!DOCTYPE svg PUBLIC "-//W3C//DTD SVG 1.1//EN" "http://www.w3.org/Graphics/SVG/1.1/DTD/svg11.dtd">
<svg xmlns="http://www.w3.org/2000/svg" width="108" height="108" viewBox="25.039 21.539 108 108" enable-background="new 25.039 21.539 108 108"><path d="M102.724 126.246L79.04 102.562l-17.646 17.646c0 .002-.003.003-.005.005l-.004.002-.368.368-31.528 4.503 4.504-31.526.118-.118L52.016 75.54 28.333 51.855l27.023-27.023L79.04 48.516l12.846-12.844c.008-.01.017-.02.025-.027l.03-.025 7.21-7.21c1.5-1.5 3.494-2.327 5.616-2.327s4.117.827 5.617 2.327l15.79 15.79c3.096 3.096 3.096 8.135 0 11.232L106.06 75.54l4.93 4.93.008.007.007.007 18.74 18.74-27.023 27.022h.002zM70.63 92.74l32.093 32.092 25.61-25.61-8.49-8.488-7.542 7.54c-.193.196-.51.196-.705 0s-.195-.51 0-.706l7.54-7.54-8.488-8.49L97.23 94.95c-.194.195-.51.195-.706 0s-.195-.512 0-.707L109.94 80.83l-4.912-4.912-.026-.024-.024-.026-3.528-3.528-7.542 7.542c-.195.195-.512.195-.707 0s-.193-.512 0-.707l7.544-7.542-4.483-4.483-.03-.027c-.01-.01-.017-.02-.025-.03l-3.95-3.95L78.84 76.56c-.195.195-.512.195-.707 0s-.194-.512 0-.707L91.55 62.44 87.49 58.38l-.033-.03-.03-.032-4.37-4.372-7.543 7.542c-.195.195-.512.195-.707 0s-.195-.512 0-.707l7.54-7.54-3.634-3.636c-.01-.008-.02-.017-.028-.026l-.026-.027-4.8-4.8-13.416 13.414c-.195.195-.512.195-.707 0s-.196-.512 0-.707l13.414-13.415-8.49-8.49-7.542 7.542c-.195.195-.512.195-.707 0s-.195-.512 0-.707l7.542-7.542-8.6-8.6-25.608 25.61L70.61 92.72l.01.01.01.01zm-35.69 1.29l-4.27 29.878 29.878-4.27.134-.133c2.482-2.483-1.284-10.444-8.224-17.386-6.94-6.94-14.903-10.706-17.385-8.226l-.013.013-.12.123zm22.643 12.446c3.27 4.357 5.044 8.505 4.823 11.308l15.927-15.928-8.065-8.065-12.685 12.686zm-8.68-8.865c1.418 1.12 2.852 2.394 4.263 3.804 1.41 1.41 2.683 2.844 3.802 4.264l12.594-12.594-8.066-8.065-12.593 12.59zM37.28 92.157c2.782 0 6.707 1.752 10.82 4.84L60.79 84.31l-8.064-8.064-15.928 15.928c.157-.013.318-.02.483-.02v.002zm60.01-25.388l8.065 8.065 12.518-12.518-8.065-8.065-12.52 12.517zm-8.77-8.772l8.063 8.065L109.1 53.54l-8.064-8.063-12.517 12.52zM92.97 36l25.608 25.607 6.885-6.883c2.707-2.708 2.707-7.113 0-9.82l-15.79-15.788c-1.31-1.312-3.055-2.034-4.91-2.034s-3.597.723-4.908 2.034L92.972 36zM79.747 49.222l8.064 8.064 12.52-12.518-8.063-8.064-12.52 12.518z"/></svg>