<!DOCTYPE svg PUBLIC "-//W3C//DTD SVG 1.1//EN" "http://www.w3.org/Graphics/SVG/1.1/DTD/svg11.dtd">
<svg xmlns="http://www.w3.org/2000/svg" width="85" height="108" viewBox="-3.101 -3.303 85 108" enable-background="new -3.101 -3.303 85 108"><path stroke="#000" stroke-miterlimit="10" d="M32.48 66.64c-2.628 13.767-5.835 26.966-15.335 33.86-2.932-20.808 4.307-36.435 7.668-53.027-5.73-9.646.69-29.062 12.777-24.277 14.873 5.885-12.88 35.865 5.75 39.61 19.453 3.91 27.394-33.75 15.332-46-17.427-17.682-50.732-.4-46.636 24.917.996 6.19 7.39 8.068 2.555 16.61C3.44 55.863.11 47.066.54 35.333 1.228 16.14 17.788 2.698 34.398.838c21.004-2.35 40.72 7.71 43.44 27.47 3.066 22.304-9.48 46.46-31.943 44.72-6.088-.47-8.644-3.487-13.416-6.387z" fill="none"/></svg>