<!DOCTYPE svg PUBLIC "-//W3C//DTD SVG 1.1//EN" "http://www.w3.org/Graphics/SVG/1.1/DTD/svg11.dtd">
<svg xmlns="http://www.w3.org/2000/svg" width="108" height="80" viewBox="85.5 72.5 108 80" enable-background="new 85.5 72.5 108 80"><path d="M141.01 149.48h-34.066c-3.103 0-8.355-1.71-8.355-8.115 0-5.07 4.186-7.17 8.234-9.2 4.046-2.03 7.867-3.947 7.867-8.622 0-3.57-1.62-5.51-3.67-7.965-.956-1.148-2.03-2.432-3.01-4.014-.786.63-1.78 1.005-2.863 1.005-2.53 0-4.587-2.057-4.587-4.586 0-2.36 1.793-4.31 4.088-4.56V94.96l-13.095-4.567C89.443 89.658 89 88.71 89 88.046s.443-1.612 2.553-2.35l26.884-9.377c3.054-1.066 8.026-1.066 11.082 0l26.882 9.377c2.11.736 2.553 1.683 2.553 2.347 0 .665-.442 1.612-2.553 2.348l-12.8 4.464c.018.4.025.81.025 1.223 0 11.477-3.713 15.924-6.696 19.497-2.05 2.455-3.67 4.396-3.67 7.965 0 4.675 3.823 6.592 7.87 8.622 4.048 2.03 8.234 4.13 8.234 9.2 0 6.405-5.253 8.114-8.356 8.114h.002zm-28.51-19.51c-1.51 1.224-3.382 2.162-5.227 3.09-3.95 1.98-7.683 3.852-7.683 8.305 0 6.914 6.602 7.113 7.355 7.113h34.065c.752 0 7.353-.2 7.353-7.114 0-4.452-3.732-6.324-7.684-8.307-1.846-.927-3.718-1.866-5.227-3.09-2 3.517-6.515 5.84-11.478 5.84-4.975 0-9.46-2.288-11.477-5.84l.002.002zm.8-.616c1.808 3.313 5.998 5.454 10.677 5.454 4.7 0 8.946-2.205 10.71-5.522-1.458-1.425-2.426-3.23-2.426-5.745 0-3.932 1.81-6.097 3.904-8.604 2.88-3.45 6.464-7.742 6.464-18.857 0-.296-.004-.59-.013-.878l-13.097 4.57c-3.054 1.064-8.026 1.064-11.082 0l-12.79-4.463v8.113c2.296.25 4.088 2.2 4.088 4.56 0 1.077-.374 2.07-.998 2.853.974 1.61 2.03 2.874 3.054 4.1 2.094 2.508 3.902 4.674 3.902 8.606 0 2.636-1.062 4.49-2.64 5.946l.25-.135h-.002zm-8.153-24.958c-1.978 0-3.587 1.61-3.587 3.587s1.61 3.587 3.587 3.587 3.587-1.608 3.587-3.586-1.61-3.587-3.587-3.588zm1.53-9.787l12.088 4.216c2.875 1.002 7.55 1.002 10.423 0l26.882-9.377c1.39-.486 1.884-1.044 1.884-1.405s-.494-.92-1.883-1.403l-26.88-9.378c-2.874-1-7.55-1-10.423 0L91.88 86.642c-1.387.484-1.88 1.043-1.88 1.404s.494.92 1.88 1.403l13.278 4.63 18.654-6.507.33.944-17.465 6.092zm75.624 49.175h-24.73v-1h24.73c3.694 0 6.7-3.005 6.7-6.7v-2.87c0-3.695-3.006-6.7-6.7-6.7h-24.73v-1h24.73c4.246 0 7.7 3.454 7.7 7.7v2.87c0 4.246-3.453 7.7-7.7 7.7zm.628-8.635H157.57v-1h25.357v1zm0-17.52h-24.73c-4.245 0-7.7-3.455-7.7-7.7v-2.872c0-4.246 3.455-7.7 7.7-7.7h24.73v1h-24.73c-3.694 0-6.7 3.006-6.7 6.7v2.872c0 3.694 3.006 6.7 6.7 6.7h24.73v1zm0-8.636H157.57v-1h25.357v1z"/></svg>