<!DOCTYPE svg PUBLIC "-//W3C//DTD SVG 1.1//EN" "http://www.w3.org/Graphics/SVG/1.1/DTD/svg11.dtd">
<svg xmlns="http://www.w3.org/2000/svg" width="110" height="89" viewBox="25.575 30.614 110 89" enable-background="new 25.575 30.614 110 89"><path d="M62.388 116.248c-11.265 0-22.234-3.216-31.72-9.3l-1.832-1.175 2.16.258c1.595.19 3.222.288 4.835.288 8.77 0 17.067-2.71 24.088-7.854-8.416-.707-15.646-6.4-18.248-14.524l-.258-.803.827.158c2.32.445 4.7.473 6.994.1-8.68-2.693-14.782-10.82-14.782-20.08l.02-1.095.725.402c2.262 1.257 4.77 2.065 7.34 2.372-4.988-3.975-7.918-10-7.918-16.446 0-3.716.983-7.37 2.846-10.565l.364-.624.457.56C48.49 50.44 63.502 58.145 79.56 59.133c-.27-1.344-.404-2.733-.404-4.14 0-11.587 9.428-21.014 21.016-21.014 5.697 0 11.202 2.342 15.146 6.435 4.445-.906 8.684-2.542 12.603-4.864l1.135-.67-.4 1.254c-1.33 4.152-3.92 7.77-7.396 10.384 3.275-.57 6.454-1.534 9.476-2.874l1.578-.7-.96 1.435c-2.754 4.12-6.164 7.68-10.14 10.586.034.8.05 1.604.05 2.408-.002 28.94-22.024 58.875-58.875 58.875l-.002-.002zm-29.367-9.025c8.898 5.257 19.007 8.025 29.37 8.025 28.447 0 57.872-21.648 57.872-57.876 0-.88-.018-1.758-.057-2.633l-.013-.27.22-.16c3.51-2.53 6.574-5.58 9.13-9.085-3.3 1.3-6.768 2.174-10.328 2.6l-2.325.28 2.01-1.205c3.81-2.283 6.737-5.736 8.352-9.816-3.763 2.07-7.796 3.536-12.007 4.365l-.27.05-.19-.2c-3.77-4.018-9.095-6.32-14.61-6.32-11.037 0-20.016 8.98-20.016 20.014 0 1.557.173 3.092.517 4.56l.15.647-.663-.032c-16.34-.82-31.672-8.48-42.18-21.054-1.546 2.89-2.36 6.135-2.36 9.432 0 6.705 3.33 12.933 8.905 16.66l1.45.97-1.745-.054c-3.04-.096-6.054-.864-8.77-2.23.267 9.26 6.933 17.22 16.047 19.05l2.073.415-2.04.556c-2.787.76-5.74.94-8.65.506 2.834 7.727 10.137 12.96 18.43 13.11l1.406.026-1.107.867c-7.422 5.816-16.34 8.89-25.79 8.89-.936 0-1.875-.03-2.81-.094l-.002.003z"/></svg>