<!DOCTYPE svg PUBLIC "-//W3C//DTD SVG 1.1//EN" "http://www.w3.org/Graphics/SVG/1.1/DTD/svg11.dtd">
<svg xmlns="http://www.w3.org/2000/svg" width="108" height="105" viewBox="9 6.337 108 105" enable-background="new 9 6.337 108 105"><path stroke="#000" stroke-miterlimit="10" d="M75.697 29.016c3.234 1.053 6.29 2.497 9.11 4.28 11.338 7.157 18.86 19.73 18.86 34.047 0 22.274-18.207 40.332-40.668 40.332-22.46 0-40.67-18.058-40.67-40.332 0-22.273 18.21-40.33 40.67-40.33v40.33h27.957M15.875 34.897c1.323 1.865 4.035 2.09 5.567.39 2.597-2.887 5.547-5.84 8.565-8.237 2.813-2.23 6.407-4.35 10.015-6.212 2.08-1.076 2.47-3.797.908-5.535-3.813-4.237-9.86-6.408-16.195-4.74-6.116 1.61-10.8 6.984-11.6 13.207-.54 4.213.575 8.066 2.742 11.127h-.002zm96.99-11.126c-.8-6.22-5.483-11.594-11.6-13.204-6.335-1.667-12.382.504-16.198 4.74-1.562 1.74-1.173 4.46.908 5.536 3.61 1.863 7.202 3.983 10.015 6.21 3.02 2.4 5.97 5.35 8.568 8.24 1.533 1.7 4.245 1.473 5.568-.39 2.167-3.063 3.28-6.916 2.74-11.128v-.003zm-9.88 83.23l-11.23-11.14M23.01 107l11.23-11.14" fill="none"/></svg>