<!DOCTYPE svg PUBLIC "-//W3C//DTD SVG 1.1//EN" "http://www.w3.org/Graphics/SVG/1.1/DTD/svg11.dtd">
<svg xmlns="http://www.w3.org/2000/svg" width="109" height="102" viewBox="11.927 24.329 109 102" enable-background="new 11.927 24.329 109 102"><path d="M19.424 123.038l-.707-.707 8.924-8.922h-1.083c-5.86 0-10.63-4.77-10.63-10.63V58.033c0-5.86 4.77-10.63 10.63-10.63h2.413c1.855 0 3.223-1.075 3.85-3.028.968-3.024 2.807-4.69 5.177-4.69h10.635c3.482 0 4.458 2.588 5.243 4.666.797 2.113 2.003 3.055 3.912 3.055h35.86L113.43 27.62l.707.707L95.06 47.403h11.24c5.86 0 10.627 4.77 10.627 10.63v44.745c0 5.86-4.77 10.63-10.63 10.63h-77.24l-9.63 9.63h-.003zm10.63-10.63H106.3c5.31 0 9.63-4.32 9.63-9.63V58.032c0-5.31-4.32-9.628-9.63-9.63H94.062l-11.998 12c8.62 2.917 14.844 11.084 14.844 20.678 0 12.033-9.79 21.822-21.822 21.822-9.594 0-17.76-6.223-20.678-14.845l-24.35 24.35h-.004zm-3.498-64.005c-5.31 0-9.63 4.32-9.63 9.63v44.745c0 5.31 4.32 9.63 9.63 9.63h2.085l25.43-25.43c-.525-1.878-.81-3.855-.81-5.898 0-12.033 9.79-21.822 21.824-21.822 2.043 0 4.02.282 5.898.81l11.666-11.665h-34.86c-2.32 0-3.907-1.21-4.847-3.7-.89-2.353-1.717-4.02-4.31-4.02H38c-2.563 0-3.748 2.503-4.226 3.995-.757 2.367-2.507 3.725-4.8 3.725h-2.416zM55.2 87.265c2.64 8.47 10.555 14.638 19.883 14.638 11.48 0 20.822-9.34 20.822-20.822 0-9.327-6.167-17.242-14.638-19.883l-9.41 9.41c1.02-.315 2.103-.484 3.225-.484 6.043 0 10.96 4.916 10.96 10.96S81.124 92.04 75.08 92.04s-10.958-4.917-10.958-10.96c0-1.122.17-2.205.484-3.226l-9.41 9.41h.004zm11.407-11.41c-.94 1.52-1.483 3.31-1.483 5.225 0 5.49 4.468 9.96 9.96 9.96s9.958-4.47 9.958-9.96-4.468-9.96-9.96-9.96c-1.914 0-3.704.544-5.223 1.484l-3.253 3.25zm8.476-15.597c-11.48 0-20.822 9.34-20.822 20.822 0 1.752.22 3.454.63 5.08l10.93-10.932c.872-1.373 2.04-2.54 3.41-3.41l10.934-10.933c-1.627-.41-3.33-.627-5.08-.627zm29.116 4.977c-2.97 0-5.385-2.415-5.385-5.383s2.415-5.383 5.383-5.383 5.382 2.413 5.382 5.38-2.415 5.384-5.383 5.384h.002zm0-9.766c-2.42 0-4.385 1.964-4.385 4.38s1.966 4.384 4.383 4.384 4.382-1.966 4.382-4.383-1.966-4.382-4.383-4.382h.002z"/></svg>