<?xml version="1.0" encoding="utf-8"?>
<!-- Generator: Adobe Illustrator 17.0.2, SVG Export Plug-In . SVG Version: 6.00 Build 0)  -->
<!DOCTYPE svg PUBLIC "-//W3C//DTD SVG 1.1//EN" "http://www.w3.org/Graphics/SVG/1.1/DTD/svg11.dtd">
<svg version="1.1" id="Layer_1" xmlns="http://www.w3.org/2000/svg" xmlns:xlink="http://www.w3.org/1999/xlink" x="0px" y="0px"
	 width="150px" height="150px" viewBox="0 0 150 150" enable-background="new 0 0 150 150" xml:space="preserve">
<g>
	<path fill="none" stroke="#000000" stroke-miterlimit="10" d="M32.12,44.887c0-10.686,19.702-19.348,44.006-19.348
		s44.006,8.662,44.006,19.348v61.304c0,10.686-19.702,19.348-44.006,19.348s-44.006-8.662-44.006-19.348V44.887z"/>
	<path fill="none" stroke="#000000" stroke-miterlimit="10" d="M32.12,44.887c0,10.686,19.702,19.348,44.006,19.348
		s44.006-8.662,44.006-19.348"/>
	<path fill="none" stroke="#000000" stroke-miterlimit="10" d="M32.12,65.322c0,10.686,19.702,19.348,44.006,19.348
		s44.006-8.662,44.006-19.348"/>
	<path fill="none" stroke="#000000" stroke-miterlimit="10" d="M32.12,85.756c0,10.686,19.702,19.348,44.006,19.348
		s44.006-8.662,44.006-19.348"/>
</g>
</svg>
