<?xml version="1.0" encoding="utf-8"?>
<!-- Generator: Adobe Illustrator 17.0.2, SVG Export Plug-In . SVG Version: 6.00 Build 0)  -->
<!DOCTYPE svg PUBLIC "-//W3C//DTD SVG 1.1//EN" "http://www.w3.org/Graphics/SVG/1.1/DTD/svg11.dtd">
<svg version="1.1" id="Layer_1" xmlns="http://www.w3.org/2000/svg" xmlns:xlink="http://www.w3.org/1999/xlink" x="0px" y="0px"
	 width="150px" height="150px" viewBox="0 0 150 150" enable-background="new 0 0 150 150" xml:space="preserve">
<path fill="none" stroke="#000000" stroke-miterlimit="10" d="M77.967,115.612H41.97c-5.283,0-9.566-4.283-9.566-9.566V55.027
	c0-5.283,4.283-9.566,9.566-9.566h54.207c5.283,0,9.566,4.283,9.566,9.566v32.808 M55.357,67.013H44.804V56.46h10.553V67.013z
	 M55.357,85.813H44.804V75.26h10.553V85.813z M55.357,104.613H44.804V94.06h10.553V104.613z M74.35,104.613H63.798V94.06H74.35
	V104.613z M74.35,67.013H63.798V56.46H74.35V67.013z M74.35,85.813H63.798V75.26H74.35V85.813z M93.344,67.013H82.791V56.46h10.553
	V67.013z M93.344,85.813H82.791V75.26h10.553V85.813z M86.088,110.979h30.046 M101.111,95.956v30.046 M125.203,55.027
	c0-16.043-12.982-29.025-29.025-29.025 M115.528,55.027c0-10.696-8.655-19.35-19.35-19.35"/>
</svg>
