<?xml version="1.0" encoding="utf-8"?>
<!-- Generator: Adobe Illustrator 17.0.2, SVG Export Plug-In . SVG Version: 6.00 Build 0)  -->
<!DOCTYPE svg PUBLIC "-//W3C//DTD SVG 1.1//EN" "http://www.w3.org/Graphics/SVG/1.1/DTD/svg11.dtd">
<svg version="1.1" id="Layer_1" xmlns="http://www.w3.org/2000/svg" xmlns:xlink="http://www.w3.org/1999/xlink" x="0px" y="0px"
	 width="150px" height="150px" viewBox="0 0 150 150" enable-background="new 0 0 150 150" xml:space="preserve">
<path fill="none" stroke="#000000" stroke-miterlimit="10" d="M103.361,25.602l-22.677,1.504c-2.487,0.165-4.829,1.227-6.592,2.99
	L27.145,77.043c-2.676,2.676-2.676,7.014,0,9.69l36.842,36.842c2.676,2.676,7.014,2.676,9.69,0l46.948-46.948
	c1.762-1.762,2.825-4.105,2.99-6.592l1.504-22.677c0.176-2.653-0.802-5.254-2.682-7.134l-11.941-11.941
	C108.615,26.404,106.015,25.426,103.361,25.602z M109.504,52.98c-3.44,3.44-9.018,3.44-12.458,0c-3.44-3.44-3.44-9.018,0-12.458
	c3.44-3.44,9.018-3.44,12.458,0C112.944,43.962,112.944,49.54,109.504,52.98z"/>
</svg>
