<?xml version="1.0" encoding="utf-8"?>
<!-- Generator: Adobe Illustrator 17.0.2, SVG Export Plug-In . SVG Version: 6.00 Build 0)  -->
<!DOCTYPE svg PUBLIC "-//W3C//DTD SVG 1.1//EN" "http://www.w3.org/Graphics/SVG/1.1/DTD/svg11.dtd">
<svg version="1.1" id="Layer_1" xmlns="http://www.w3.org/2000/svg" xmlns:xlink="http://www.w3.org/1999/xlink" x="0px" y="0px"
	 width="150px" height="150px" viewBox="0 0 150 150" enable-background="new 0 0 150 150" xml:space="preserve">
<path fill="none" stroke="#000000" stroke-miterlimit="10" d="M71.003,60.068V50.001c0-4.515,3.66-8.175,8.175-8.175h11.99
	c4.515,0,8.175,3.66,8.175,8.175v33.791c0,5.352-3.002,9.954-7.381,12.365v9.637c-2.147,0.664-4.427,1.024-6.789,1.024
	c-2.363,0-4.643-0.36-6.79-1.024v-9.637c-4.379-2.411-7.38-7.014-7.38-12.365v-5.247 M71.003,60.067
	c-5.103,0-9.241,4.137-9.241,9.241c0,5.103,4.137,9.241,9.241,9.241c5.103,0,9.241-4.137,9.241-9.241
	C80.244,64.204,76.107,60.067,71.003,60.067z M71.626,87.911c9.992-0.328,17.992-8.532,17.992-18.604
	c0-10.28-8.334-18.614-18.614-18.614 M52.039,98.62c-7.433,0-13.459,6.026-13.459,13.459c0,7.433,6.026,13.459,13.459,13.459
	s13.459-6.026,13.459-13.459C65.498,104.646,59.472,98.62,52.039,98.62z M64.814,116.298h32.713c0,0,6.106-0.668,6.106-6.106
	 M109.135,125.539H52.039 M92.308,42.006V28.904c0-1.859-1.507-3.365-3.365-3.365h-7.539c-1.859,0-3.365,1.507-3.365,3.365v13.101
	 M65.023,76.333c-2.496,1.185-5.237,3.042-7.319,5.931c-2.98,4.138-4.145,9.687-3.483,16.546 M62.196,66.547
	c-4.091,1.699-8.904,4.638-12.587,9.685c-4.735,6.49-6.511,14.825-5.299,24.836 M52.039,106.599c-3.027,0-5.481,2.454-5.481,5.481
	c0,3.027,2.454,5.481,5.481,5.481s5.481-2.454,5.481-5.481C57.52,109.053,55.066,106.599,52.039,106.599z"/>
</svg>
