<?xml version="1.0" encoding="utf-8"?>
<!-- Generator: Adobe Illustrator 17.0.2, SVG Export Plug-In . SVG Version: 6.00 Build 0)  -->
<!DOCTYPE svg PUBLIC "-//W3C//DTD SVG 1.1//EN" "http://www.w3.org/Graphics/SVG/1.1/DTD/svg11.dtd">
<svg version="1.1" id="Layer_1" xmlns="http://www.w3.org/2000/svg" xmlns:xlink="http://www.w3.org/1999/xlink" x="0px" y="0px"
	 width="150px" height="150px" viewBox="0 0 150 150" enable-background="new 0 0 150 150" xml:space="preserve">
<path fill="none" stroke="#000000" stroke-miterlimit="10" d="M61.684,65.593L87.047,50.95 M87.042,100.231L61.68,85.588
	 M104.365,20.951c-11.046,0-20,8.954-20,20s8.954,20,20,20s20-8.954,20-20S115.411,20.951,104.365,20.951z M44.365,55.592
	c-11.046,0-20,8.954-20,20s8.954,20,20,20s20-8.954,20-20S55.411,55.592,44.365,55.592z M104.365,90.233c-11.046,0-20,8.954-20,20
	s8.954,20,20,20s20-8.954,20-20S115.411,90.233,104.365,90.233z"/>
</svg>
