<?xml version="1.0" encoding="utf-8"?>
<!-- Generator: Adobe Illustrator 17.0.2, SVG Export Plug-In . SVG Version: 6.00 Build 0)  -->
<!DOCTYPE svg PUBLIC "-//W3C//DTD SVG 1.1//EN" "http://www.w3.org/Graphics/SVG/1.1/DTD/svg11.dtd">
<svg version="1.1" id="Layer_1" xmlns="http://www.w3.org/2000/svg" xmlns:xlink="http://www.w3.org/1999/xlink" x="0px" y="0px"
	 width="150px" height="150px" viewBox="0 0 150 150" enable-background="new 0 0 150 150" xml:space="preserve">
<path fill="none" stroke="#000000" stroke-miterlimit="10" d="M93.46,82.363c-6.276,0-11.364-5.088-11.364-11.364V37.124
	c0-6.276,5.088-11.364,11.364-11.364h36.301c6.276,0,11.364,5.088,11.364,11.364v45.239c0,18.973-11.291,36.008-28.764,43.397
	l-5.671-13.404c12.077-5.108,19.88-16.881,19.88-29.994H93.46z M52.986,82.363c0,13.112-7.803,24.886-19.88,29.994l5.671,13.404
	c17.474-7.389,28.764-24.424,28.764-43.397V37.124c0-6.276-5.088-11.364-11.364-11.364H19.876c-6.276,0-11.364,5.088-11.364,11.364
	v33.875c0,6.276,5.088,11.364,11.364,11.364H52.986z"/>
</svg>
