<?xml version="1.0" encoding="utf-8"?>
<!-- Generator: Adobe Illustrator 17.0.2, SVG Export Plug-In . SVG Version: 6.00 Build 0)  -->
<!DOCTYPE svg PUBLIC "-//W3C//DTD SVG 1.1//EN" "http://www.w3.org/Graphics/SVG/1.1/DTD/svg11.dtd">
<svg version="1.1" id="Layer_1" xmlns="http://www.w3.org/2000/svg" xmlns:xlink="http://www.w3.org/1999/xlink" x="0px" y="0px"
	 width="150px" height="150px" viewBox="0 0 150 150" enable-background="new 0 0 150 150" xml:space="preserve">
<path fill="none" stroke="#000000" stroke-miterlimit="10" d="M125.721,50.115c-0.833-1.944-3.333-5.833-10.278-8.333
	c0,0-14.167-4.167-35.833-4.167c-21.667,0-35.833,4.167-35.833,4.167c-6.945,2.5-9.444,6.389-10.278,8.333s-3.889,13.611-3.889,25
	c0,11.389,3.056,23.056,3.889,25s3.333,5.833,10.278,8.333c0,0,14.167,4.167,35.833,4.167c21.667,0,35.833-4.167,35.833-4.167
	c6.945-2.5,9.445-6.389,10.278-8.333s3.889-13.611,3.889-25C129.61,63.726,126.555,52.059,125.721,50.115z M97.325,76.541
	L70.464,91.274c-1.957,1.136-3.559,0.299-3.559-1.859v-28.6c0-2.159,1.602-2.996,3.559-1.859l26.861,14.733
	c0,0,0.955,0.595,0.955,1.426C98.28,75.946,97.325,76.541,97.325,76.541z"/>
</svg>
