<?xml version="1.0" encoding="utf-8"?>
<!-- Generator: Adobe Illustrator 17.0.2, SVG Export Plug-In . SVG Version: 6.00 Build 0)  -->
<!DOCTYPE svg PUBLIC "-//W3C//DTD SVG 1.1//EN" "http://www.w3.org/Graphics/SVG/1.1/DTD/svg11.dtd">
<svg version="1.1" id="Layer_1" xmlns="http://www.w3.org/2000/svg" xmlns:xlink="http://www.w3.org/1999/xlink" x="0px" y="0px"
	 width="150px" height="150px" viewBox="0 0 150 150" enable-background="new 0 0 150 150" xml:space="preserve">
<path fill="none" stroke="#000000" stroke-miterlimit="10" d="M55.803,69.157c6.276,0,11.364,5.088,11.364,11.364v33.875
	c0,6.276-5.088,11.364-11.364,11.364H19.502c-6.276,0-11.364-5.088-11.364-11.364V69.157c0-18.973,11.291-36.008,28.764-43.397
	l5.671,13.404c-12.077,5.108-19.88,16.881-19.88,29.994H55.803z M96.277,69.157c0-13.112,7.803-24.886,19.88-29.994l-5.671-13.404
	c-17.474,7.389-28.764,24.424-28.764,43.397v45.239c0,6.276,5.088,11.364,11.364,11.364h36.301c6.276,0,11.364-5.088,11.364-11.364
	V80.521c0-6.276-5.088-11.364-11.364-11.364H96.277z"/>
</svg>
