<?xml version="1.0" encoding="utf-8"?>
<!-- Generator: Adobe Illustrator 17.0.2, SVG Export Plug-In . SVG Version: 6.00 Build 0)  -->
<!DOCTYPE svg PUBLIC "-//W3C//DTD SVG 1.1//EN" "http://www.w3.org/Graphics/SVG/1.1/DTD/svg11.dtd">
<svg version="1.1" id="Layer_1" xmlns="http://www.w3.org/2000/svg" xmlns:xlink="http://www.w3.org/1999/xlink" x="0px" y="0px"
	 width="150px" height="150px" viewBox="0 0 150 150" enable-background="new 0 0 150 150" xml:space="preserve">
<path fill="none" stroke="#000000" stroke-miterlimit="10" d="M92.788,110.608H66.854v6.427h25.934V110.608z M92.788,36.238H66.854
	v6.427h25.934V36.238z M71.293,110.608V43.019 M88.348,110.608V43.019 M73.531,36.238v-5.616c0-1.638,1.328-2.967,2.967-2.967h6.646
	c1.638,0,2.967,1.328,2.967,2.967v5.616 M79.157,110.762l1.444-3.827c2.187-5.933,0.147-12.979-1.975-17.647
	s-2.905-16.097,1.975-27.593s-1.975-18.676-1.975-18.676 M125,117.035V85.79c0-4.895-4.005-8.9-8.9-8.9h-8.135
	c-4.895,0-8.9,4.005-8.9,8.9v31.245H125z M125,92.844H99.066 M105.743,76.89v-5.616c0-1.638,1.328-2.967,2.967-2.967h6.646
	c1.638,0,2.967,1.328,2.967,2.967v5.616 M60.575,117.035H25v-6.427h35.575V117.035z M60.575,60.23H25v6.427h35.575V60.23z
	 M28.955,66.657v43.951 M56.62,110.608V66.657 M36.498,60.23v-5.616c0-1.638,1.328-2.967,2.967-2.967h6.646
	c1.638,0,2.967,1.328,2.967,2.967v5.616 M45.393,110.762c2.276-2.276,3.684-5.421,3.684-8.895c0-6.947-5.632-12.579-12.579-12.579
	c-2.834,0-5.449,0.937-7.553,2.519 M49.077,98.059c2.814,0,5.419-0.894,7.547-2.413 M56.347,74.275
	c-2.075-1.402-4.577-2.221-7.27-2.221c-7.181,0-13.002,5.821-13.002,13.002c0,1.452,0.238,2.848,0.677,4.151"/>
</svg>
