<?xml version="1.0" encoding="utf-8"?>
<!-- Generator: Adobe Illustrator 17.0.2, SVG Export Plug-In . SVG Version: 6.00 Build 0)  -->
<!DOCTYPE svg PUBLIC "-//W3C//DTD SVG 1.1//EN" "http://www.w3.org/Graphics/SVG/1.1/DTD/svg11.dtd">
<svg version="1.1" id="Layer_1" xmlns="http://www.w3.org/2000/svg" xmlns:xlink="http://www.w3.org/1999/xlink" x="0px" y="0px"
	 width="150px" height="150px" viewBox="0 0 150 150" enable-background="new 0 0 150 150" xml:space="preserve">
<g>
	<path fill="none" stroke="#000000" stroke-miterlimit="10" d="M83.857,89.97c2.775,2.757,0.445,5.546-0.145,6.133l-6.848,6.804
		l-6.848,6.804c-0.589,0.586-3.397,2.901-6.172,0.144c-3.797-3.773,3.335-9.552-0.58-13.442c-3.629-3.606-7.47,0.859-15.038-6.659
		c-5.437-5.402-4.183-11.643-0.25-15.55c3.933-3.908,10.213-5.153,15.649,0.249c7.567,7.519,3.074,11.336,6.702,14.942
		C74.244,93.283,80.06,86.197,83.857,89.97z M86.848,39.749L68.213,58.265l4.784,4.754l18.635-18.517L86.848,39.749z M96.802,49.639
		L78.167,68.155l4.784,4.754l18.635-18.516L96.802,49.639z M106.755,59.529L88.12,78.046l4.784,4.753l18.635-18.516L106.755,59.529z
		 M89.066,27.833c-2.303-2.288-6.066-2.258-8.405,0.066L27.014,81.203c-2.339,2.324-2.368,6.063-0.066,8.351l34.467,34.247
		c2.303,2.289,6.066,2.259,8.405-0.065l53.647-53.305c2.339-2.324,2.368-6.062,0.066-8.351L89.066,27.833z"/>
</g>
</svg>
