<?xml version="1.0" encoding="utf-8"?>
<!-- Generator: Adobe Illustrator 17.0.2, SVG Export Plug-In . SVG Version: 6.00 Build 0)  -->
<!DOCTYPE svg PUBLIC "-//W3C//DTD SVG 1.1//EN" "http://www.w3.org/Graphics/SVG/1.1/DTD/svg11.dtd">
<svg version="1.1" id="Layer_1" xmlns="http://www.w3.org/2000/svg" xmlns:xlink="http://www.w3.org/1999/xlink" x="0px" y="0px"
	 width="389.667px" height="59.333px" viewBox="0 0 389.667 59.333" enable-background="new 0 0 389.667 59.333"
	 xml:space="preserve">
<path d="M204.69,32.257l2.899-6.509c0.662-1.461,1.049-2.555,1.234-3.24v11.574h1.849V20.199h-2.535l-3.994,9.18l-3.998-9.18h-2.537
	v13.883h1.851V22.508c0.18,0.684,0.572,1.779,1.233,3.24l2.901,6.509H204.69z M270.752,32.257l2.901-6.509
	c0.66-1.461,1.049-2.555,1.233-3.24v11.574h1.847V20.199H274.2l-3.994,9.18l-3.998-9.18h-2.535v13.883h1.849V22.508
	c0.184,0.684,0.569,1.779,1.234,3.24l2.899,6.509H270.752z M258.798,21.686c0-1.032,0.436-1.487,1.463-1.487h0.388v9.206
	c0,3.672-2.741,4.997-5.206,4.997c-2.471,0-5.205-1.325-5.205-4.997v-9.206h1.849v9.11c0,2.581,1.623,3.473,3.356,3.473
	c1.735,0,3.356-0.892,3.356-3.473V21.686z M215.522,21.686c0-1.032-0.434-1.487-1.461-1.487h-0.39v9.206
	c0,3.672,2.743,4.997,5.208,4.997c2.467,0,5.206-1.325,5.206-4.997v-9.206h-1.851v9.11c0,2.581-1.621,3.473-3.356,3.473
	c-1.738,0-3.357-0.892-3.357-3.473V21.686z M226.652,23.531c-0.23,5.026,7.58,3.357,7.58,6.991c0,1.505-1.301,2.329-3.334,2.329
	c-1.553,0-2.921-0.642-4.042-1.715l-1.073,1.35c1.371,1.301,3.286,1.915,5.23,1.915c2.807,0,5.251-1.301,5.251-4.09
	c0-4.997-8.174-3.38-7.719-6.985c0.14-1.161,1.144-1.891,2.717-1.891c1.533,0,2.855,0.591,3.792,1.573l1.142-1.141
	c-1.233-1.28-2.833-1.989-4.91-1.989C228.341,19.879,226.741,21.386,226.652,23.531 M240.842,27.503h5.847v-1.505h-5.847v-4.294
	h5.341c1.074,0,1.487-0.434,1.487-1.255v-0.25h-8.678v13.883h8.998v-1.505h-7.147V27.503z M153.001,27.145
	c0,4.522,1.967,7.261,6.419,7.261c4.452,0,6.417-2.739,6.417-7.261c0-4.524-1.965-7.269-6.417-7.269
	C154.968,19.877,153.001,22.621,153.001,27.145 M180.017,34.087c-3.22,0.5-4.11-0.32-4.772-1.696l-1.737-3.558h-1.735v5.254h-3.564
	V20.204h5.755c3.496,0,5.23,1.731,5.23,4.356c0,1.807-0.705,3.036-2.327,3.768L180.017,34.087z M117.309,34.087v-5.802h-4.752v5.802
	h-3.562V20.204h3.562v5.366h4.752v-5.366h3.562v13.883H117.309z M135.303,34.407c-2.051,0-3.928-0.552-5.731-1.923l1.439-2.399
	c1.279,1.074,2.877,1.623,4.088,1.623c1.303,0,2.351-0.32,2.351-1.343c0-2.449-7.263-1.282-7.263-6.216
	c0-2.899,2.491-4.272,5.212-4.272c2.029,0,3.718,0.62,5.019,1.694l-1.275,2.395c-1.073-0.844-2.423-1.393-3.703-1.393
	c-1.139,0-1.823,0.434-1.823,1.19c0,2.419,7.26,1.277,7.26,6.229C140.875,33.124,137.864,34.407,135.303,34.407 M186.39,26.113
	l-2.603-5.909h-3.88l4.723,9.269v4.614h3.521v-4.614l4.724-9.269h-3.88L186.39,26.113z M145.329,34.087V23.008h-3.492v-2.804h10.685
	v0.66c0,1.505-0.592,2.143-2.487,2.143h-1.144v11.079H145.329z M123.908,20.204h3.564v13.883h-3.564V20.204z M162.111,27.145
	c0,2.94-0.637,4.452-2.692,4.452s-2.693-1.512-2.693-4.452c0-2.951,0.638-4.456,2.693-4.456S162.111,24.194,162.111,27.145
	 M171.774,22.894v3.308h1.967c1.461,0,1.895-0.841,1.895-1.705c0-0.872-0.524-1.602-1.945-1.602H171.774z M81.57,34.087
	c-3.197,0.34-3.77-0.302-4.316-1.718l-1.348-3.536h-1.577v5.254h-3.468v-13.89h5.435c3.494,0,5.229,1.735,5.229,4.386
	c0,1.803-0.824,3.151-2.373,3.79L81.57,34.087z M26.835,29.515l1.713,2.853c0.776,1.304,1.372,1.718,2.719,1.718h1.505v-13.89
	h-3.198v8.54c-0.386-1.047-1.161-2.646-1.963-3.974l-1.573-2.622c-0.914-1.533-1.464-1.945-2.833-1.945h-1.623v13.89h3.196v-8.661
	C25.168,26.502,26.038,28.193,26.835,29.515 M43.091,34.087l-0.62-2.425h-4.152l-0.526,2.425h-3.494l3.564-13.89h4.702l4.066,13.89
	H43.091z M91.185,34.087l-0.57-2.425h-4.176l-0.552,2.425h-3.496l3.748-13.89h4.704l3.882,13.89H91.185z M64.785,20.197h3.471v9.318
	c0,3.77-2.603,4.888-5.412,4.888c-2.809,0-5.412-1.119-5.412-4.888v-9.318h0.822c1.987,0,2.649,0.936,2.649,2.787v6.439
	c0,1.512,0.64,2.191,1.941,2.191c1.301,0,1.941-0.679,1.941-2.191V20.197z M49.234,34.087V23.006h-3.266v-2.809h10.141v0.662
	c0,1.507-0.596,2.147-2.491,2.147h-0.914v11.081H49.234z M96.301,34.087v-13.89h3.47v11.077h4.956v2.813h-5.14h-0.271H96.301z
	 M74.329,22.896v3.308h1.829c1.461,0,1.897-0.843,1.897-1.709c0-0.868-0.526-1.599-1.941-1.599H74.329z M38.909,28.945h2.877
	l-1.527-6.119L38.909,28.945z M87.075,28.945h2.875l-1.461-6.119L87.075,28.945z M290.604,20.443h-0.046h-1.917l-5.179,14.03h1.93
	c0,0,1.343-3.735,1.374-3.821h5.692c0.033,0.086,1.415,3.821,1.415,3.821h2.011L290.604,20.443z M287.251,29.172
	c0.061-0.169,2.217-6.147,2.333-6.463c0.118,0.316,2.329,6.294,2.392,6.463H287.251z M337.815,20.444h1.922v14.028h-1.922V20.444z
	 M354.684,20.443v14.028h-1.834c0,0-6.524-10.394-6.759-10.77v10.77h-1.805V20.443h1.812c0,0,6.524,10.398,6.761,10.775V20.443
	H354.684z M305.863,20.443v0.254c0,0.835-0.425,1.275-1.531,1.275l-2.725-0.002v12.501h-1.904V21.97h-4.255v-1.527H305.863
	 M321.694,20.443v0.254c0,0.835-0.425,1.275-1.533,1.275l-2.723-0.002v12.501h-1.904V21.97h-4.257v-1.527H321.694 M365.045,28.544
	c-1.109,0-1.533-0.44-1.533-1.273v-0.254h5.541v7.455h-1.42c0,0-0.158-1.245-0.186-1.474c-0.868,1.093-2.243,1.755-3.731,1.755
	c-3.773,0-6.213-2.828-6.213-7.201c0-4.476,2.495-7.37,6.353-7.37c2.007,0,3.553,0.732,4.724,2.237l0.044,0.055l-1.422,0.973
	l-0.039-0.05c-0.872-1.117-1.93-1.641-3.328-1.641c-2.64,0-4.347,2.246-4.347,5.72c0,3.514,1.689,5.701,4.408,5.701
	c1.371,0,3.273-1.017,3.273-2.929v-1.711L365.045,28.544z M331.174,27.929c1.7-0.515,2.719-1.904,2.719-3.746
	c0-2.375-1.773-3.74-4.86-3.74h-4.978v14.03h1.902v-6.294h3.352l2.436,5.236c0.27,0.624,0.642,1.049,1.716,1.096
	c0.272,0.011,0.585,0,0.949-0.039C334.41,34.473,331.236,28.057,331.174,27.929 M325.956,26.7v-4.737h2.896
	c1.956,0,3.078,0.837,3.078,2.294c0,1.128-0.686,2.443-2.618,2.443H325.956z"/>
</svg>
