<?xml version="1.0" encoding="utf-8"?>
<!-- Generator: Adobe Illustrator 17.0.2, SVG Export Plug-In . SVG Version: 6.00 Build 0)  -->
<!DOCTYPE svg PUBLIC "-//W3C//DTD SVG 1.1//EN" "http://www.w3.org/Graphics/SVG/1.1/DTD/svg11.dtd">
<svg version="1.1" id="Layer_1" xmlns="http://www.w3.org/2000/svg" xmlns:xlink="http://www.w3.org/1999/xlink" x="0px" y="0px"
	 width="200px" height="200px" viewBox="0 0 200 200" enable-background="new 0 0 200 200" xml:space="preserve">
<g>
	<g>
		<path fill="#C9652D" d="M168.295,111.692l5.277-2.057l0.023-0.011v-1.265l-0.051,0.01l-1.336,0.394
			c-0.909,0.26-1.602,0.219-2.051-0.123c-0.413-0.315-0.627-0.876-0.627-1.675V74.068l-0.052,0.017l-7.751,2.305l-0.029,0.012v1.024
			l0.034,0.006l1.849,0.225c1.768,0.219,2.147,0.485,2.147,1.519v10.767c-1.519-0.595-3.794-1.029-5.441-1.029
			c-3.306,0-6.379,1.313-8.655,3.704c-2.262,2.371-3.505,5.561-3.505,8.971c0,2.907,0.921,5.63,2.602,7.665
			c0.894,1.081,1.954,1.897,3.112,2.433l-8.542-0.003v-1.073h-0.991c-2.165,0-3.184-1.058-3.184-3.312V74.084h-0.887l-7.117,2.307
			l-0.029,0.012v1.023l0.04,0.007l2.505,0.276c1.56,0.169,1.687,0.676,1.687,2.196v27.003c0,2.769-1.157,3.704-4.577,3.704h-0.047
			v1.066l-9.063-0.001c0.686-0.273,1.369-0.596,2.044-1.024c1.538-0.971,3.028-2.353,4.319-3.994l0.023-0.029l-0.023-0.029
			l-0.617-0.675l-0.029-0.041l-0.034,0.041c-2.107,2.52-4.279,3.641-7.043,3.641c-2.159,0-4.29-0.976-5.85-2.687
			c-1.659-1.816-2.568-4.323-2.568-7.052c0-0.682,0.093-1.417,0.196-2.19l0.017-0.133h16.272v-1.318l-0.011-0.012
			c-0.483-0.484-0.817-1.202-1.209-2.029c-0.542-1.149-1.151-2.45-2.327-3.473c-1.358-1.185-3.224-1.757-5.688-1.757
			c-1.641,0-3.173,0.347-4.56,1.04c-1.29,0.637-2.424,1.555-3.381,2.729c-1.79,2.196-2.815,5.19-2.815,8.207
			c0,3.168,0.989,6.08,2.786,8.219c0.969,1.146,2.131,2.007,3.407,2.564l-10.168-0.003v-1.059h-0.045c-2.707,0-3.962-1-3.962-3.143
			V88.614h-0.887l-0.006,0.007l-7.226,2.52l-0.035,0.004v0.968l0.041,0.005l2.613,0.51c1.417,0.271,1.692,0.513,1.692,2.693v11.247
			c0,2.947-1.244,4.045-4.577,4.045h-0.046v1.055l-14.717-0.005v-1.05H79.18c-4.083,0-4.808-1.121-4.808-4.259V94.151h10.272
			c2.775,0,3.801,1.099,3.91,4.203v0.045h1.042v-9.923H88.56l-0.006,0.04c-0.168,2.404-1.181,3.531-3.19,3.531H74.373V79.016h10.509
			c3.31,0,4.508,1.189,4.566,4.537v0.04h1.036v-6.675H65.505v1.126h0.04c3.777,0.06,4.134,1.474,4.134,5.215v21.915
			c0,4.451-0.564,5.214-4.024,5.439h-0.04v1.045l-8.88-0.003c1.088-0.485,1.923-1.351,2.396-1.955l0.023-0.029l-0.023-0.03
			l-0.248-0.266l-0.035-0.04l-0.034,0.04c-0.834,0.996-1.693,1.435-2.793,1.435c-1.641,0-3.339-1.435-3.339-3.838
			c0-0.272,0.04-0.562,0.08-0.866l0.005-0.036h6.507v-0.571l-0.012-0.011c-0.19-0.191-0.322-0.48-0.477-0.809
			c-0.421-0.89-0.991-2.116-3.23-2.116c-1.618,0-2.631,0.832-3.201,1.525c-0.726,0.884-1.141,2.093-1.141,3.307
			c0,1.259,0.403,2.432,1.13,3.288c0.356,0.421,0.776,0.746,1.236,0.971l-3.667-0.002v-0.414h-0.046
			c-1.347,0-1.602-0.261-1.647-0.81c0.058-1.04,0.115-2.306,0.115-4.484c0-2.307-0.8-3.382-2.517-3.382
			c-1.087,0-2.118,0.486-3.626,1.374v-7.292H41.77l-2.648,0.919l-0.029,0.005v0.452l0.04,0.007l0.957,0.139
			c0.449,0.062,0.517,0.22,0.517,0.693v10.703c0,1.253-0.316,1.614-1.474,1.682h-0.04v0.405l-4.503-0.002v-0.408h-0.87
			c-1.295,0-1.715-0.387-1.715-1.59V98.654h3.83c0.897,0,1.266,0.571,1.583,2.445l0.006,0.035h0.489l-0.006-0.047l-0.356-3.623
			v-0.041h-0.5l-0.013,0.041c-0.04,0.242-0.374,0.295-0.646,0.295H25.682c-0.155,0-0.306-0.018-0.432-0.065
			c-0.121-0.041-0.196-0.121-0.213-0.23l-0.006-0.041h-0.5l-0.007,0.041l-0.351,3.623l-0.011,0.047h0.49l0.004-0.035
			c0.318-1.874,0.692-2.445,1.584-2.445h3.828v10.993c0,1.202-0.413,1.59-1.715,1.59h-0.869v0.406l-9.305-0.003v1.425l24.667,0.01
			v0.571l0.041,0.004c1.768,0.11,1.813,0.613,1.698,2.509l-0.696,11.327c-0.149,2.698-0.449,3.075-2.477,3.075h-0.04v0.642h6.098
			v-0.642H47.43c-0.985-0.046-1.585-0.236-1.93-0.625c-0.258-0.287-0.368-0.675-0.34-1.195c0,0,0.715-12.093,0.772-13.034
			l7.366,15.466l0.011,0.029h0.719l0.019-0.029l7.185-15.466l0.836,12.981c0.04,0.504-0.081,0.918-0.357,1.214
			c-0.403,0.44-1.135,0.659-2.177,0.659h-0.04v0.642h7.531v-0.642h-0.047c-2.085,0-2.302,0-2.475-2.641l-0.926-13.184
			c-0.053-0.936,0.455-0.976,1.807-1.087h0.063l0.041-0.004v-0.563l116.965,0.04v-1.426L168.295,111.692z M116.976,91.111
			c0.887-0.705,1.941-1.064,3.133-1.064c2.654,0,4.842,2.388,5.458,5.953h-11.303C114.828,93.735,115.738,92.084,116.976,91.111z
			 M55.157,103.074c1.036,0,1.894,0.937,2.147,2.331h-4.451C53.246,103.885,54.035,103.074,55.157,103.074z M46.273,110.889
			c-0.226,0.232-0.634,0.348-1.215,0.348h-0.041v0.412h-1.381v-0.412h-0.047c-1.128,0-1.398-0.255-1.398-1.295v-5.341
			c1.151-0.728,1.9-1.036,2.579-1.036c0.904,0,1.981,0.463,1.981,2.666C46.751,109.594,46.659,110.508,46.273,110.889z
			 M54.236,127.649L47.3,113.076l13.837,0.006L54.236,127.649z M165.73,111.691l-5.515-0.002c1.596-0.64,3.434-1.697,5.515-3.186
			V111.691z M165.73,107.16c-2.515,1.766-4.906,2.774-6.564,2.774c-3.99,0-7.238-4.593-7.238-10.252
			c0-2.566,0.702-4.901,1.964-6.561c1.317-1.716,3.121-2.629,5.217-2.629c2.655,0,4.635,1.248,6.621,4.168V107.16z M82.37,129.874
			c-0.604,0.121-0.915,0.115-1.088-0.024c-0.132-0.114-0.195-0.324-0.195-0.688v-9.871l-0.047,0.005l-4.457,0.705h-0.034v0.486
			l0.034,0.006l1.451,0.261c0.887,0.172,1.036,0.379,1.036,1.502v6.237c-1.209,1.005-2.447,1.578-3.402,1.578
			c-1.279,0-2.564-0.799-2.564-2.573v-8.206l-0.057,0.011l-3.726,0.815l-0.034,0.005v0.511l0.034,0.004l1.013,0.295
			c0.566,0.161,0.749,0.437,0.749,1.15v6.462c0,1.161,0.547,1.867,1.002,2.247c0.564,0.48,1.33,0.747,2.102,0.747
			c1.151,0,2.747-0.741,4.882-2.273v2.29l0.058-0.017l3.87-1.158l0.028-0.017v-0.617l-0.051,0.012L82.37,129.874z M90.098,124.303
			c-1.204-0.773-2.344-1.503-2.344-2.654c0-0.912,0.738-1.594,1.715-1.594c1.169,0,2.085,0.965,2.281,2.392l0.011,0.035h0.553
			v-0.048l-0.058-2.658v-0.028l-0.023-0.012c-0.736-0.305-1.56-0.473-2.321-0.473c-2.217,0-3.766,1.371-3.766,3.323
			c0,1.584,0.984,2.224,2.228,3.04c0.668,0.445,1.422,0.936,2.143,1.658c0.777,0.793,0.904,1.161,0.904,1.74
			c0,1.035-0.904,1.867-2.009,1.867c-1.336,0-2.379-1.029-2.713-2.688l-0.006-0.034h-0.553l0.006,0.046l0.322,3.252v0.041h0.508
			l0.011-0.021c0.132-0.209,0.294-0.33,0.455-0.33c0.179,0,0.351,0.052,0.57,0.115l0.207,0.058c0.374,0.137,0.8,0.201,1.284,0.201
			c0.991,0,1.906-0.334,2.585-0.953c0.673-0.623,1.049-1.474,1.049-2.392C93.139,126.243,91.526,125.215,90.098,124.303z
			 M106.721,122.026c-0.281-0.601-0.604-1.289-1.221-1.833c-0.707-0.623-1.681-0.932-2.971-0.932c-2.096,0-3.415,1.082-4.145,1.984
			c-0.94,1.16-1.475,2.722-1.475,4.299c0,1.642,0.519,3.157,1.462,4.264c0.939,1.116,2.224,1.73,3.611,1.73
			c2.441,0,4.301-1.885,5.188-3.006l0.028-0.035l-0.028-0.023l-0.317-0.347l-0.034-0.038l-0.034,0.038
			c-1.088,1.29-2.211,1.868-3.645,1.868c-1.117,0-2.217-0.498-3.03-1.376c-0.857-0.93-1.33-2.22-1.33-3.623
			c0-0.347,0.053-0.728,0.104-1.127l0.011-0.047h8.46v-0.72l-0.011-0.013C107.095,122.833,106.923,122.464,106.721,122.026z
			 M98.999,122.991c0.508-2.018,1.544-3.082,3.012-3.082c1.365,0,2.488,1.237,2.811,3.082H98.999z M122.924,129.874
			c-0.606,0.121-0.915,0.115-1.089-0.024c-0.132-0.114-0.196-0.324-0.196-0.688v-9.871l-0.051,0.005l-4.451,0.705h-0.036v0.486
			l0.036,0.006l1.451,0.261c0.887,0.172,1.03,0.379,1.03,1.502v6.237c-1.204,1.005-2.441,1.578-3.403,1.578
			c-1.272,0-2.556-0.799-2.556-2.573v-8.206l-0.057,0.011l-3.726,0.815l-0.034,0.005v0.511l0.034,0.004l1.008,0.295
			c0.575,0.161,0.754,0.437,0.754,1.15v6.462c0,1.161,0.547,1.867,1.002,2.247c0.564,0.48,1.33,0.747,2.102,0.747
			c1.151,0,2.747-0.741,4.877-2.273v2.29l0.058-0.017l3.875-1.158l0.034-0.017v-0.617l-0.058,0.012L122.924,129.874z
			 M146.227,129.289c0.081-1.779,0.081-3.708,0.081-5.593c0-1.469-0.219-2.536-0.668-3.272c-0.484-0.78-1.226-1.163-2.262-1.163
			c-1.453,0-3.317,1.163-5.126,2.302c-0.311-1.422-1.364-2.302-2.77-2.302c-1.186,0-3.104,0.857-5.136,2.284v-2.284h-0.49
			l-3.472,1.215l-0.028,0.011v0.567l0.04,0.007l1.128,0.144c0.611,0.079,0.802,0.289,0.802,1.445v5.71
			c0,1.428-0.323,2.202-2.011,2.202h-0.045v0.642h6.115v-0.642h-0.045c-1.641,0-1.993-0.312-1.993-1.762v-6.626
			c1.744-1.15,2.936-1.668,3.852-1.668c0.972,0,2.113,0.64,2.113,2.461v5.392c0,1.624-0.571,2.202-2.171,2.202h-0.04v0.642h6.034
			v-0.642h-0.046c-1.428,0-1.756-0.329-1.756-1.762v-6.682c1.687-1.117,2.867-1.612,3.823-1.612c1.422,0,2.137,1.102,2.137,3.276
			v2.276c0,1.994-0.036,3.689-0.449,4.104c-0.237,0.237-0.575,0.399-1.451,0.399h-0.311v0.642h6.604v-0.642h-0.972
			C146.371,130.562,146.227,129.672,146.227,129.289z M100.03,81.091c1.371,0,2.488-0.972,2.488-2.168
			c0-1.197-1.117-2.172-2.488-2.172c-0.651,0-1.26,0.225-1.721,0.635c-0.455,0.409-0.709,0.954-0.709,1.537
			c0,0.584,0.254,1.121,0.709,1.53C98.77,80.866,99.379,81.091,100.03,81.091z"/>
	</g>
</g>
</svg>
