<?xml version="1.0" encoding="utf-8"?>
<!-- Generator: Adobe Illustrator 17.0.2, SVG Export Plug-In . SVG Version: 6.00 Build 0)  -->
<!DOCTYPE svg PUBLIC "-//W3C//DTD SVG 1.1//EN" "http://www.w3.org/Graphics/SVG/1.1/DTD/svg11.dtd">
<svg version="1.1" id="Layer_1" xmlns="http://www.w3.org/2000/svg" xmlns:xlink="http://www.w3.org/1999/xlink" x="0px" y="0px"
	 width="200px" height="200px" viewBox="0 0 200 200" enable-background="new 0 0 200 200" xml:space="preserve">
<path d="M139.921,101.393c0,4.018,1.775,6.456,5.8,6.456c4.025,0,5.8-2.438,5.8-6.456c0-4.02-1.775-6.457-5.8-6.457
	C141.696,94.936,139.921,97.372,139.921,101.393 M164.34,107.563c-0.579,0.084-1.074,0.124-1.51,0.124
	c-1.711,0-2.33-0.652-2.807-1.624l-1.566-3.168h-1.569v4.668h-3.222V95.22h5.201c3.158,0,4.728,1.54,4.728,3.88
	c0,1.603-0.638,2.699-2.106,3.347L164.34,107.563z M154.534,91.402c-0.514,0.061-0.949,0.082-1.319,0.082
	c-1.756,0-2.168-0.568-2.583-1.605l-1.215-3.147h-1.423v4.67h-3.14V79.059h4.912c3.157,0,4.728,1.544,4.728,3.898
	c0,1.605-0.743,2.802-2.147,3.369L154.534,91.402z M107.329,86.652c-0.35-0.933-1.011-2.355-1.733-3.532l-1.425-2.336
	c-0.825-1.36-1.32-1.725-2.558-1.725h-1.464v12.344h2.889v-7.695h0.041c0.349,0.955,1.093,2.457,1.816,3.635l1.547,2.537
	c0.702,1.157,1.239,1.523,2.458,1.523h1.361V79.059h-2.889v7.593H107.329z M107.661,107.563v-5.157h-4.296v5.157h-3.217V95.22h3.217
	v4.772h4.296V95.22h3.219v12.342H107.661z M119.757,91.402l-0.559-2.152h-3.756l-0.474,2.152h-3.159l3.222-12.344h4.252
	l3.672,12.344H119.757z M163.224,91.402l-0.514-2.152h-3.779l-0.494,2.152h-3.158l3.383-12.344h4.254l3.51,12.344H163.224z
	 M139.365,79.059h3.137v8.284c0,3.351-2.353,4.346-4.892,4.346c-2.539,0-4.891-0.995-4.891-4.346v-8.284h0.74
	c1.797,0,2.397,0.832,2.397,2.478v5.724c0,1.341,0.578,1.95,1.754,1.95c1.177,0,1.755-0.609,1.755-1.95V79.059z M123.885,107.848
	c-1.817,0-3.593-0.487-5.14-1.705l1.3-2.132c0.868,0.73,2.187,1.441,3.695,1.441c1.175,0,2.126-0.283,2.126-1.197
	c0-2.171-6.565-1.138-6.565-5.522c0-2.58,2.252-3.797,4.708-3.797c1.836,0,3.362,0.548,4.539,1.503l-1.156,2.131
	c-0.97-0.751-2.19-1.239-3.383-1.239c-1.032,0-1.613,0.386-1.613,1.058c0,2.151,6.566,1.136,6.566,5.542
	C128.962,106.386,126.795,107.848,123.885,107.848 M110.282,113.349v10.296h1.67v-12.344h-2.29l-3.612,8.161l-3.612-8.161h-2.29
	v12.344h1.67v-10.296h0.042c0.164,0.609,0.493,1.585,1.071,2.885l2.623,5.784h0.991l2.622-5.784c0.597-1.3,0.907-2.276,1.072-2.885
	H110.282z M170.119,100.479l2.332-5.258h3.51l-4.274,8.242v4.101h-3.178v-4.101l-4.275-8.242h3.51l2.334,5.258H170.119z
	 M132.985,107.563v-9.846h-3.157V95.22h9.661v0.59c0,1.338-0.537,1.906-2.25,1.906h-1.035v9.846H132.985z M125.307,91.402v-9.847
	h-2.951v-2.496h9.164v0.59c0,1.338-0.536,1.906-2.249,1.906h-0.827v9.847H125.307z M167.848,91.402V79.059h3.137v9.847h4.48v2.496
	h-4.892H167.848z M156.745,112.621c0-0.915,0.391-1.32,1.319-1.32h0.351v8.179c0,3.269-2.475,4.446-4.707,4.446
	c-2.229,0-4.705-1.177-4.705-4.446v-8.179h1.673v8.1c0,2.294,1.465,3.084,3.032,3.084c1.57,0,3.037-0.79,3.037-3.084V112.621z
	 M116.659,112.621c0-0.915-0.392-1.32-1.32-1.32h-0.351v8.179c0,3.269,2.478,4.446,4.706,4.446c2.231,0,4.706-1.177,4.706-4.446
	v-8.179h-1.669v8.1c0,2.294-1.465,3.084-3.037,3.084c-1.567,0-3.034-0.79-3.034-3.084V112.621z M127.043,114.448
	c0,4.303,6.852,2.842,6.852,5.989c0,1.381-1.176,2.113-3.013,2.113c-1.509,0-2.727-0.569-3.655-1.525l-0.97,1.2
	c1.176,1.114,2.705,1.703,4.665,1.703c2.599,0,4.81-1.135,4.81-3.613c0-4.322-6.997-3.109-6.997-5.987
	c0-1.179,0.95-1.932,2.475-1.932c1.384,0,2.581,0.53,3.428,1.403l1.032-1.016c-1.113-1.136-2.561-1.764-4.437-1.764
	C128.527,111.018,127.043,112.437,127.043,114.448 M140.189,117.798h5.285v-1.34h-5.285v-3.818h4.829
	c0.971,0,1.344-0.386,1.344-1.118v-0.221h-7.845v12.344h8.132v-1.34h-6.459V117.798z M113.625,95.22h3.22v12.342h-3.22V95.22z
	 M148.157,101.393c0,2.618-0.58,3.958-2.435,3.958c-1.859,0-2.435-1.34-2.435-3.958c0-2.621,0.576-3.961,2.435-3.961
	C147.577,97.432,148.157,98.772,148.157,101.393 M156.889,97.613v2.947h1.772c1.325,0,1.714-0.753,1.714-1.524
	c0-0.772-0.476-1.423-1.751-1.423H156.889z M147.994,81.454v2.943h1.651c1.32,0,1.71-0.751,1.71-1.523
	c0-0.77-0.471-1.421-1.752-1.421H147.994z M117.176,81.393l-1.198,5.441h2.602l-1.362-5.441H117.176z M160.767,81.393l-1.258,5.441
	h2.599l-1.299-5.441H160.767z M171.603,113.349v10.296h1.675v-12.344h-2.294l-3.61,8.161l-3.613-8.161h-2.293v12.344h1.675v-10.296
	h0.041c0.161,0.609,0.496,1.585,1.072,2.885l2.621,5.784h0.99l2.624-5.784c0.599-1.3,0.907-2.276,1.072-2.885H171.603z
	 M105.827,127.382h-0.04h-1.68l-4.542,12.301h1.693c0,0,1.177-3.275,1.205-3.35h4.993c0.027,0.073,1.239,3.35,1.239,3.35h1.764
	L105.827,127.382z M102.886,135.035c0.053-0.148,1.945-5.389,2.045-5.668c0.104,0.278,2.043,5.519,2.098,5.668H102.886z
	 M145.879,127.382h1.687v12.301h-1.687V127.382z M160.671,127.382v12.302h-1.608c0,0-5.72-9.116-5.928-9.446v9.446h-1.581v-12.302
	h1.588c0,0,5.72,9.117,5.928,9.448v-9.448H160.671z M119.21,127.382v0.221c0,0.733-0.373,1.118-1.344,1.118l-2.388-0.001v10.964
	h-1.669v-10.964h-3.732v-1.338H119.21 M131.741,127.382v0.221c0,0.733-0.373,1.118-1.344,1.118l-2.388-0.001v10.964h-1.669v-10.964
	h-3.732v-1.338H131.741 M169.757,134.485c-0.971,0-1.344-0.386-1.344-1.118v-0.222h4.861v6.539h-1.246c0,0-0.138-1.093-0.164-1.293
	c-0.76,0.959-1.967,1.539-3.271,1.539c-3.309,0-5.447-2.479-5.447-6.314c0-3.926,2.186-6.463,5.57-6.463
	c1.76,0,3.115,0.642,4.142,1.961l0.039,0.048l-1.248,0.853l-0.032-0.043c-0.765-0.98-1.692-1.437-2.919-1.437
	c-2.316,0-3.813,1.969-3.813,5.015c0,3.083,1.482,4.998,3.865,4.998c1.203,0,2.871-0.892,2.871-2.568v-1.498L169.757,134.485z
	 M140.054,133.944c1.493-0.45,2.385-1.669,2.385-3.285c0-2.083-1.554-3.277-4.262-3.277h-4.364v12.303h1.667v-5.519h2.94l2.136,4.59
	c0.238,0.548,0.564,0.92,1.505,0.961c0.24,0.01,0.513,0,0.833-0.032C142.893,139.684,140.11,134.058,140.054,133.944
	 M135.479,132.867v-4.153h2.541c1.714,0,2.699,0.733,2.699,2.012c0,0.987-0.602,2.141-2.298,2.141H135.479z M92.785,139.676V78.524
	c0-2.825-0.153-4.623-0.513-6.216c-1.798-8.063-8.09-12.378-18.39-12.378h-3.415v34.288L47.12,59.929H24.288v61.152
	c0,2.825,0.154,4.624,0.513,6.216c1.798,8.063,8.091,12.379,18.39,12.379h3.415v-34.801l23.655,34.801H92.785z M28.038,63.679
	h17.053l29.125,42.711V63.474h0.695c7.165,0,11.967,3.183,13.56,9.297c0.385,1.489,0.565,3.184,0.565,6.087v57.069H72.265
	L42.857,92.624v43.51h-0.693c-7.165,0-11.969-3.187-13.561-9.3c-0.385-1.49-0.565-3.186-0.565-6.087V63.679z"/>
</svg>
