<?xml version="1.0" encoding="utf-8"?>
<!-- Generator: Adobe Illustrator 17.0.2, SVG Export Plug-In . SVG Version: 6.00 Build 0)  -->
<!DOCTYPE svg PUBLIC "-//W3C//DTD SVG 1.1//EN" "http://www.w3.org/Graphics/SVG/1.1/DTD/svg11.dtd">
<svg version="1.1" id="Layer_1" xmlns="http://www.w3.org/2000/svg" xmlns:xlink="http://www.w3.org/1999/xlink" x="0px" y="0px"
	 width="200px" height="200px" viewBox="0 0 200 200" enable-background="new 0 0 200 200" xml:space="preserve">
<path d="M82.695,138.906V77.833c0-2.821-0.153-4.616-0.511-6.207c-1.796-8.053-8.08-12.363-18.365-12.363h-3.411v34.242
	L37.091,59.262H14.288v61.071c0,2.823,0.153,4.618,0.513,6.209c1.796,8.052,8.079,12.363,18.365,12.363h3.411V104.15l23.624,34.756
	H82.695 M18.032,63.006h17.032l29.087,42.654V62.802h0.694c7.156,0,11.953,3.181,13.543,9.285c0.385,1.488,0.564,3.181,0.564,6.079
	v56.996H62.202L32.833,91.914v43.454h-0.692c-7.156,0-11.952-3.183-13.545-9.289c-0.382-1.488-0.565-3.18-0.565-6.078V63.006z
	 M140.332,110.793c0,5.076,2.205,8.156,7.207,8.156c5.002,0,7.207-3.08,7.207-8.156c0-5.078-2.205-8.158-7.207-8.158
	C142.537,102.635,140.332,105.715,140.332,110.793 M170.677,118.588c-0.721,0.107-1.335,0.156-1.874,0.156
	c-2.129,0-2.898-0.82-3.487-2.051l-1.952-4.002h-1.946v5.897h-4.006v-15.592h6.467c3.924,0,5.872,1.948,5.872,4.901
	c0,2.024-0.794,3.409-2.617,4.228L170.677,118.588z M158.492,98.174c-0.641,0.076-1.179,0.103-1.642,0.103
	c-2.179,0-2.694-0.72-3.206-2.028l-1.513-3.975h-1.766v5.9h-3.901V82.578h6.104c3.924,0,5.874,1.95,5.874,4.924
	c0,2.027-0.924,3.541-2.667,4.259L158.492,98.174z M99.831,92.171c-0.436-1.18-1.258-2.976-2.154-4.463l-1.771-2.95
	c-1.026-1.719-1.641-2.18-3.181-2.18h-1.82v15.596h3.59v-9.722h0.051c0.436,1.206,1.36,3.103,2.256,4.592l1.924,3.206
	c0.872,1.463,1.539,1.925,3.052,1.925h1.694V82.578h-3.59v9.594H99.831z M100.241,118.588v-6.512h-5.335v6.512h-4.001v-15.592h4.001
	v6.027h5.335v-6.027h4v15.592H100.241z M115.274,98.174l-0.696-2.72h-4.666l-0.592,2.72h-3.923l4.002-15.596h5.282l4.565,15.596
	H115.274z M169.29,98.174l-0.64-2.72h-4.694l-0.618,2.72h-3.923l4.203-15.596h5.286l4.361,15.596H169.29z M139.638,82.578h3.9
	v10.466c0,4.232-2.925,5.49-6.08,5.49c-3.154,0-6.078-1.258-6.078-5.49V82.578h0.921c2.232,0,2.978,1.051,2.978,3.129v7.234
	c0,1.693,0.719,2.462,2.179,2.462c1.462,0,2.179-0.769,2.179-2.462V82.578z M120.402,118.949c-2.257,0-4.464-0.615-6.388-2.156
	l1.619-2.692c1.074,0.922,2.715,1.819,4.59,1.819c1.461,0,2.64-0.358,2.64-1.51c0-2.744-8.157-1.439-8.157-6.977
	c0-3.26,2.798-4.797,5.85-4.797c2.283,0,4.18,0.691,5.643,1.899l-1.438,2.693c-1.204-0.948-2.718-1.567-4.204-1.567
	c-1.282,0-2.003,0.489-2.003,1.336c0,2.719,8.16,1.437,8.16,7.002C126.713,117.102,124.019,118.949,120.402,118.949 M103.499,125.9
	v13.006h2.076V123.31h-2.845l-4.491,10.312l-4.487-10.312h-2.848v15.595h2.076V125.9h0.052c0.205,0.769,0.614,2,1.332,3.642
	l3.26,7.31h1.23l3.259-7.31c0.743-1.641,1.126-2.872,1.333-3.642H103.499z M177.859,109.637l2.898-6.642h4.361l-5.311,10.413v5.179
	h-3.951v-5.179l-5.31-10.413h4.362l2.899,6.642H177.859z M131.712,118.588V106.15h-3.923v-3.154h12.005v0.745
	c0,1.691-0.668,2.409-2.798,2.409h-1.281v12.438H131.712z M122.172,98.174V85.732h-3.668v-3.154h11.39v0.744
	c0,1.692-0.668,2.41-2.797,2.41h-1.027v12.442H122.172z M175.034,98.174V82.578h3.901v12.44h5.567v3.156h-6.081H175.034z
	 M161.236,124.977c0-1.156,0.487-1.667,1.643-1.667h0.434v10.336c0,4.128-3.075,5.615-5.847,5.615c-2.768,0-5.848-1.487-5.848-5.615
	V123.31h2.079v10.235c0,2.895,1.82,3.897,3.769,3.897c1.95,0,3.77-1.001,3.77-3.897V124.977z M111.425,124.977
	c0-1.156-0.487-1.667-1.643-1.667h-0.433v10.336c0,4.128,3.078,5.615,5.847,5.615c2.768,0,5.847-1.487,5.847-5.615V123.31h-2.076
	v10.235c0,2.895-1.822,3.897-3.772,3.897s-3.771-1.001-3.771-3.897V124.977z M124.328,127.285c0,5.438,8.515,3.593,8.515,7.567
	c0,1.745-1.461,2.668-3.744,2.668c-1.874,0-3.389-0.719-4.543-1.925l-1.204,1.515c1.461,1.407,3.362,2.152,5.796,2.152
	c3.231,0,5.977-1.434,5.977-4.563c0-5.463-8.694-3.928-8.694-7.566c0-1.487,1.18-2.441,3.075-2.441c1.721,0,3.209,0.67,4.258,1.772
	l1.283-1.283c-1.383-1.435-3.181-2.228-5.513-2.228C126.173,122.952,124.328,124.748,124.328,127.285 M140.667,131.518h6.565v-1.691
	h-6.565v-4.826h6c1.204,0,1.668-0.486,1.668-1.41v-0.281h-9.75v15.595h10.107v-1.694h-8.025V131.518z M107.652,102.996h4.002v15.592
	h-4.002V102.996z M150.566,110.793c0,3.308-0.718,5.001-3.027,5.001c-2.31,0-3.026-1.693-3.026-5.001
	c0-3.309,0.716-5.002,3.026-5.002C149.848,105.791,150.566,107.484,150.566,110.793 M161.417,106.019v3.723h2.201
	c1.646,0,2.129-0.949,2.129-1.926c0-0.975-0.589-1.797-2.176-1.797H161.417z M150.364,85.605v3.72h2.051
	c1.64,0,2.125-0.95,2.125-1.923c0-0.975-0.588-1.796-2.179-1.796H150.364z M112.066,85.527l-1.489,6.874h3.232l-1.694-6.874H112.066
	z M166.237,85.527l-1.562,6.874h3.229l-1.614-6.874H166.237z M179.704,125.9v13.006h2.076V123.31h-2.845l-4.489,10.312
	l-4.491-10.312h-2.847v15.595h2.079V125.9h0.051c0.201,0.769,0.615,2,1.332,3.642l3.258,7.31h1.231l3.258-7.31
	c0.744-1.641,1.131-2.872,1.334-3.642H179.704z"/>
</svg>
