<?xml version="1.0" encoding="utf-8"?>
<!-- Generator: Adobe Illustrator 17.0.2, SVG Export Plug-In . SVG Version: 6.00 Build 0)  -->
<!DOCTYPE svg PUBLIC "-//W3C//DTD SVG 1.1//EN" "http://www.w3.org/Graphics/SVG/1.1/DTD/svg11.dtd">
<svg version="1.1" id="Layer_1" xmlns="http://www.w3.org/2000/svg" xmlns:xlink="http://www.w3.org/1999/xlink" x="0px" y="0px"
	 width="200px" height="200px" viewBox="0 0 200 200" enable-background="new 0 0 200 200" xml:space="preserve">
<path id="path2384" fill="#FFFFFF" d="M87.756,90.966c0-7.528-5.349-10.483-11.626-11.471c-2.225-0.314-4.634-0.393-6.858-0.393
	c-8.977,0-23.916,1.42-28.842,11.548c-0.754,1.537-1.272,3.665-1.272,5.399c0,6.423,3.514,13.303,8.154,18.21
	c4.363,4.616,9.126,6.612,14.212,6.612c3.933,0,7.23-1.32,10.25-3.528C78.726,112.179,87.756,100.344,87.756,90.966"/>
<g id="g2386">
	<g>
		<defs>
			<path id="SVGID_1_" d="M48,96.191c0,1.854,1.079,3.306,3.052,3.306c1.733,0,2.629-1.178,2.629-2.83
				c0-1.813-1.038-3.254-2.972-3.254C49.016,93.413,48,94.54,48,96.191 M64.721,102.116c0-1.33-1.411-1.974-2.942-2.7
				c-1.691-0.806-3.505-1.69-3.505-3.745c0-2.498,2.417-3.586,4.593-3.586c1.169,0,2.337,0.282,3.344,0.845v1.813
				c-0.967-0.766-2.136-1.208-3.384-1.208c-1.21,0-2.377,0.482-2.377,1.569c0,1.289,1.531,2.017,3.142,2.822
				c1.693,0.847,3.465,1.812,3.465,3.665c0,2.7-2.698,3.627-4.954,3.627c-1.412,0-2.66-0.281-3.95-0.806v-1.853
				c1.331,0.724,2.981,1.167,4.029,1.167C63.309,103.727,64.721,103.445,64.721,102.116 M68.87,101.634V90.473
				c0-1.813-0.121-2.619-0.485-3.104l2.781-0.726v10.799l3.666-3.426c0,0,0.725-0.644,1.37-1.49h3.183
				c-0.16,0.04-0.724,0.162-2.739,2.055l-3.426,3.223c0,0,2.056,2.419,3.991,4.553c1.489,1.613,2.618,2.095,3.303,2.095
				c0.12,0,0.281-0.039,0.402-0.08c-0.604,0.444-1.49,0.685-2.458,0.685c-1.247,0-2.296-0.685-3.585-2.215
				c-2.054-2.458-3.707-4.432-3.707-4.432v3.225c0,2.254,0.121,2.617,0.323,3.141h-2.981C68.75,104.131,68.87,103.888,68.87,101.634
				 M41.674,90.713c-0.685,1.371-1.088,3.304-1.088,4.916c0,2.456,0.364,4.673,1.411,7.011c1.773,3.949,4.956,6.205,9.306,6.205
				c1.209,0,2.297-0.122,2.982-0.363c0.685-0.284,1.37-0.807,1.37-1.773c0-0.482-0.362-1.006-0.887-1.208
				c-0.563-0.201-1.047-0.24-2.537-0.321c-1.491-0.082-2.016-0.123-3.062-0.203c-1.652-0.16-2.499-1.249-2.499-2.295
				c0-0.928,0.645-1.734,1.854-2.298c-1.612-0.605-2.726-2.132-2.726-3.859c0-2.503,1.951-4.439,5.108-4.439
				c0.685,0,1.486,0.16,2.17,0.361c0.566,0.161,1.17,0.281,1.814,0.281c0.765,0,1.652-0.038,2.377-0.24v1.611
				c-0.403-0.081-1.692-0.162-2.377-0.162c0.644,0.727,1.007,1.734,1.007,2.7c0,2.256-1.773,4.149-4.915,4.149
				c-0.27,0-0.562-0.014-0.902-0.053c-0.328,0.066-0.624,0.207-0.855,0.396c-0.342,0.276-0.499,0.634-0.499,0.945
				c0,0.524,0.282,0.928,1.57,1.009l2.78,0.161c2.701,0.161,4.151,1.25,4.111,3.182c-0.081,2.216-1.854,3.829-6.125,3.829
				c-1.128,0-2.619-0.202-3.948-0.605c-0.967-0.28-1.894-0.805-2.699-1.409c3.625,6.203,10.072,11.563,17.526,11.563
				c3.625,0,6.729-1.289,9.63-3.423c6.929-5.158,15.713-16.723,15.713-25.706c0-6.729-4.876-9.711-11-10.678
				c-2.216-0.362-4.23-0.402-6.447-0.402C60.571,79.594,46.267,81.206,41.674,90.713"/>
		</defs>
		<clipPath id="SVGID_2_">
			<use xlink:href="#SVGID_1_"  overflow="visible"/>
		</clipPath>
		
			<radialGradient id="rect2409_1_" cx="-135.8814" cy="109.5691" r="1" gradientTransform="matrix(31.5556 0 0 31.5556 4361.0439 -3366.7876)" gradientUnits="userSpaceOnUse">
			<stop  offset="0" style="stop-color:#FAA71A"/>
			<stop  offset="0.0501" style="stop-color:#F99F1C"/>
			<stop  offset="0.2602" style="stop-color:#F58120"/>
			<stop  offset="0.4651" style="stop-color:#F26922"/>
			<stop  offset="0.6608" style="stop-color:#F15523"/>
			<stop  offset="0.8435" style="stop-color:#EF4723"/>
			<stop  offset="1" style="stop-color:#EF4223"/>
		</radialGradient>
		<rect id="rect2409" x="40.586" y="79.594" clip-path="url(#SVGID_2_)" fill="url(#rect2409_1_)" width="46.698" height="40.209"/>
	</g>
</g>
<path id="path2411" fill="#A19589" d="M159.759,109.933h-2.618c0.08-0.683,0.363-1.529,1.369-1.529
	C159.396,108.404,159.759,109.088,159.759,109.933 M160.827,110.699c0.012-0.08,0.015-0.197,0.015-0.291
	c0-1.626-0.569-2.809-2.332-2.809c-1.53,0-2.456,1.167-2.456,2.779c0,1.812,0.806,2.978,2.739,2.978c0.925,0,1.248-0.2,1.611-0.359
	v-1.009c-0.243,0.202-0.886,0.564-1.571,0.564c-0.967,0-1.692-0.768-1.692-1.854L160.827,110.699L160.827,110.699z"/>
<path id="path2413" fill="#A19589" d="M155.087,113.238v-3.264c0-1.489-0.603-2.375-2.013-2.375c-0.766,0-1.449,0.361-1.731,1.007
	h-0.041v-0.886h-0.967v5.518h1.008v-2.539c0-1.369,0.442-2.335,1.61-2.295c0.887,0.041,1.128,0.685,1.128,1.975v2.859H155.087z"/>
<path id="path2415" fill="#A19589" d="M148.948,105.909c0-0.321-0.241-0.604-0.563-0.604c-0.322,0-0.604,0.283-0.604,0.604
	c0,0.319,0.282,0.563,0.604,0.563C148.707,106.472,148.948,106.228,148.948,105.909 M148.868,107.72h-1.008v5.518h1.008V107.72z"/>
<path id="path2417" fill="#A19589" d="M146.864,113.196c-0.402-0.121-0.483-0.402-0.483-0.765v-6.845h-1.047v6.966
	c0,0.522,0.242,0.804,0.805,0.804C146.5,113.356,146.702,113.276,146.864,113.196"/>
<polygon id="polygon2419" fill="#A19589" points="144.692,113.239 141.525,109.285 144.42,105.71 143.18,105.71 140.523,109.053 
	140.523,105.71 139.466,105.71 139.466,113.239 140.523,113.239 140.523,109.575 143.301,113.239 "/>
<path id="path2421" fill="#A19589" d="M137.952,113.238v-3.264c0-1.489-0.604-2.375-2.015-2.375c-0.763,0-1.328,0.323-1.69,0.927
	h-0.04v-2.939H133.2v7.651h1.007v-2.539c0-1.369,0.443-2.335,1.611-2.295c0.886,0.041,1.127,0.685,1.127,1.975v2.859H137.952z"/>
<path id="path2423" fill="#A19589" d="M132.255,113.196v-0.845c-0.161,0.08-0.362,0.201-0.685,0.201
	c-0.483,0-0.846-0.362-0.846-1.007v-3.021h1.37v-0.805h-1.37v-1.611l-1.006,0.321v1.29h-0.968v0.805h0.968v3.223
	c0,1.127,0.645,1.608,1.691,1.608C131.731,113.356,132.053,113.276,132.255,113.196"/>
<path id="path2425" fill="#A19589" d="M127.961,105.909c0-0.321-0.282-0.604-0.604-0.604c-0.323,0-0.563,0.283-0.563,0.604
	c0,0.319,0.24,0.563,0.563,0.563C127.679,106.472,127.961,106.228,127.961,105.909 M127.84,107.72h-1.007v5.518h1.007V107.72z"/>
<path id="path2427" fill="#A19589" d="M125.468,113.238v-3.545c0-1.208-0.523-2.094-1.932-2.094c-0.484,0-1.329,0.28-1.691,1.047
	c-0.282-0.724-0.926-1.047-1.571-1.047c-0.805,0-1.369,0.28-1.772,0.927v-0.806h-0.967v5.518h1.008v-2.779
	c0-1.048,0.443-2.055,1.449-2.055c0.846,0,1.006,0.846,1.006,1.53v3.304h1.008v-2.779c0-1.048,0.402-2.055,1.449-2.055
	c0.806,0,0.966,0.846,0.966,1.53v3.304H125.468L125.468,113.238z"/>
<path id="path2429" fill="#A19589" d="M116.661,111.142c0-1.529-1.289-1.974-2.417-2.496c-0.201-0.08-0.402-0.161-0.563-0.282
	c-0.323-0.201-0.564-0.484-0.564-0.887c0-0.805,0.804-1.047,1.49-1.047c0.535,0,1.118,0.167,1.529,0.324l0.163-0.887
	c-0.565-0.201-1.209-0.322-1.733-0.322c-1.53,0-2.658,0.725-2.658,2.053c0,1.45,1.41,1.813,2.417,2.297
	c0.563,0.24,1.208,0.604,1.208,1.288c0,0.967-1.007,1.288-1.651,1.288c-0.604,0-1.345-0.189-1.773-0.362l-0.08,0.966
	c0.44,0.14,1.172,0.282,1.671,0.282C115.35,113.357,116.661,112.713,116.661,111.142"/>
<polygon id="polygon2431" fill="#A19589" points="105.512,113.238 103.741,110.335 105.352,107.72 104.182,107.72 103.136,109.693 
	102.089,107.72 100.842,107.72 102.451,110.335 100.639,113.238 101.847,113.238 103.056,111.062 104.262,113.238 "/>
<path id="path2433" fill="#A19589" d="M94.619,113.196c-0.403-0.121-0.484-0.402-0.484-0.765v-6.845h-1.046v6.966
	c0,0.522,0.24,0.804,0.805,0.804C94.256,113.356,94.497,113.276,94.619,113.196"/>
<path id="path2435" fill="#A19589" d="M91.843,113.035v-3.288h-1.088v2.523c-0.282,0.081-0.483,0.122-1.207,0.122
	c-1.571,0-2.86-1.169-2.86-2.941c0-1.691,1.168-2.938,2.899-2.938c0.927,0,1.652,0.24,2.093,0.522l0.082-1.088
	c-0.645-0.241-1.128-0.403-2.214-0.403c-2.297,0-3.987,1.57-3.987,3.866c0,2.417,1.57,3.946,3.946,3.946
	C90.714,113.357,91.399,113.156,91.843,113.035"/>
<path id="path2437" fill="#A19589" d="M111.129,110.458c0-1.652-0.967-2.86-2.618-2.86c-1.691,0-2.657,1.208-2.657,2.86
	c0,1.611,0.966,2.898,2.657,2.898C110.162,113.357,111.129,112.07,111.129,110.458 M110.041,110.458c0,1.006-0.362,2.093-1.53,2.093
	c-1.208,0-1.57-1.087-1.57-2.093c0-1.048,0.443-2.055,1.57-2.055C109.558,108.404,110.041,109.411,110.041,110.458"/>
<path id="path2439" fill="#A19589" d="M99.885,113.238c-0.04-0.163-0.04-0.444-0.04-1.089v-2.294c0-1.491-0.564-2.256-2.135-2.256
	c-0.725,0-1.248,0.2-1.771,0.523l0.08,0.845c0.403-0.321,0.926-0.563,1.531-0.563c1.006,0,1.248,0.482,1.248,1.451
	c-0.403-0.042-0.645-0.042-1.048-0.042c-1.046,0-2.416,0.443-2.416,1.812c0,1.209,0.766,1.732,1.933,1.732
	c0.927,0,1.409-0.523,1.611-0.846h0.041v0.727H99.885z M98.798,111.101c0,0.807-0.443,1.45-1.45,1.45
	c-0.444,0-0.926-0.321-0.926-0.927c0-0.965,1.249-1.046,1.772-1.046c0.241,0,0.402,0.042,0.604,0.042V111.101L98.798,111.101z"/>
</svg>
