<?xml version="1.0" encoding="utf-8"?>
<!-- Generator: Adobe Illustrator 17.0.2, SVG Export Plug-In . SVG Version: 6.00 Build 0)  -->
<!DOCTYPE svg PUBLIC "-//W3C//DTD SVG 1.1//EN" "http://www.w3.org/Graphics/SVG/1.1/DTD/svg11.dtd">
<svg version="1.1" id="Layer_1" xmlns="http://www.w3.org/2000/svg" xmlns:xlink="http://www.w3.org/1999/xlink" x="0px" y="0px"
	 width="389.667px" height="59.333px" viewBox="0 0 389.667 59.333" enable-background="new 0 0 389.667 59.333"
	 xml:space="preserve">
<path d="M251.34,34.256l2.899-6.51c0.663-1.461,1.048-2.556,1.233-3.239v11.574h1.848V22.199h-2.534l-3.992,9.18l-3.998-9.18h-2.536
	v13.882h1.851V24.507c0.179,0.684,0.569,1.779,1.232,3.239l2.9,6.51H251.34z M317.396,34.256l2.902-6.51
	c0.661-1.461,1.048-2.556,1.232-3.239v11.574h1.848V22.199h-2.533l-3.995,9.18l-3.997-9.18h-2.536v13.882h1.849V24.507
	c0.185,0.684,0.571,1.779,1.235,3.239l2.899,6.51H317.396z M305.444,23.685c0-1.031,0.437-1.486,1.462-1.486h0.388v9.205
	c0,3.673-2.742,4.997-5.207,4.997c-2.468,0-5.204-1.324-5.204-4.997v-9.205h1.849v9.11c0,2.581,1.623,3.471,3.355,3.471
	c1.736,0,3.356-0.89,3.356-3.471V23.685z M262.171,23.685c0-1.031-0.435-1.486-1.461-1.486h-0.39v9.205
	c0,3.673,2.742,4.997,5.207,4.997c2.466,0,5.207-1.324,5.207-4.997v-9.205h-1.851v9.11c0,2.581-1.622,3.471-3.356,3.471
	c-1.738,0-3.357-0.89-3.357-3.471V23.685z M273.301,25.53c-0.23,5.026,7.579,3.359,7.579,6.991c0,1.504-1.302,2.328-3.334,2.328
	c-1.553,0-2.921-0.641-4.04-1.715l-1.075,1.352c1.372,1.3,3.287,1.914,5.23,1.914c2.81,0,5.251-1.301,5.251-4.088
	c0-4.998-8.172-3.382-7.717-6.986c0.14-1.161,1.143-1.893,2.717-1.893c1.531,0,2.854,0.59,3.792,1.575l1.143-1.143
	c-1.235-1.28-2.834-1.986-4.912-1.986C274.99,21.88,273.39,23.384,273.301,25.53 M287.489,29.503h5.847v-1.504h-5.847v-4.293h5.341
	c1.074,0,1.486-0.435,1.486-1.257v-0.249h-8.678v13.882h8.999v-1.506h-7.148V29.503z M199.656,29.145
	c0,4.521,1.966,7.261,6.416,7.261c4.453,0,6.418-2.741,6.418-7.261c0-4.525-1.965-7.267-6.418-7.267
	C201.622,21.878,199.656,24.62,199.656,29.145 M226.669,36.085c-3.219,0.502-4.111-0.319-4.772-1.694l-1.736-3.56h-1.735v5.254
	h-3.561V22.204h5.752c3.495,0,5.23,1.731,5.23,4.357c0,1.805-0.705,3.036-2.327,3.768L226.669,36.085z M163.965,36.085v-5.8h-4.749
	v5.8h-3.564V22.204h3.564v5.365h4.749v-5.365h3.561v13.881H163.965z M181.958,36.406c-2.051,0-3.927-0.551-5.731-1.923l1.438-2.397
	c1.28,1.072,2.878,1.622,4.09,1.622c1.302,0,2.351-0.321,2.351-1.343c0-2.448-7.263-1.281-7.263-6.216
	c0-2.9,2.491-4.271,5.211-4.271c2.03,0,3.718,0.619,5.018,1.692l-1.276,2.396c-1.072-0.845-2.421-1.393-3.701-1.393
	c-1.14,0-1.825,0.435-1.825,1.191c0,2.418,7.26,1.276,7.26,6.23C187.529,35.123,184.518,36.406,181.958,36.406 M233.043,28.113
	l-2.605-5.909h-3.881l4.725,9.269v4.612h3.518v-4.612l4.725-9.269h-3.881L233.043,28.113z M191.985,36.085V25.008h-3.492v-2.804
	h10.683v0.661c0,1.504-0.593,2.143-2.485,2.143h-1.146v11.077H191.985z M170.563,22.204h3.564v13.882h-3.564V22.204z
	 M208.765,29.145c0,2.941-0.637,4.451-2.693,4.451c-2.053,0-2.693-1.51-2.693-4.451c0-2.95,0.64-4.454,2.693-4.454
	C208.128,24.69,208.765,26.195,208.765,29.145 M218.426,24.894v3.308h1.966c1.461,0,1.896-0.842,1.896-1.707
	c0-0.872-0.524-1.602-1.944-1.602H218.426z M128.229,36.086c-3.197,0.34-3.769-0.301-4.314-1.719l-1.349-3.534h-1.577v5.254h-3.468
	V22.197h5.435c3.492,0,5.23,1.736,5.23,4.388c0,1.801-0.825,3.15-2.375,3.787L128.229,36.086z M73.498,31.515l1.714,2.852
	c0.776,1.305,1.372,1.719,2.719,1.719h1.506V22.197h-3.2v8.541c-0.386-1.048-1.161-2.646-1.964-3.975l-1.572-2.62
	c-0.914-1.533-1.464-1.945-2.831-1.945h-1.623v13.889h3.195v-8.66C71.834,28.501,72.701,30.191,73.498,31.515 M89.753,36.086
	l-0.619-2.426h-4.153l-0.527,2.426h-3.493l3.563-13.889h4.703l4.066,13.889H89.753z M137.843,36.086l-0.571-2.426h-4.176
	l-0.552,2.426h-3.494l3.746-13.889h4.704l3.881,13.889H137.843z M111.445,22.197h3.472v9.318c0,3.769-2.602,4.888-5.412,4.888
	c-2.81,0-5.413-1.119-5.413-4.888v-9.318h0.824c1.986,0,2.649,0.937,2.649,2.787v6.439c0,1.512,0.64,2.191,1.941,2.191
	c1.3,0,1.94-0.679,1.94-2.191V22.197z M95.894,36.086v-11.08h-3.265v-2.81h10.14v0.664c0,1.504-0.595,2.146-2.491,2.146h-0.914
	v11.08H95.894z M142.959,36.086V22.197h3.47v11.078h4.956v2.811h-5.141h-0.268H142.959z M120.989,24.895v3.308h1.828
	c1.462,0,1.897-0.842,1.897-1.708c0-0.87-0.526-1.601-1.941-1.601H120.989z M85.572,30.944h2.878l-1.528-6.12L85.572,30.944z
	 M133.734,30.944h2.875l-1.461-6.12L133.734,30.944z"/>
</svg>
