<?xml version="1.0" encoding="UTF-8"?>
<svg width="250px" height="145px" viewBox="0 0 250 145" version="1.1" xmlns="http://www.w3.org/2000/svg" xmlns:xlink="http://www.w3.org/1999/xlink">
    <!-- Generator: Sketch 47.1 (45422) - http://www.bohemiancoding.com/sketch -->
    <title>dino-bodyshape/ankylosaurid/1</title>
    <desc>Created with Sketch.</desc>
    <defs></defs>
    <g id="Symbols" stroke="none" stroke-width="1" fill="none" fill-rule="evenodd">
        <g id="dino-bodyshape/ankylosaurid/1" fill="#D5D5D5">
            <path d="M57.3454317,137.208871 C56.1453633,137.208871 54.5447315,137.098594 54.5447315,137.098594 C54.5447315,137.098594 55.9669747,132.353459 60.4380405,129.333827 C62.8333122,127.715356 62.5997853,120.93497 62.5997853,118.296441 C62.5997853,115.659534 65.4767061,110.382476 65.4767061,110.382476 C65.4767061,110.382476 59.9612565,104.386999 58.7611881,102.708525 C57.5627414,101.028429 54.4441852,98.3899006 53.2457385,97.4330893 C52.0456701,96.4714128 46.0501931,94.0728977 44.848503,93.832884 C43.651678,93.5944921 35.9761052,90.2343005 34.5392666,89.5175029 C33.0975627,88.7958401 23.7435159,83.7604179 22.7834612,83.7604179 C21.8250281,83.7604179 15.5879158,83.7604179 14.1494554,83.2803905 C12.710995,82.8019848 5.75384157,83.5220259 4.07698921,83.5220259 C2.39689342,83.5220259 0,81.8403084 0,80.6434834 C0,79.443415 0,78.24659 3.11693447,77.2865352 C6.23386894,76.3264805 10.1276045,74.9301847 13.0045252,73.0116969 C15.8830677,71.0899657 20.623338,71.2910583 20.623338,71.2910583 L21.1049871,67.690853 L23.2618668,69.8493544 L23.9835296,67.4508393 L26.2474424,70.3747898 L27.53184,71.6559439 L27.5821131,65.0523242 L31.0525813,67.8432941 L31.6574806,63.8538775 C31.6574806,63.8538775 32.6175354,65.5323516 34.7760368,67.4508393 C36.93616,69.3709488 35.2868767,70.9569852 35.2868767,70.9569852 L39.5746888,71.2910583 C35.4976996,67.9324884 35.0160505,56.6567104 35.0160505,56.6567104 C37.1745519,58.8168335 43.1716506,60.4953076 43.1716506,60.4953076 L42.6916233,50.6628551 L50.1271823,54.979858 C50.1271823,54.979858 47.7286672,42.507255 46.7686125,40.3471318 C45.8101794,38.1886304 44.371719,33.6332355 44.371719,33.6332355 C44.371719,33.6332355 45.3301521,33.8748709 46.7686125,34.833304 C48.2070728,35.7933587 56.3642947,39.6287125 56.3642947,39.6287125 L55.1626046,25.7192708 C55.1626046,25.7192708 56.1226593,25.7192708 58.2811607,27.8761505 C60.4380405,30.0362737 64.995057,33.3916001 64.995057,33.3916001 C64.995057,33.3916001 65.2350707,28.1177859 65.4767061,25.7192708 C65.7167198,23.319134 65.7150981,11.5681937 65.7150981,11.5681937 C65.7150981,11.5681937 69.073668,14.4451145 70.5137501,16.365224 C71.9538322,18.2837117 80.5862162,24.039175 80.5862162,24.039175 C80.5862162,24.039175 82.7447177,17.562049 83.9447861,15.4084127 C85.1432328,13.2482895 88.0217753,6.28951437 88.9818301,3.65422898 C89.9418848,1.01570017 90.6603041,1.49248411 90.8986961,2.93256621 C91.1419532,4.37264832 91.3787235,7.73121819 92.8204273,9.17130029 C94.257266,10.6097607 97.6174575,17.323657 97.6174575,17.323657 C97.6174575,17.323657 107.691545,4.13101292 109.368398,1.73411951 C111.046872,-0.664395623 111.525278,0.0540237165 112.006927,3.41259358 C112.483711,6.77116345 116.752062,16.4041451 116.752062,16.4041451 C116.752062,16.4041451 119.385726,14.0591465 120.880946,13.0066541 C122.818894,11.6492794 128.796533,5.33270306 130.233371,4.13101292 C131.673453,2.93256621 131.673453,3.41259358 131.673453,5.09268937 C131.673453,6.77116345 132.393494,14.9251419 132.8719,17.085265 C133.350306,19.2437665 133.833576,24.7575944 133.833576,24.7575944 C133.833576,24.7575944 139.396056,21.9390553 140.836138,20.9790005 C142.272977,20.0205675 149.063093,15.5981532 150.983203,14.1564494 C152.901691,12.7147456 157.046792,10.483267 157.046792,10.483267 C157.046792,10.483267 156.291073,14.2148311 155.997543,15.4408469 C155.749421,16.4836091 152.908178,27.3961232 152.908178,27.3961232 C158.663641,22.8374849 163.569326,21.4006462 165.012651,21.1606325 C166.451112,20.9222405 165.729449,22.6007146 164.290989,25.2376217 C162.850907,27.8761505 163.80934,40.1087399 163.80934,40.1087399 L165.012651,40.1087399 C165.012651,40.1087399 172.684981,31.9547615 173.645035,31.9547615 C174.606712,31.9547615 175.801915,41.7888357 175.801915,41.7888357 L182.759069,37.9518601 C182.759069,37.9518601 182.759069,44.4273645 183.717502,46.3474739 C184.677556,48.26434 180.122162,52.3413292 180.122162,52.3413292 L183.717502,52.8229783 L183.957515,52.1029372 C184.195907,51.3812745 188.992938,46.1042168 189.952992,44.9057701 C190.911425,43.7073234 192.353129,43.465688 192.353129,44.1873508 C192.353129,44.9057701 193.79159,52.1029372 193.79159,52.1029372 C193.79159,52.1029372 195.228428,49.7011787 196.190105,48.5043537 C197.150159,47.305907 200.267094,45.8658249 200.267094,45.8658249 L201.467162,53.5397759 C201.467162,53.5397759 202.907244,52.3413292 203.627285,51.3812745 C204.345705,50.4228414 207.942667,48.0243263 207.942667,48.0243263 C207.942667,48.0243263 208.9011,52.5797212 209.381127,55.21825 C209.862776,57.8567788 208.422694,59.2968609 208.422694,59.2968609 L215.376604,58.5768199 C214.896577,54.7398443 214.418171,44.1873508 214.418171,44.1873508 C214.656563,47.0642716 219.936864,57.6183868 219.936864,57.6183868 C223.052177,54.979858 225.213922,45.3857975 225.213922,45.3857975 C227.129166,49.4644084 224.732273,59.5352529 224.732273,59.5352529 C233.127886,55.21825 233.366278,42.9856607 233.366278,42.9856607 C234.327955,44.9057701 233.606292,52.1029372 233.606292,52.1029372 C235.046374,50.4228414 236.964862,44.9057701 236.964862,44.9057701 C238.161687,50.6628551 233.606292,59.5352529 233.606292,59.5352529 C244.878827,58.3384279 249.675857,61.2153487 249.675857,61.2153487 C249.675857,61.2153487 239.123363,62.8938227 233.606292,65.2907162 C213.459738,74.4079927 198.58862,77.5249272 194.991658,77.7665626 C191.391453,78.0049546 171.726548,78.9617659 169.326411,79.2034013 C166.929517,79.443415 158.535525,82.5619711 158.535525,82.5619711 C158.535525,82.5619711 152.296791,100.550024 151.579994,102.23012 C150.859953,103.908594 151.579994,105.105419 152.536805,108.223975 C153.49686,111.342531 154.456914,114.699479 153.738495,117.578022 C153.020076,120.458186 153.49686,128.370529 153.49686,131.487463 C153.49686,134.607641 150.383169,136.04448 148.944708,136.04448 C147.503004,136.04448 137.428917,135.806088 136.232092,135.806088 C135.032023,135.806088 133.807629,134.599533 133.807629,134.599533 L132.151859,133.647586 C132.151859,133.647586 133.274085,131.103117 134.954181,130.861482 C136.632655,130.621468 137.908944,127.410474 137.908944,125.732 C137.908944,124.053526 135.512051,109.904071 134.547131,107.505555 C133.593563,105.10704 132.393494,99.1115634 132.393494,99.1115634 C120.640932,103.666958 114.645455,102.708525 114.645455,102.708525 C114.645455,102.708525 115.843902,111.100896 116.802335,114.222695 C117.76239,117.33963 118.480809,128.610543 118.242417,134.367628 C118.004025,140.124713 116.322308,141.803187 115.365496,142.519984 C114.407063,143.241647 113.443765,143.001633 112.486954,143.241647 C111.526899,143.481661 102.65288,144.201702 101.211176,143.961688 C99.7743373,143.723296 98.8807728,142.014009 98.8807728,142.014009 L96.6557811,141.803187 C96.6557811,141.803187 97.6174575,138.683009 99.2959316,137.244548 C100.972784,135.806088 101.932839,135.086047 102.412866,132.925924 C102.891272,130.770666 101.932839,126.452041 101.211176,125.013581 C100.494378,123.57512 98.5726471,118.776468 98.5726471,117.578022 C98.5726471,116.377953 97.3758221,112.780991 97.3758221,112.780991 C96.1757537,111.822558 94.3659208,105.676262 94.3659208,105.676262 C94.3659208,105.676262 92.8204273,117.578022 92.5787919,122.856701 C92.3387782,128.128893 90.6603041,130.52903 89.220222,131.487463 C87.7833833,132.44914 84.6632054,132.44914 82.266312,132.44914 C79.8645535,132.44914 78.1893228,131.487463 78.1893228,131.487463 L74.3507256,131.245828 C74.3507256,131.245828 74.5907393,134.127614 73.1506572,135.086047 C71.7121968,136.04448 70.9937774,137.486184 68.5952623,137.724576 C66.1951255,137.967833 63.3944252,137.218601 61.8781226,137.244548 C60.1639708,137.273739 57.3227277,137.486184 57.3227277,137.486184 C57.3227277,137.486184 57.4184088,137.251035 57.5903105,136.892636" id="dinosaur/bodyshape/ankylosaurid-1" transform="translate(124.998478, 72.004997) scale(-1, 1) translate(-124.998478, -72.004997) "></path>
            <path d="M57.3454317,137.208871 C56.1453633,137.208871 54.5447315,137.098594 54.5447315,137.098594 C54.5447315,137.098594 55.9669747,132.353459 60.4380405,129.333827 C62.8333122,127.715356 62.5997853,120.93497 62.5997853,118.296441 C62.5997853,115.659534 65.4767061,110.382476 65.4767061,110.382476 C65.4767061,110.382476 59.9612565,104.386999 58.7611881,102.708525 C57.5627414,101.028429 54.4441852,98.3899006 53.2457385,97.4330893 C52.0456701,96.4714128 46.0501931,94.0728977 44.848503,93.832884 C43.651678,93.5944921 35.9761052,90.2343005 34.5392666,89.5175029 C33.0975627,88.7958401 23.7435159,83.7604179 22.7834612,83.7604179 C21.8250281,83.7604179 15.5879158,83.7604179 14.1494554,83.2803905 C12.710995,82.8019848 5.75384157,83.5220259 4.07698921,83.5220259 C2.39689342,83.5220259 0,81.8403084 0,80.6434834 C0,79.443415 0,78.24659 3.11693447,77.2865352 C6.23386894,76.3264805 10.1276045,74.9301847 13.0045252,73.0116969 C15.8830677,71.0899657 20.623338,71.2910583 20.623338,71.2910583 L21.1049871,67.690853 L23.2618668,69.8493544 L23.9835296,67.4508393 L26.2474424,70.3747898 L27.53184,71.6559439 L27.5821131,65.0523242 L31.0525813,67.8432941 L31.6574806,63.8538775 C31.6574806,63.8538775 32.6175354,65.5323516 34.7760368,67.4508393 C36.93616,69.3709488 35.2868767,70.9569852 35.2868767,70.9569852 L39.5746888,71.2910583 C35.4976996,67.9324884 35.0160505,56.6567104 35.0160505,56.6567104 C37.1745519,58.8168335 43.1716506,60.4953076 43.1716506,60.4953076 L42.6916233,50.6628551 L50.1271823,54.979858 C50.1271823,54.979858 47.7286672,42.507255 46.7686125,40.3471318 C45.8101794,38.1886304 44.371719,33.6332355 44.371719,33.6332355 C44.371719,33.6332355 45.3301521,33.8748709 46.7686125,34.833304 C48.2070728,35.7933587 56.3642947,39.6287125 56.3642947,39.6287125 L55.1626046,25.7192708 C55.1626046,25.7192708 56.1226593,25.7192708 58.2811607,27.8761505 C60.4380405,30.0362737 64.995057,33.3916001 64.995057,33.3916001 C64.995057,33.3916001 65.2350707,28.1177859 65.4767061,25.7192708 C65.7167198,23.319134 65.7150981,11.5681937 65.7150981,11.5681937 C65.7150981,11.5681937 69.073668,14.4451145 70.5137501,16.365224 C71.9538322,18.2837117 80.5862162,24.039175 80.5862162,24.039175 C80.5862162,24.039175 82.7447177,17.562049 83.9447861,15.4084127 C85.1432328,13.2482895 88.0217753,6.28951437 88.9818301,3.65422898 C89.9418848,1.01570017 90.6603041,1.49248411 90.8986961,2.93256621 C91.1419532,4.37264832 91.3787235,7.73121819 92.8204273,9.17130029 C94.257266,10.6097607 97.6174575,17.323657 97.6174575,17.323657 C97.6174575,17.323657 107.691545,4.13101292 109.368398,1.73411951 C111.046872,-0.664395623 111.525278,0.0540237165 112.006927,3.41259358 C112.483711,6.77116345 116.752062,16.4041451 116.752062,16.4041451 C116.752062,16.4041451 119.385726,14.0591465 120.880946,13.0066541 C122.818894,11.6492794 128.796533,5.33270306 130.233371,4.13101292 C131.673453,2.93256621 131.673453,3.41259358 131.673453,5.09268937 C131.673453,6.77116345 132.393494,14.9251419 132.8719,17.085265 C133.350306,19.2437665 133.833576,24.7575944 133.833576,24.7575944 C133.833576,24.7575944 139.396056,21.9390553 140.836138,20.9790005 C142.272977,20.0205675 149.063093,15.5981532 150.983203,14.1564494 C152.901691,12.7147456 157.046792,10.483267 157.046792,10.483267 C157.046792,10.483267 156.291073,14.2148311 155.997543,15.4408469 C155.749421,16.4836091 152.908178,27.3961232 152.908178,27.3961232 C158.663641,22.8374849 163.569326,21.4006462 165.012651,21.1606325 C166.451112,20.9222405 165.729449,22.6007146 164.290989,25.2376217 C162.850907,27.8761505 163.80934,40.1087399 163.80934,40.1087399 L165.012651,40.1087399 C165.012651,40.1087399 172.684981,31.9547615 173.645035,31.9547615 C174.606712,31.9547615 175.801915,41.7888357 175.801915,41.7888357 L182.759069,37.9518601 C182.759069,37.9518601 182.759069,44.4273645 183.717502,46.3474739 C184.677556,48.26434 180.122162,52.3413292 180.122162,52.3413292 L183.717502,52.8229783 L183.957515,52.1029372 C184.195907,51.3812745 188.992938,46.1042168 189.952992,44.9057701 C190.911425,43.7073234 192.353129,43.465688 192.353129,44.1873508 C192.353129,44.9057701 193.79159,52.1029372 193.79159,52.1029372 C193.79159,52.1029372 195.228428,49.7011787 196.190105,48.5043537 C197.150159,47.305907 200.267094,45.8658249 200.267094,45.8658249 L201.467162,53.5397759 C201.467162,53.5397759 202.907244,52.3413292 203.627285,51.3812745 C204.345705,50.4228414 207.942667,48.0243263 207.942667,48.0243263 C207.942667,48.0243263 208.9011,52.5797212 209.381127,55.21825 C209.862776,57.8567788 208.422694,59.2968609 208.422694,59.2968609 L215.376604,58.5768199 C214.896577,54.7398443 214.418171,44.1873508 214.418171,44.1873508 C214.656563,47.0642716 219.936864,57.6183868 219.936864,57.6183868 C223.052177,54.979858 225.213922,45.3857975 225.213922,45.3857975 C227.129166,49.4644084 224.732273,59.5352529 224.732273,59.5352529 C233.127886,55.21825 233.366278,42.9856607 233.366278,42.9856607 C234.327955,44.9057701 233.606292,52.1029372 233.606292,52.1029372 C235.046374,50.4228414 236.964862,44.9057701 236.964862,44.9057701 C238.161687,50.6628551 233.606292,59.5352529 233.606292,59.5352529 C244.878827,58.3384279 249.675857,61.2153487 249.675857,61.2153487 C249.675857,61.2153487 239.123363,62.8938227 233.606292,65.2907162 C213.459738,74.4079927 198.58862,77.5249272 194.991658,77.7665626 C191.391453,78.0049546 171.726548,78.9617659 169.326411,79.2034013 C166.929517,79.443415 158.535525,82.5619711 158.535525,82.5619711 C158.535525,82.5619711 152.296791,100.550024 151.579994,102.23012 C150.859953,103.908594 151.579994,105.105419 152.536805,108.223975 C153.49686,111.342531 154.456914,114.699479 153.738495,117.578022 C153.020076,120.458186 153.49686,128.370529 153.49686,131.487463 C153.49686,134.607641 150.383169,136.04448 148.944708,136.04448 C147.503004,136.04448 137.428917,135.806088 136.232092,135.806088 C135.032023,135.806088 133.807629,134.599533 133.807629,134.599533 L132.151859,133.647586 C132.151859,133.647586 133.274085,131.103117 134.954181,130.861482 C136.632655,130.621468 137.908944,127.410474 137.908944,125.732 C137.908944,124.053526 135.512051,109.904071 134.547131,107.505555 C133.593563,105.10704 132.393494,99.1115634 132.393494,99.1115634 C120.640932,103.666958 114.645455,102.708525 114.645455,102.708525 C114.645455,102.708525 115.843902,111.100896 116.802335,114.222695 C117.76239,117.33963 118.480809,128.610543 118.242417,134.367628 C118.004025,140.124713 116.322308,141.803187 115.365496,142.519984 C114.407063,143.241647 113.443765,143.001633 112.486954,143.241647 C111.526899,143.481661 102.65288,144.201702 101.211176,143.961688 C99.7743373,143.723296 98.8807728,142.014009 98.8807728,142.014009 L96.6557811,141.803187 C96.6557811,141.803187 97.6174575,138.683009 99.2959316,137.244548 C100.972784,135.806088 101.932839,135.086047 102.412866,132.925924 C102.891272,130.770666 101.932839,126.452041 101.211176,125.013581 C100.494378,123.57512 98.5726471,118.776468 98.5726471,117.578022 C98.5726471,116.377953 97.3758221,112.780991 97.3758221,112.780991 C96.1757537,111.822558 94.3659208,105.676262 94.3659208,105.676262 C94.3659208,105.676262 92.8204273,117.578022 92.5787919,122.856701 C92.3387782,128.128893 90.6603041,130.52903 89.220222,131.487463 C87.7833833,132.44914 84.6632054,132.44914 82.266312,132.44914 C79.8645535,132.44914 78.1893228,131.487463 78.1893228,131.487463 L74.3507256,131.245828 C74.3507256,131.245828 74.5907393,134.127614 73.1506572,135.086047 C71.7121968,136.04448 70.9937774,137.486184 68.5952623,137.724576 C66.1951255,137.967833 63.3944252,137.218601 61.8781226,137.244548 C60.1639708,137.273739 57.3227277,137.486184 57.3227277,137.486184 C57.3227277,137.486184 57.4184088,137.251035 57.5903105,136.892636" id="dinosaur/bodyshape/ankylosaurid-1" transform="translate(124.998478, 72.004997) scale(-1, 1) translate(-124.998478, -72.004997) "></path>
        </g>
    </g>
</svg>