<?xml version="1.0" encoding="UTF-8"?>
<svg width="250px" height="111px" viewBox="0 0 250 111" version="1.1" xmlns="http://www.w3.org/2000/svg" xmlns:xlink="http://www.w3.org/1999/xlink">
    <!-- Generator: Sketch 47.1 (45422) - http://www.bohemiancoding.com/sketch -->
    <title>dino-bodyshape/ornithomimosaur/1</title>
    <desc>Created with Sketch.</desc>
    <defs></defs>
    <g id="Symbols" stroke="none" stroke-width="1" fill="none" fill-rule="evenodd">
        <g id="dino-bodyshape/ornithomimosaur/1" fill="#D5D5D5">
            <path d="M17.877501,0.48474064 C25.8612724,1.08556434 48.4362433,5.48235297 62.4674358,10.9599712 C76.4969957,16.4375894 100.330757,24.6042202 110.805988,26.1421982 C121.281219,27.6801763 129.83316,27.4891535 137.232435,26.3348537 C144.631709,25.1821865 154.527341,23.9038034 159.622913,23.8368638 C166.829532,23.7405361 175.192084,24.220542 184.127704,26.1421982 C193.064956,28.0654871 204.501831,33.7341281 206.808798,33.9267835 C209.114133,34.119439 209.786794,34.8867953 213.630106,30.1781661 C217.475052,25.4711696 222.182048,16.7249399 228.04661,15.2832895 C233.906274,13.8432719 245.055798,18.0702625 245.055798,18.0702625 C245.055798,18.0702625 249.571772,19.2245624 249.666467,22.2025581 L249.571772,22.2025581 C249.571772,22.2025581 248.322777,22.3952135 247.264805,22.4915412 C246.592143,23.2605302 246.401121,24.0295193 246.401121,24.0295193 L248.706455,23.8368638 C248.706455,23.8368638 247.937466,26.6238368 244.575792,26.8148596 C241.210853,27.007515 239.000214,27.6801763 236.791207,28.3528376 C234.580568,29.0254989 231.88829,30.3724542 230.255617,30.563477 C228.621311,30.7561324 226.795982,30.9471552 226.026993,31.6198165 C225.259637,32.2941104 219.780386,40.4607412 216.70443,42.7677083 C213.630106,45.0746754 204.787549,51.3229153 200.175248,52.8592607 C197.869913,55.644601 194.410279,59.200563 194.410279,59.200563 C194.410279,59.200563 198.927885,64.6781812 200.175248,66.5051424 C201.425875,68.3321036 204.212848,71.3100993 204.501831,72.3664388 C204.787549,73.4244109 205.269188,75.826073 203.154876,77.7477293 C203.058548,78.9020291 202.289559,79.6710182 202.289559,79.6710182 C202.289559,79.6710182 201.616898,81.9763526 201.234852,82.169008 C200.847909,82.3600307 198.255224,83.0343247 197.775218,81.6873694 C198.638902,81.7853298 199.215236,81.4963467 199.215236,81.4963467 C199.215236,81.4963467 199.020948,80.5347022 199.793202,79.8620409 C199.793202,78.613046 199.887897,77.6530342 199.887897,77.6530342 L199.598914,76.7877175 C199.598914,76.7877175 198.829925,78.707741 197.869913,78.8057014 C198.062569,77.5567065 198.927885,74.4807504 197.869913,73.519106 C196.813574,72.5590942 189.894305,64.3908307 188.934293,63.3328586 C187.972649,62.2765191 187.202027,61.3165073 187.299988,60.738541 C187.394683,60.1622074 187.972649,59.2968907 187.972649,59.2968907 C187.972649,59.2968907 186.914677,58.3368789 187.107332,57.5678899 C187.299988,56.7972682 188.356327,55.644601 188.356327,55.644601 L179.131724,56.4152227 L179.515402,60.2569025 C179.515402,60.2569025 179.708058,64.3908307 179.131724,65.4471702 C179.419075,67.081476 179.515402,73.519106 179.515402,76.1150562 C179.515402,78.707741 179.131724,83.9943365 179.226419,85.4359868 C179.322747,86.8776372 182.398703,96.0075451 183.358715,96.8712292 C184.320359,97.7349132 185.378331,100.043513 186.434671,101.003525 C187.49101,101.963537 188.548982,103.886825 192.104944,104.941532 C195.660906,106.001137 196.428263,106.961149 196.813574,107.537482 C198.253591,107.826466 199.024213,109.460771 199.024213,109.460771 L197.197252,108.884438 C197.197252,108.884438 197.966241,109.749755 197.775218,110.22976 C197.006229,109.84445 196.524591,109.460771 195.468251,109.557099 C194.410279,109.651794 193.450267,109.651794 192.775973,109.268116 C192.104944,108.884438 191.623306,108.884438 190.663294,109.077093 C189.70165,109.268116 187.685298,109.940777 185.76201,106.770126 C183.838721,103.597842 183.455042,106.384815 183.55137,107.153804 C182.495031,106.481143 182.111352,105.137453 182.013392,103.308859 C181.918697,101.483531 180.091736,98.2165518 179.131724,96.3912233 C178.17008,94.5658948 175.863113,90.7225823 174.997796,89.4719547 C174.132479,88.2229598 173.750434,85.8212977 173.750434,83.9943365 C173.750434,82.169008 171.538162,75.7297453 171.154483,74.288095 C170.770805,72.8464447 170.192839,66.8888205 170.192839,65.063492 C170.192839,63.2381635 169.712833,61.9875359 169.712833,61.9875359 L167.791177,59.6805689 C167.791177,59.6805689 164.138887,62.2765191 156.83594,64.3908307 C149.532994,66.5051424 140.499413,68.8104768 139.154091,69.7721212 C137.808768,70.732133 136.847124,72.3664388 134.830772,73.2317555 C132.811156,74.0970722 129.447849,78.3256955 127.52456,80.5347022 C125.602904,82.7453416 121.181625,86.493959 118.20363,86.8776372 C116.569324,88.4139826 115.416657,87.2596827 115.416657,87.2596827 C115.416657,87.2596827 112.149678,87.0686599 112.149678,84.4743424 C113.303978,85.3412918 114.360317,85.2433314 115.70564,84.6686305 C117.04933,84.0906642 121.759592,81.0147081 121.759592,81.0147081 C121.759592,81.0147081 119.356297,81.1110358 119.356297,80.1510241 C120.990603,80.3420468 121.857552,79.6693855 122.721236,79.1893796 C123.58492,78.707741 124.835548,78.3256955 124.835548,78.3256955 C124.835548,78.3256955 130.313166,71.501122 131.465833,70.1557994 C132.620133,68.8104768 133.963823,67.6578096 137.905096,66.2161592 C141.844736,64.7745089 143.76476,62.2765191 145.208043,60.9295638 C146.649693,59.5842411 151.549345,55.0699001 154.146928,54.6845892 C151.261994,52.6666053 147.707665,49.1090106 143.479042,46.419998 C139.250419,43.7277201 135.501801,42.4803579 124.73922,40.2697185 C113.975006,38.0607118 99.0817625,32.3888055 92.931483,29.9855107 C86.7795708,27.5854813 69.0013935,18.5519011 57.6608462,14.3232777 C46.3219316,10.0946544 26.5257704,3.2717136 18.1648515,2.40639687 C9.80393261,1.54108013 0.1940188,2.02271869 0.00299604838,1.73373555 C-0.189659376,1.44638509 8.94188122,-0.187920673 17.877501,0.48474064 Z" id="dinosaur/bodyshape/ornithomimosaur/1"></path>
            <path d="M17.877501,0.48474064 C25.8612724,1.08556434 48.4362433,5.48235297 62.4674358,10.9599712 C76.4969957,16.4375894 100.330757,24.6042202 110.805988,26.1421982 C121.281219,27.6801763 129.83316,27.4891535 137.232435,26.3348537 C144.631709,25.1821865 154.527341,23.9038034 159.622913,23.8368638 C166.829532,23.7405361 175.192084,24.220542 184.127704,26.1421982 C193.064956,28.0654871 204.501831,33.7341281 206.808798,33.9267835 C209.114133,34.119439 209.786794,34.8867953 213.630106,30.1781661 C217.475052,25.4711696 222.182048,16.7249399 228.04661,15.2832895 C233.906274,13.8432719 245.055798,18.0702625 245.055798,18.0702625 C245.055798,18.0702625 249.571772,19.2245624 249.666467,22.2025581 L249.571772,22.2025581 C249.571772,22.2025581 248.322777,22.3952135 247.264805,22.4915412 C246.592143,23.2605302 246.401121,24.0295193 246.401121,24.0295193 L248.706455,23.8368638 C248.706455,23.8368638 247.937466,26.6238368 244.575792,26.8148596 C241.210853,27.007515 239.000214,27.6801763 236.791207,28.3528376 C234.580568,29.0254989 231.88829,30.3724542 230.255617,30.563477 C228.621311,30.7561324 226.795982,30.9471552 226.026993,31.6198165 C225.259637,32.2941104 219.780386,40.4607412 216.70443,42.7677083 C213.630106,45.0746754 204.787549,51.3229153 200.175248,52.8592607 C197.869913,55.644601 194.410279,59.200563 194.410279,59.200563 C194.410279,59.200563 198.927885,64.6781812 200.175248,66.5051424 C201.425875,68.3321036 204.212848,71.3100993 204.501831,72.3664388 C204.787549,73.4244109 205.269188,75.826073 203.154876,77.7477293 C203.058548,78.9020291 202.289559,79.6710182 202.289559,79.6710182 C202.289559,79.6710182 201.616898,81.9763526 201.234852,82.169008 C200.847909,82.3600307 198.255224,83.0343247 197.775218,81.6873694 C198.638902,81.7853298 199.215236,81.4963467 199.215236,81.4963467 C199.215236,81.4963467 199.020948,80.5347022 199.793202,79.8620409 C199.793202,78.613046 199.887897,77.6530342 199.887897,77.6530342 L199.598914,76.7877175 C199.598914,76.7877175 198.829925,78.707741 197.869913,78.8057014 C198.062569,77.5567065 198.927885,74.4807504 197.869913,73.519106 C196.813574,72.5590942 189.894305,64.3908307 188.934293,63.3328586 C187.972649,62.2765191 187.202027,61.3165073 187.299988,60.738541 C187.394683,60.1622074 187.972649,59.2968907 187.972649,59.2968907 C187.972649,59.2968907 186.914677,58.3368789 187.107332,57.5678899 C187.299988,56.7972682 188.356327,55.644601 188.356327,55.644601 L179.131724,56.4152227 L179.515402,60.2569025 C179.515402,60.2569025 179.708058,64.3908307 179.131724,65.4471702 C179.419075,67.081476 179.515402,73.519106 179.515402,76.1150562 C179.515402,78.707741 179.131724,83.9943365 179.226419,85.4359868 C179.322747,86.8776372 182.398703,96.0075451 183.358715,96.8712292 C184.320359,97.7349132 185.378331,100.043513 186.434671,101.003525 C187.49101,101.963537 188.548982,103.886825 192.104944,104.941532 C195.660906,106.001137 196.428263,106.961149 196.813574,107.537482 C198.253591,107.826466 199.024213,109.460771 199.024213,109.460771 L197.197252,108.884438 C197.197252,108.884438 197.966241,109.749755 197.775218,110.22976 C197.006229,109.84445 196.524591,109.460771 195.468251,109.557099 C194.410279,109.651794 193.450267,109.651794 192.775973,109.268116 C192.104944,108.884438 191.623306,108.884438 190.663294,109.077093 C189.70165,109.268116 187.685298,109.940777 185.76201,106.770126 C183.838721,103.597842 183.455042,106.384815 183.55137,107.153804 C182.495031,106.481143 182.111352,105.137453 182.013392,103.308859 C181.918697,101.483531 180.091736,98.2165518 179.131724,96.3912233 C178.17008,94.5658948 175.863113,90.7225823 174.997796,89.4719547 C174.132479,88.2229598 173.750434,85.8212977 173.750434,83.9943365 C173.750434,82.169008 171.538162,75.7297453 171.154483,74.288095 C170.770805,72.8464447 170.192839,66.8888205 170.192839,65.063492 C170.192839,63.2381635 169.712833,61.9875359 169.712833,61.9875359 L167.791177,59.6805689 C167.791177,59.6805689 164.138887,62.2765191 156.83594,64.3908307 C149.532994,66.5051424 140.499413,68.8104768 139.154091,69.7721212 C137.808768,70.732133 136.847124,72.3664388 134.830772,73.2317555 C132.811156,74.0970722 129.447849,78.3256955 127.52456,80.5347022 C125.602904,82.7453416 121.181625,86.493959 118.20363,86.8776372 C116.569324,88.4139826 115.416657,87.2596827 115.416657,87.2596827 C115.416657,87.2596827 112.149678,87.0686599 112.149678,84.4743424 C113.303978,85.3412918 114.360317,85.2433314 115.70564,84.6686305 C117.04933,84.0906642 121.759592,81.0147081 121.759592,81.0147081 C121.759592,81.0147081 119.356297,81.1110358 119.356297,80.1510241 C120.990603,80.3420468 121.857552,79.6693855 122.721236,79.1893796 C123.58492,78.707741 124.835548,78.3256955 124.835548,78.3256955 C124.835548,78.3256955 130.313166,71.501122 131.465833,70.1557994 C132.620133,68.8104768 133.963823,67.6578096 137.905096,66.2161592 C141.844736,64.7745089 143.76476,62.2765191 145.208043,60.9295638 C146.649693,59.5842411 151.549345,55.0699001 154.146928,54.6845892 C151.261994,52.6666053 147.707665,49.1090106 143.479042,46.419998 C139.250419,43.7277201 135.501801,42.4803579 124.73922,40.2697185 C113.975006,38.0607118 99.0817625,32.3888055 92.931483,29.9855107 C86.7795708,27.5854813 69.0013935,18.5519011 57.6608462,14.3232777 C46.3219316,10.0946544 26.5257704,3.2717136 18.1648515,2.40639687 C9.80393261,1.54108013 0.1940188,2.02271869 0.00299604838,1.73373555 C-0.189659376,1.44638509 8.94188122,-0.187920673 17.877501,0.48474064 Z" id="dinosaur/bodyshape/ornithomimosaur/1"></path>
        </g>
    </g>
</svg>