<?xml version="1.0" encoding="utf-8"?>
<!-- Generator: Adobe Illustrator 17.0.2, SVG Export Plug-In . SVG Version: 6.00 Build 0)  -->
<!DOCTYPE svg PUBLIC "-//W3C//DTD SVG 1.1//EN" "http://www.w3.org/Graphics/SVG/1.1/DTD/svg11.dtd">
<svg version="1.1" id="Layer_1" xmlns="http://www.w3.org/2000/svg" xmlns:xlink="http://www.w3.org/1999/xlink" x="0px" y="0px"
	 width="200px" height="200px" viewBox="0 0 200 200" enable-background="new 0 0 200 200" xml:space="preserve">
<path fill="#010101" d="M18.773,89.276h3.773c3.448,0,4.968,1.09,4.968,3.303c0,1.923-1.52,3.229-4.57,3.229h-4.171V89.276z
	 M14.203,111.039h9.247c4.86,0,9.719-1.736,9.719-7.324c0-3.303-2.316-5.839-5.543-6.205v-0.076c2.64-0.791,4.461-2.714,4.461-5.616
	c0-4.68-3.994-6.456-7.875-6.456H14.203V111.039z M18.773,99.723h4.387c3.699,0,5.446,0.944,5.446,3.63
	c0,3.368-3.272,3.77-5.628,3.77h-4.205V99.723z"/>
<g>
	<rect x="36.167" y="84.755" fill="#010101" width="4.34" height="26.284"/>
</g>
<path fill="#010101" d="M47.771,102.335c0-2.72,1.923-5.221,5.116-5.221c3.192,0,5.11,2.501,5.11,5.221
	c0,2.72-1.918,5.221-5.11,5.221C49.694,107.557,47.771,105.056,47.771,102.335 M43.418,102.335c0,5.477,4.205,9.136,9.469,9.136
	c5.258,0,9.469-3.659,9.469-9.136c0-5.478-4.211-9.142-9.469-9.142C47.623,93.193,43.418,96.859,43.418,102.335"/>
<path fill="#010101" d="M68.672,102.335c0-2.72,1.923-5.221,5.116-5.221s5.11,2.501,5.11,5.221c0,2.72-1.918,5.221-5.11,5.221
	S68.672,105.056,68.672,102.335 M64.319,102.335c0,5.477,4.206,9.136,9.469,9.136c5.258,0,9.469-3.659,9.469-9.136
	c0-5.478-4.211-9.142-9.469-9.142C68.524,93.193,64.319,96.859,64.319,102.335"/>
<path fill="#010101" d="M85.909,93.629h4.137v2.723h0.068c0.763-1.633,2.43-3.161,5.332-3.161c2.686,0,4.541,1.05,5.446,3.229
	c1.269-2.208,3.118-3.229,5.725-3.229c4.643,0,6.277,3.306,6.277,7.477v10.371h-4.353v-9.865c0-2.174-0.649-4.06-3.227-4.06
	c-2.72,0-3.739,2.247-3.739,4.493v9.432h-4.347v-10.371c0-2.146-0.871-3.554-2.976-3.554c-2.863,0-3.989,2.097-3.989,4.421v9.503
	h-4.353C85.909,111.039,85.909,93.629,85.909,93.629z"/>
<path fill="#010101" d="M130.858,102.335c0,2.723-1.918,5.221-5.116,5.221c-3.193,0-5.116-2.498-5.116-5.221
	c0-2.72,1.923-5.227,5.116-5.227C128.94,97.108,130.858,99.615,130.858,102.335 M116.421,111.039h4.137v-2.61h0.068
	c1.274,2.097,3.556,3.042,5.991,3.042c5.361,0,8.593-3.989,8.593-9.136c0-5.15-3.448-9.142-8.416-9.142
	c-3.261,0-5.008,1.52-5.913,2.652h-0.108v-11.09h-4.353L116.421,111.039L116.421,111.039z"/>
<path fill="#010101" d="M141.533,100.594c0.325-2.507,1.923-4.137,4.496-4.137c2.72,0,4.387,1.597,4.427,4.137H141.533z
	 M154.809,103.858v-1.195c0-6.06-3.3-9.469-8.16-9.469c-5.269,0-9.469,3.665-9.469,9.142c0,5.477,4.2,9.136,9.469,9.136
	c2.749,0,5.332-0.979,7.358-3.477l-3.118-2.353c-1.087,1.335-2.504,2.353-4.678,2.353c-2.429,0-4.393-1.562-4.677-4.137H154.809z"/>
<path fill="#010101" d="M157.642,93.629h4.353v2.757h0.074c0.944-1.995,2.862-3.195,5.149-3.195c0.546,0,1.053,0.111,1.559,0.259
	v4.206c-0.723-0.179-1.417-0.325-2.106-0.325c-4.097,0-4.677,3.448-4.677,4.393v9.316h-4.353L157.642,93.629L157.642,93.629z"/>
<path fill="#010101" d="M178.516,97.114c3.152,0,5.149,2.097,5.149,5.115c0,2.897-1.958,5.11-5.184,5.11
	c-2.936,0-5.116-2.285-5.116-5.042C173.365,99.211,175.465,97.114,178.516,97.114 M183.665,93.629v2.612h-0.068
	c-1.274-2.106-3.562-3.05-5.991-3.05c-5.366,0-8.593,3.992-8.593,9.144c0,4.928,3.448,8.92,8.667,8.92
	c2.179,0,4.427-0.831,5.702-2.535h0.062v1.272c0,3.442-1.297,5.839-5.508,5.839c-2.43,0-4.246-0.911-5.987-2.515l-2.606,3.562
	c2.458,2.185,5.4,2.868,8.632,2.868c6.784,0,9.827-3.994,9.827-10.266v-15.85H183.665z"/>
</svg>
