<?xml version="1.0" encoding="UTF-8"?>
<svg width="45px" height="121px" viewBox="0 0 45 121" version="1.1" xmlns="http://www.w3.org/2000/svg" xmlns:xlink="http://www.w3.org/1999/xlink">
    <!-- Generator: Sketch 47.1 (45422) - http://www.bohemiancoding.com/sketch -->
    <title>scale/human/look-up</title>
    <desc>Created with Sketch.</desc>
    <defs></defs>
    <g id="Symbols" stroke="none" stroke-width="1" fill="none" fill-rule="evenodd">
        <g id="scale/human/look-up" fill="#AAAAAA">
            <path d="M32.1537407,112.575946 C31.5607431,113.225988 27.80404,113.200621 27.062793,112.290562 C26.9113894,112.103477 26.8262248,111.795897 26.8356875,111.551735 C26.9082351,109.557217 27.0186336,107.56587 27.1037982,105.574523 C27.1195694,105.197182 27.2488933,104.686662 27.0596388,104.455183 C24.4794683,101.344497 24.5488616,97.4125382 23.9022419,93.7564508 C23.2871645,90.2906195 23.2619306,86.7233183 22.8234909,83.2194358 C22.6373905,81.7290966 22.0853981,80.2831505 21.6658838,78.8276916 C21.2337526,77.3278397 20.7606162,75.8406714 20.2748628,74.2488624 C19.6250888,76.151423 18.8649163,78.0793511 18.3129238,80.0643561 C17.3824223,83.40335 17.0133759,86.9769931 15.6034294,90.0813378 C14.4332054,92.6593075 15.3637069,95.392653 14.1493235,97.8152468 C14.0010741,98.1101437 14.1934829,98.5667583 14.168249,98.9409285 C14.0452335,100.875199 13.9127553,102.806298 13.7550432,104.734226 C13.7235008,105.105225 13.3733798,105.523788 13.4711613,105.818685 C14.4552851,108.716919 13.0453386,112.074939 15.2848509,114.754378 C16.2879001,115.949821 16.9881419,117.398938 17.8460959,118.721217 C18.5999599,119.881779 18.2214508,120.468402 16.9660622,120.829889 C14.1587862,121.632135 9.72392105,119.482242 8.53477157,116.786947 C7.79983303,115.119036 6.63907172,113.619184 7.04596903,111.60247 C7.11220812,111.269521 6.74631597,110.793881 6.49082232,110.454591 C5.90413318,109.684054 6.0681538,109.027671 6.49082232,108.215912 C6.8220178,107.569041 7.0365063,106.700205 6.90718235,106.002599 C5.60763437,99.0233728 6.17855229,92.1234196 7.5758818,85.2361501 C7.77144484,84.2816988 7.74936514,83.2828545 7.97016213,82.337916 C8.18149639,81.4120032 8.59470218,80.5336544 8.89120099,79.6235962 C9.03314191,79.1828363 9.19716253,78.7167089 9.20031677,78.2569235 C9.21608798,75.815304 9.25078465,73.3673426 9.1435404,70.9288941 C9.05522161,68.9534019 8.51900035,66.968397 8.64201582,65.0182723 C8.84704159,61.8378251 9.09307252,58.5844464 9.95102653,55.5435203 C10.6670396,53.0036019 10.944613,50.5271021 10.7301245,47.9903546 C10.4620138,44.8447877 9.92894683,41.7182464 9.50943255,38.5853632 C9.22239647,38.5853632 8.93536039,38.5853632 8.6483243,38.5821922 C7.85030091,43.4242091 6.85986871,48.2440294 6.31418473,53.1177555 C5.87889924,56.9482443 5.86943651,60.8421517 5.91675015,64.7075208 C5.93567561,66.337381 6.64853445,67.9513866 6.92610781,69.5939307 C7.06804873,70.4437411 6.95134175,71.3411155 6.95134175,72.2131225 C6.73685325,72.2480028 6.52236474,72.282883 6.30787624,72.3209343 C6.00506895,71.3601411 5.70226165,70.4025189 5.35214071,69.3022047 C4.78753128,71.4267308 5.3805289,73.1422063 6.70846506,74.6959641 C4.50680368,75.1811171 2.9044484,74.5405883 1.97079257,72.5841218 C1.33363555,71.2396456 0.869961881,69.723939 0.731175203,68.2462835 C0.522995187,66.0646807 0.743792174,63.8450266 0.646010651,61.6475691 C0.576617313,60.1001531 0.20757092,58.5654208 0.100326669,57.0148339 C-0.0037633387,55.5149819 -0.0479227361,53.9961044 0.0719384854,52.5025943 C0.317969414,49.3633692 0.601851254,46.2209732 1.02451977,43.1007738 C1.82569741,37.240887 2.68365142,31.3873421 3.65515816,25.5559937 C3.83494999,24.4620213 4.48472398,23.3236559 5.22597101,22.4770164 C7.04912327,20.3905416 8.97005706,18.3991948 11.7363279,17.4764529 C12.8340043,17.1117954 12.8466213,15.4660805 11.7741788,14.4799199 C10.0014944,12.8532305 8.68932946,11.0109176 8.28243215,8.56295627 C7.71466847,5.17005646 9.97941471,1.11443136 12.9570198,0.144125433 C14.1146269,-0.230044827 14.792789,0.172663842 15.780067,0.797337919 C17.2278644,1.7169089 19.0415539,2.05302794 20.1297676,2.43988194 C21.0508065,4.15218651 21.5964905,5.54739765 22.4733699,6.68893403 C23.3123985,7.78924827 23.0821388,8.56929813 22.4922954,9.62839022 C21.7478941,10.9760373 21.148588,12.4251544 20.6502177,13.8837842 C20.4925055,14.3435697 20.8016213,15.0094659 21.0098013,15.535841 C21.2053644,16.0368486 21.6406499,16.4490701 21.8015162,16.9532487 C22.3755884,18.7321429 23.5868176,19.7405 25.242795,20.5681139 C28.6683025,22.2867604 30.7122518,26.751436 30.3148172,30.7912064 C30.1918017,32.0151871 30.2012645,33.3279539 30.507226,34.5043706 C31.4251106,38.014595 32.4786277,41.49311 33.5479159,44.9589413 C34.9767879,49.5789927 36.4655904,54.1831895 37.9449302,58.7905572 C38.4716887,60.4267593 39.2854834,62.0122265 39.5252058,63.6833089 C39.6829179,64.7614266 39.1214627,65.9885783 38.7082569,67.0793797 C38.5536991,67.4820884 37.8313775,67.983096 37.487565,67.9101645 C37.0995932,67.8213783 36.8598707,67.1206018 36.5318295,66.7052094 C35.0777236,64.8660675 36.7747062,62.2246791 34.9578624,60.4711524 C34.8190757,60.3379732 34.7843791,59.9162389 34.71814,59.9194098 C32.9517641,60.0113669 33.1126304,58.2895495 32.3776919,57.4238844 C32.1789746,57.1924062 32.0654219,56.8911675 31.6648331,56.1935619 C31.8036197,58.3180879 31.9676404,59.957461 32.0054913,61.600005 C32.1285067,66.8257049 32.0212625,72.0672595 32.3776919,77.2771047 C32.560638,79.9533734 31.5197379,82.3601126 31.4408818,84.8651507 C31.2926324,89.684971 32.3650749,94.3969795 33.8696487,98.9916635 C34.3080884,100.329798 34.6834433,101.699641 34.9357827,103.082169 C35.0619524,103.760749 34.8380012,104.505918 34.7244485,105.704532 C35.472004,106.671667 36.3804259,108.44739 37.8061435,109.547704 C39.2917918,110.692411 41.256885,111.225128 43.0421864,111.944931 C43.9096031,112.296904 45.5024957,111.805409 45.3668632,113.279894 C45.2375393,114.681447 43.7487367,114.139217 42.8119267,114.21849 C41.3041987,114.345328 39.7428485,114.608515 38.2824342,114.354841 C36.2416392,113.996525 34.2797002,113.213304 32.1537407,112.575946" id="Fill-1" transform="translate(22.687500, 60.500000) scale(-1, 1) translate(-22.687500, -60.500000) "></path>
        </g>
    </g>
</svg>