<?xml version="1.0" encoding="utf-8"?>
<!-- Generator: Adobe Illustrator 16.0.0, SVG Export Plug-In . SVG Version: 6.00 Build 0)  -->
<!DOCTYPE svg PUBLIC "-//W3C//DTD SVG 1.1//EN" "http://www.w3.org/Graphics/SVG/1.1/DTD/svg11.dtd">
<svg version="1.1" id="Layer_1" xmlns="http://www.w3.org/2000/svg" xmlns:xlink="http://www.w3.org/1999/xlink" x="0px" y="0px"
	 width="80px" height="200px" viewBox="0 0 80 200" enable-background="new 0 0 80 200" xml:space="preserve">
<title>scale/lookahead-793x2000mm</title>
<desc>Created with Sketch.</desc>
<rect id="Rectangle-2-Copy" display="none" fill="none" stroke="#AAAAAA" stroke-miterlimit="10" width="80" height="200"/>
<path fill="#AAAAAA" d="M27.292,26.574c-0.718-0.068-1.875,0.041-3.034-0.042c-0.852-0.062-1.73-0.5-2.037-0.806
	c-0.721-0.722-0.254-2.249-0.297-2.567c-0.042-0.318-0.573-0.466-0.848-0.827c-0.276-0.36,0.148-1.103,0.148-1.103
	s-0.23-0.057-0.517-0.328c-0.402-0.382,0.141-1.016-0.015-1.582c-0.232-0.848-1.696-0.339-2.221-1.2
	c-0.512-0.839,0.372-1.792,1.501-3.829c1.188-2.142,0.699-1.845,0.487-3.797c-0.212-1.952,2.291-5.855,2.291-5.855
	s-0.17-0.424,0.084-0.934c0.255-0.509,2.291-3.097,7.807-3.649c2.487-0.249,8.339,0.269,10.904,3.098
	c3.122,3.444,2.719,9.441,2.418,10.607c-0.497,1.933-1.289,3.776-1.911,5.453c-0.187,0.504-0.066,1.223-0.21,1.694
	c-0.117,0.386-0.472,0.718-0.488,0.872c-0.069,0.689,0.063,2.867,0.658,4.222c0.496,1.131,2.143,2.365,3.225,2.715
	c2.642,0.855,5.67,0.247,8.782,1.209c4.114,1.272,5.99,5.222,10.224,9.631c3.641,3.79,7.148,7.208,8.91,9.419
	c4.2,5.267,6.135,9.673,6.536,10.607c0.763,1.782-0.001,2.46-1.021,3.394c-1.019,0.933-1.525,1.697-7.211,9.334
	c-3.907,5.249-9.891,10.911-12.729,12.729c-1.292,0.827-1.97,1.145-1.97,1.145s3.751,9.887,1.546,23.128
	c-0.684,4.105-0.905,7.55-0.857,10.6c0.072,4.646,0.72,8.366,1.026,12.055c0.51,6.11,3.564,11.798,4.667,17.314
	c1.103,5.516,0.213,14.21-0.109,17.817c-0.332,3.72-1.374,12.049-1.502,14.935c-0.078,1.78,0.975,3.771,1.314,5.428
	c0.338,1.654,0.021,3.438-0.742,4.372c-0.764,0.934-2.589,4.412-3.691,5.854c-1.104,1.442-3.5,2.762-8.251,2.168
	c-4.752-0.594-4.244-2.461-4.244-3.055s4.92-6.792,6.023-8.488s1.334-2.369,1.357-3.055c0.022-0.685,0.086-8.399-0.508-13.577
	c-0.595-5.177-2.037-12.645-2.716-19.434c-0.678-6.789-2.667-8.21-3.754-11.201c-0.767-2.107-5.582-17.396-5.582-17.396
	s0.255,0.934,0.255,2.801c0,1.866,0.509,9.589,0.424,12.134c-0.085,2.546,0.5,5.32,1.055,9.395c0.473,3.46,0.139,8.074-0.199,12.067
	c-0.31,3.641-2.005,8.918-1.829,16.766c0.042,1.911,1.4,2.844,1.111,5.984c-0.217,2.366-5.653,4.074-7.774,4.329
	s-6.892,1.77-10.625,2.447c-3.734,0.678-7.101-0.878-7.525-2.744c-0.424-1.867,1.773-2.673,3.725-3.437
	c1.03-0.404,4.641-2.005,7.597-3.396c2.643-1.245,4.752-1.443,4.748-3.307c-0.003-1.42-0.251-8.576-0.634-16.634
	c-0.342-7.176-1.193-14.432-1.272-15.87c-0.169-3.056-1.188-5.347-1.952-10.184s-5.6-22.402-6.703-30.039
	c-0.473-3.272-0.581-7.029-0.084-10.84c0.662-5.083,2.083-9.863,2.083-9.863c0,0-0.382-1.655-0.339-2.631
	c0.042-0.976-6.113-10.699-7.089-13.669s-0.599-4.985,0.25-8.125c0.537-1.985,3.334-12.132,5.859-18.853
	c1.468-3.908,3.333-5.605,3.925-5.917c1.612-0.849,5.579-1.892,5.579-1.892S30.854,26.913,27.292,26.574z M54.064,61.025
	c-0.203,0.886-1.303,4.983-1.921,8.134c-1.051,5.357-0.303,7.75,0.477,8.582c1.203,1.284,3.127,1.874,3.628,1.952
	c0.827,0.127,6.046-7.828,7.446-10.247c1.4-2.418,3.818-7.509,4.392-8.337s-1.019-2.164-2.1-3.055
	c-1.083-0.891-3.819-3.648-4.583-4.539s-5.07-4.563-5.134-4.244C55.854,51.359,54.34,59.811,54.064,61.025z M25.25,70.208
	c0,0,0.185-2.948,0.253-4.539c0.117-2.731,0.137-3.523-0.425-4.044c-0.189-0.175-0.97-0.87-0.97-0.87s-1.449,2.504-1.067,3.204
	C23.423,64.659,25.25,70.208,25.25,70.208z"/>
</svg>
