<?xml version="1.0" encoding="UTF-8"?>
<svg width="80px" height="200px" viewBox="0 0 80 200" version="1.1" xmlns="http://www.w3.org/2000/svg" xmlns:xlink="http://www.w3.org/1999/xlink">
    <!-- Generator: Sketch 47.1 (45422) - http://www.bohemiancoding.com/sketch -->
    <title>scale/lookahead-793x2000mm</title>
    <desc>Created with Sketch.</desc>
    <defs></defs>
    <g id="Symbols" stroke="none" stroke-width="1" fill="none" fill-rule="evenodd">
        <g id="scale/lookahead-793x2000mm" fill="#AAAAAA">
            <path d="M11.6825924,99.2504447 C11.6826252,97.9782875 11.6067749,97.3769167 11.6826749,96.0437772 C11.7332749,95.1550175 11.8837702,94.3318108 12.1341607,93.5741572 C11.2865775,92.3128715 10.6412905,91.4017767 10.1982998,90.8408729 C9.75530917,90.2799692 8.86938703,89.3979656 7.54053343,88.1948622 C7.29405148,88.2482019 7.05476946,88.045463 6.82268738,87.5866453 C6.47456426,86.8984188 3.50405841,82.0826115 2.3266382,79.2742097 C1.149218,76.465808 -0.061615985,70.251916 0.00243458969,65.9607368 C0.0664851644,61.6695577 0.494396904,59.8191541 0.494442268,58.055036 C0.494487632,56.2909179 0.494527,54.7599372 1.21153045,53.8379577 C1.92853391,52.9159783 1.1498202,53.04726 2.3273569,51.3251833 C3.50489361,49.6031066 4.39040358,47.0409264 5.66612373,44.9505009 C6.94184388,42.8600755 7.79707542,39.757785 8.83378118,37.5589343 C9.87048693,35.3600836 12.1357481,31.8457108 14.3255554,30.8840856 C16.5153628,29.9224605 20.5845713,29.6224538 21.9197676,29.5168312 C23.2549639,29.4112086 25.2413884,29.4812556 25.2414134,28.507726 C25.2414301,27.8587062 25.2414455,27.2611897 25.2414595,26.7151765 C24.7270216,26.6345361 24.0724984,26.5433111 23.27789,26.4415014 C22.0859775,26.288787 20.9329096,25.7573459 20.4751382,25.3942203 C20.0173669,25.0310947 20.2768877,23.7359897 20.4751954,23.1693178 C20.6735032,22.6026459 20.5726805,21.954364 20.4752426,21.3366831 C20.3778046,20.7190022 20.199582,21.0206607 20.2174538,20.1086374 C20.0024962,19.8328259 19.948763,19.5237749 20.0562541,19.1814845 C20.1637453,18.839194 20.1637594,18.2910893 20.0562964,17.5371703 C19.5056253,17.0516942 19.1447118,16.7113112 18.9735557,16.5160215 C18.7168217,16.2230868 18.8237369,15.3941623 19.5284736,14.5706146 C20.2332102,13.7470668 20.5979525,12.6587239 20.6735693,12.4035258 C20.7491862,12.1483277 20.7853725,11.1960716 20.7853829,10.7888166 C20.7853934,10.3815616 20.08269,9.39314807 20.2772749,8.68059388 C20.4718598,7.96803968 21.5110372,5.99683602 23.1129222,4.24993167 C24.7148071,2.50302732 26.2888212,1.51612387 28.7817289,0.607432116 C31.2746367,-0.301259642 34.9633629,-0.404099591 38.7333832,1.80619619 C42.5034036,4.01649196 43.449752,7.57391948 43.7348801,10.0003833 C44.0200083,12.4268472 42.7995095,17.2504091 41.7371966,18.8900447 C40.6748836,20.5296802 40.1779927,23.6145957 40.4401228,25.0969423 C40.7022529,26.5792888 41.5030822,26.9304448 42.7992489,27.3878626 C43.4852273,27.6299447 45.1996697,27.3530161 47.1059853,27.797948 C48.8016818,28.1937217 51.0637787,28.8978466 52.7034142,28.9785888 C55.5109057,29.1168408 56.4905343,29.8371191 58.2558265,30.8829563 C60.0211187,31.9287935 61.8526779,34.0220803 63.1294871,35.3447929 C64.4062963,36.6675055 65.9007745,39.6037423 66.4264065,40.0580426 C66.9520384,40.5123429 69.7515782,44.430115 71.5985301,46.6714406 C73.4454821,48.9127663 76.9834057,55.4360102 77.5533517,56.3803095 C78.1232976,57.3246088 79.2855121,60.6506582 79.299816,61.1955599 C79.3141199,61.7404616 78.0658315,64.8883376 76.9830937,67.5697387 C75.9003558,70.2511397 71.7954837,75.8837956 70.3638328,78.086382 C68.9321819,80.2889683 64.2537295,85.2013447 63.387284,85.8333279 C62.5208384,86.4653111 58.3809647,90.1945446 58.2558265,90.3339596 C58.1724011,90.426903 58.0355764,90.4605638 57.8453523,90.4349421 C57.1306822,91.0994704 56.4538381,91.5902722 55.8148199,91.9073476 C55.1758018,92.2244229 53.8958758,92.6126258 51.975042,93.0719564 C52.3914101,95.2641429 52.6335953,97.4469477 52.7015976,99.6203707 C52.8036011,102.880505 52.9688153,104.853594 52.6308227,107.87817 C52.2928301,110.902747 50.2483595,120.935643 50.0387093,127.253669 C49.8290591,133.571696 49.7112536,137.235185 50.6361447,142.044858 C51.5610358,146.854532 51.8294408,147.996897 52.7002569,151.759376 C53.571073,155.521854 54.2269646,163.612889 54.4416046,168.864653 C54.6562446,174.116417 55.4114627,179.950181 55.13484,181.328923 C54.9504249,182.248083 54.3481707,182.886639 53.3280774,183.24459 C54.9537494,186.759395 55.9025454,190.081829 56.1744652,193.211893 C56.582345,197.906989 53.7348606,199.520599 49.1656773,199.962068 C44.5964939,200.403538 44.9416733,196.888953 44.7545502,194.750126 C44.6298015,193.324242 44.6954151,191.561868 44.9513911,189.463004 L43.7304303,183.044383 C42.930286,182.493222 42.1865146,181.867545 41.499116,181.167354 C40.4680182,180.117067 41.2073283,177.832205 40.4363596,171.440642 C39.6653908,165.049079 39.079066,159.60536 38.7294165,156.063637 C38.379767,152.521913 36.8673294,150.770844 35.5100064,142.371814 C34.5422364,138.781159 32.0807948,122.845362 31.5363112,120.399566 C30.9918276,117.953771 30.2478582,121.285672 29.1030023,124.062502 C27.9581464,126.839332 26.250928,133.861195 25.8635192,137.454245 C25.4761104,141.047296 25.9973434,145.633315 25.9479988,149.232088 C25.8986543,152.830861 26.2103659,166.910731 26.0347837,168.949238 C25.8592016,170.987745 25.6548373,178.360124 25.2375377,179.229381 C24.820238,180.098638 23.8488335,179.637124 23.9189081,180.194181 C23.9889827,180.751239 23.702073,184.005767 20.7809018,185.052207 C17.8597306,186.098646 16.4047986,185.026875 12.4625036,188.859697 C8.52020848,192.692519 5.79989883,192.645934 3.6016433,192.391979 C2.32373321,192.244348 0.806826342,191.032545 0.49105173,189.907063 C-0.126295988,187.706717 1.05011087,186.060723 2.32392991,184.594739 C3.59774896,183.128754 6.80519886,181.877562 7.79343967,181.145602 C8.78168049,180.413642 10.1116617,178.132619 11.0034246,177.003476 C11.8951875,175.874332 11.8737257,174.580075 11.3211566,174.449675 C10.7685874,174.319274 11.1637904,172.650971 11.6048687,171.507025 C12.045947,170.363078 11.9774229,169.262593 12.1322807,166.686459 C12.2871384,164.110324 12.6719885,161.854227 12.6255667,157.606458 C12.5791448,153.35869 11.7194271,146.895307 11.1873994,141.168132 C10.6553718,135.440956 11.7030165,128.683061 11.6819316,124.950455 C11.6608466,121.217848 10.9520426,111.25118 11.2328722,107.450362 C11.5137018,103.649544 11.6825597,100.522602 11.6825924,99.2504447 Z M14.08208,54.4190852 C12.7761877,55.8098753 11.6401432,57.1043541 10.6739465,58.3025216 C9.22465144,60.0997729 8.92637375,59.7973354 9.53103576,62.9331006 C10.1356978,66.0688657 10.158181,75.1746318 10.0823744,75.5962976 C10.0065678,76.0179634 9.41967375,76.2830515 9.53103576,76.6293348 C9.64239776,76.9756181 10.2684425,77.301128 10.9165412,78.0586456 C11.56464,78.8161632 11.047417,79.8493492 11.3245044,80.0198181 C11.4392272,80.0903976 11.937652,80.4328087 12.8474032,80.5527583 C13.2174805,80.6015525 13.9252049,80.6015525 14.9705766,80.5527583 C14.3782455,75.7289771 14.08208,72.4943431 14.08208,70.8488562 C14.08208,68.3806258 13.8812366,64.3641633 14.08208,60.4422104 C14.2159756,57.8275751 14.2159756,55.8198667 14.08208,54.4190852 Z M55.8811369,51.2394837 C55.5190696,50.8495826 53.9768514,54.6183005 53.3477448,56.8982959 C52.7186382,59.1782913 51.7590423,70.6614056 51.7590423,71.8702267 C51.7590423,73.0790478 51.9165396,78.8491342 51.2310439,80.1122689 C50.7740468,80.9543588 50.5884693,81.4466454 50.6743115,81.5891287 C51.0950235,81.916579 51.4566004,82.1536374 51.7590423,82.3003038 C52.2127051,82.5203033 53.3885783,82.7701066 54.0176849,82.8266751 C54.6467915,82.8832436 56.0943368,81.4460898 57.0423607,80.785797 C57.9903846,80.1255042 60.6183143,75.2381611 61.4304159,73.9569872 C62.2425174,72.6758133 64.744677,64.4139799 65.2231254,63.9125104 C65.7015739,63.4110408 64.9085231,63.0787865 65.4235509,62.5776111 C65.9385787,62.0764356 66.1751445,61.9970112 65.7015739,61.7746587 C65.2280032,61.5523062 65.4456162,60.8214253 65.4235509,60.1014267 C65.4014856,59.3814282 63.5426569,58.3031227 62.2904983,57.2927197 C61.0383398,56.2823168 56.2432041,51.6293849 55.8811369,51.2394837 Z" id="scale/lookahead-793x2000mm-copy"></path>
        </g>
    </g>
</svg>