<?xml version="1.0" encoding="UTF-8"?>
<svg width="80px" height="200px" viewBox="0 0 80 200" version="1.1" xmlns="http://www.w3.org/2000/svg" xmlns:xlink="http://www.w3.org/1999/xlink">
    <!-- Generator: Sketch 47.1 (45422) - http://www.bohemiancoding.com/sketch -->
    <title>scale/lookdown-625x2000mm</title>
    <desc>Created with Sketch.</desc>
    <defs></defs>
    <g id="Symbols" stroke="none" stroke-width="1" fill="none" fill-rule="evenodd">
        <g id="scale/lookdown-625x2000mm">
            <rect id="Rectangle-2" x="0" y="0" width="80" height="200"></rect>
            <path d="M45.0795302,23.3514527 C46.0714284,24.1711493 49.4882916,25.4268459 51.1342069,25.8002911 C52.7801221,26.1737364 57.3695327,26.6352603 59.7520536,27.3942851 C62.1345745,28.15331 65.7477683,30.4276647 66.9027526,32.3984513 C68.0577368,34.369238 71.5084718,38.7045502 72.9264846,43.5202155 C74.3444975,48.3358808 76.5348695,63.4812297 76.893659,65.9942965 C77.2524484,68.5073633 76.5591233,72.9719691 75.7194389,75.9386097 C74.8797545,78.9052503 72.7567078,84.1330653 71.7058478,85.8239249 C70.6549878,87.5147845 69.3381719,88.6989302 69.8575385,91.214926 C70.376905,93.7309218 71.1680818,100.504193 71.4369648,102.84968 C71.7058478,105.195168 70.8991988,124.666205 71.1680818,128.837076 C71.4369648,133.007946 74.5452189,142.258928 75.7194389,145.813248 C76.893659,149.367568 79.1820917,161.215929 79.3878311,163.513088 C79.5935705,165.810247 80.056066,176.434293 79.994386,177.748778 C79.932706,179.063264 79.7761015,180.378168 79.3878311,180.555999 C79.1289842,180.674553 78.7644101,180.73383 78.2941087,180.73383 C78.2853272,183.882625 78.4059691,186.214932 78.6560345,187.73075 C79.0311325,190.004477 79.7681563,192.562106 79.0311325,194.752357 C78.2941087,196.942608 77.7222619,199.800458 75.7194389,199.972222 C73.716616,200.143986 68.9720645,199.583714 68.7928788,196.460582 C68.6136932,193.33745 68.8054239,191.495329 69.5250937,189.613039 C70.2447634,187.73075 70.8318735,183.171371 70.6238341,182.51486 C70.4157948,181.85835 70.140012,181.363561 69.3005367,181.321927 C68.4610613,181.280294 67.8992506,178.556131 67.8020261,176.379479 C67.7048017,174.202827 66.6518508,162.500915 65.6206448,159.166059 C64.5894387,155.831204 63.0915555,150.51008 61.4218045,147.322929 C59.7520536,144.135778 57.2225461,135.643403 56.0742526,131.527346 C55.3087236,128.783308 54.3382915,125.818759 53.1629563,122.6337 C52.9915068,123.572927 52.7433929,126.344303 52.4186146,130.947826 C51.9314471,137.853111 53.3929496,139.928922 52.9057821,148.062706 C52.4186146,156.19649 51.9799547,166.618227 51.8808485,170.356445 C51.7817424,174.094664 52.4292779,177.223654 51.7817424,177.748778 C51.350052,178.098861 50.9934231,178.352567 50.7118556,178.509895 C50.7118556,179.363345 50.7118556,180.045379 50.7118556,180.555999 C50.7118556,181.321927 48.3190896,183.006929 46.3129213,183.067392 C44.3067529,183.127854 42.6930367,182.52281 40.621843,183.507785 C38.5506494,184.49276 36.253435,186.820464 31.6717606,187.73075 C27.0900861,188.641036 24.42091,186.734059 25.3174655,184.075798 C26.214021,181.417538 27.0502837,179.893629 29.9244392,178.509895 C31.9015286,177.558045 34.5204925,176.576693 35.4584948,176.379479 C37.7600999,175.895569 37.8518881,175.365633 38.527441,174.761216 C39.2029938,174.1568 38.2938933,173.611591 38.527441,172.806539 C38.7609886,172.001487 39.5178755,170.045764 39.5053304,169.057651 C39.4927853,168.069538 40.8075103,156.69358 40.2891892,154.331983 C39.770868,151.970387 38.8845577,142.361233 38.0770724,138.420078 C37.269587,134.478923 34.5155225,120.786349 33.964375,116.609202 C33.4132276,112.432055 32.3523315,108.270808 32.0299228,102.84968 C31.7075141,97.4285527 32.4782005,97.2239423 31.6717606,95.7498274 C30.8653207,94.2757125 31.0449245,91.6061543 31.6717606,89.3087862 C32.2985967,87.011418 30.6591631,86.3716446 30.4279153,84.1016833 C30.1966676,81.8317221 30.8904108,73.6540035 30.6591631,71.1547448 C30.4279153,68.6554861 30.7883775,65.4218896 29.3582377,59.196547 C27.9280979,52.9712044 26.7835679,53.3239376 26.7835679,47.426641 C26.7835679,41.5293444 28.0573123,38.9179475 29.3582377,37.0977942 C30.2255213,35.8843587 31.5481915,34.4692418 33.3262483,32.8524436 C32.4204931,31.3430414 31.7109988,30.6957363 31.1977654,30.9105283 C30.4279153,31.2327164 27.1089038,33.0611336 26.2669194,33.2339435 C25.4249351,33.4067535 24.3152177,33.3465001 23.816446,31.660557 C23.3176743,29.9746139 22.1276683,29.8563039 22.099651,29.330447 C22.0716336,28.8045901 22.5414994,28.4760733 21.6567572,28.576391 C21.2771638,28.6385273 20.9411123,28.3024788 20.665434,27.2881095 C20.3881876,26.7411221 20.4035554,26.4229091 19.6683088,26.5154335 C18.9330622,26.607958 17.457551,26.6631379 17.5009361,25.3737058 C17.5443212,24.0842736 18.6168738,21.0629238 18.7145686,20.4561014 C18.8122635,19.8492791 18.4305792,19.5061174 17.998401,18.873248 C17.5662228,18.2403787 17.4622554,16.1472547 17.5662228,15.254595 C17.6701902,14.3619354 17.5859291,11.5050793 18.4561399,8.67861141 C19.3263507,5.85214352 22.5439561,2.20943102 26.2669194,0.734374628 C29.9898827,-0.740681767 34.985336,0.165838247 37.378102,2.03923623 C39.770868,3.91263422 42.308948,6.85029883 42.4783067,9.9317974 C42.6476653,13.013296 42.5190782,16.2968943 42.9770784,18.2032433 C43.4350786,20.1095924 44.0876321,22.5317561 45.0795302,23.3514527 Z" id="scale/lookdown-625x2000mm-copy" fill="#AAAAAA"></path>
        </g>
    </g>
</svg>