<?xml version="1.0" encoding="utf-8"?>
<!-- Generator: Adobe Illustrator 16.0.0, SVG Export Plug-In . SVG Version: 6.00 Build 0)  -->
<!DOCTYPE svg PUBLIC "-//W3C//DTD SVG 1.1//EN" "http://www.w3.org/Graphics/SVG/1.1/DTD/svg11.dtd">
<svg version="1.1" id="Layer_1" xmlns="http://www.w3.org/2000/svg" xmlns:xlink="http://www.w3.org/1999/xlink" x="0px" y="0px"
	 width="80px" height="200px" viewBox="0 0 80 200" enable-background="new 0 0 80 200" xml:space="preserve">
<title>scale/lookdown-625x2000mm</title>
<desc>Created with Sketch.</desc>
<rect id="Rectangle-2" fill="none" width="80" height="200"/>
<path fill="#AAAAAA" d="M31.391,39.326c0,0-2.325-3.059-4.159-3.671c-1.836-0.611-3.373,1.039-4.129,1.621
	c-1.591,1.224-3.182,0.796-3.506-0.208c-0.287-0.893-0.658-1.128-1.053-1.076c-0.286,0.038-0.611,0.123-0.887-0.123
	c-0.307-0.273-0.306-0.826-0.306-0.826s-0.786,0.285-1.009-0.245c-0.225-0.53-0.618-1.539-1.06-1.204
	c-1.103,0.836-2.366,0.734-2.447-0.489c-0.103-1.546,0.216-3.517-0.327-4.323c-0.541-0.805-1.214-0.071-2.192-2.518
	c-0.804-2.01-1.07-4.129-1.07-4.129s-0.795-0.52-0.551-2.355c0.245-1.835,2.6-11.262,12.725-10.986
	c6.243,0.17,8.644,5.363,9.938,9.357c0.524,1.62,1.287,4.352,1.654,4.841c0.74,0.987,0.521,1.499,0.521,1.499
	s2.172,4.251,4.802,4.833c2.631,0.581,3.608,0.581,4.374,0.398c0.765-0.184,4.558-2.539,9.237,0.764s6.647,5.578,9.421,8.922
	c2.772,3.344,4.888,5.758,8.313,9.102c3.426,3.345,5.257,6.18,6.316,8.749c1.061,2.569-0.479,3.887-1.497,6.049
	c-1.02,2.161-2.039,5.22-3.711,8.156c-1.374,2.413-2.732,4.384-3.172,5.011c-0.095,0.136,2.927,5.063,3.661,11.343
	c0.734,6.281,0.183,13.477-0.857,19.411c-1.041,5.934-1.53,20.982,0.673,27.589c2.202,6.607,3.353,6.63,5.352,13.67
	c2.111,7.436,1.341,14.898,1.401,21.077c0.062,6.178-1.248,9.787,0.955,14.865c2.202,5.077,0.847,6.791,0.062,7.402
	c-1.907,1.479-2.243,4.011-3.487,5.321c-2.325,2.447-7.402,3.12-8.993,2.753c-1.59-0.366-5.934-0.856-2.386-5.995
	c0,0,5.077-5.566,5.628-7.77c0.265-1.056-0.725-9.763-2.324-18.229c-1.735-9.184-4.145-18.24-5.322-21.104
	c-2.264-5.506-6.117-9.972-7.769-18.841c-1.652-8.871-2.595-12.136-2.595-12.136s-2.911,6.078-4.135,9.444
	c-1.224,3.363-3.854,9.114-3.486,11.255c0.366,2.142,2.263,8.014,2.753,13.642c0.489,5.628-0.551,19.76,0.061,23.736
	c0.612,3.976,3.609,8.38-1.958,9.726c-5.566,1.347-5.994,0.184-10.583,0.979c-4.587,0.795-8.563,2.079-10.827,0.367
	c-2.264-1.714-3.486-3.487,0.428-4.711c3.916-1.224,10.521-2.753,11.562-3.487c1.039-0.733,2.691-0.856,2.691-4.282
	s-4.221-23-5.017-28.017c-0.795-5.017-3.487-10.461-2.63-13.887c0.855-3.426,2.936-14.927,2.936-14.927s-2.74-3.546-2.924-6.91
	c-0.184-3.365,0.795-7.22,0.428-8.626s-0.123-3.487,0.061-6.362s0.111-10.034,0.111-14.438c0-4.405,0.061-5.812-0.307-8.687
	c-0.366-2.875-1.65-11.317-2.263-14.865s-1.774-9.283,0-12.541C30.291,39.983,31.391,39.326,31.391,39.326z M35.831,97.863
	c-0.549,2.186,0.453,4.838,0.453,4.838s1.591-7.524,2.387-10.95c0.795-3.426-0.245-8.136-0.245-8.136S36.38,95.677,35.831,97.863z
	 M60.795,62c0.489,2.263,2.65,6.076,2.65,6.076s2.202-5.934,2.814-7.157c0.611-1.224-0.343-1.363-1.998-2.713
	c-0.999-0.815-4.371-4.159-4.371-4.159S60.307,59.737,60.795,62z"/>
</svg>
