<?xml version="1.0" encoding="UTF-8"?>
<svg width="80px" height="125px" viewBox="0 0 80 125" version="1.1" xmlns="http://www.w3.org/2000/svg" xmlns:xlink="http://www.w3.org/1999/xlink">
    <!-- Generator: Sketch 47.1 (45422) - http://www.bohemiancoding.com/sketch -->
    <title>crouchdown-m copy 7</title>
    <desc>Created with Sketch.</desc>
    <defs></defs>
    <g id="Symbols" stroke="none" stroke-width="1" fill="none" fill-rule="evenodd">
        <g id="crouchdown-m-copy-7">
            <path d="M62.4794863,113.012558 C61.8425959,112.416701 61.3599614,111.682832 61.0315825,110.810952 C60.5390143,109.503133 58.9191161,103.269312 56.3443082,99.1775257 C53.7695003,95.0857395 49.6184314,91.2665836 46.1864186,88.34715 C42.7544057,85.4277165 40.4050212,79.9443711 40.3194497,79.4309103 C40.2338782,78.9174495 37.0988111,78.4658924 35.9944706,78.2509257 C35.2582435,78.1076146 32.6835775,77.1546807 28.2704726,75.3921238 C31.0033678,79.4124664 32.6625749,82.0207566 33.248094,83.2169944 C34.1263725,85.0113511 37.2825131,89.2677542 38.3012822,90.4696806 C39.3200513,91.671607 41.193158,94.0592858 42.1859576,94.9214844 C42.847824,95.4962834 43.0872234,95.8690684 42.9041558,96.0398395 C46.473821,99.4009369 47.5679086,102.002549 46.1864186,103.844676 C44.1141835,106.607867 43.5977745,105.589637 40.3194497,107.063028 C37.0411249,108.536419 37.2751693,108.833323 36.08249,109.89851 C34.8898107,110.963697 34.5103799,113.012558 29.9567844,113.521461 C25.403189,114.030364 24.63709,113.402848 23.6257712,112.730282 C22.6144523,112.057716 23.4984782,109.918756 24.3990011,108.723613 C25.299524,107.528471 27.2270113,106.385268 28.2200237,106.213761 C29.2130362,106.042254 29.8352389,105.623133 30.3371732,105.174544 C30.8391074,104.725955 31.4896211,104.184934 30.882106,104.50484 C30.274591,104.824746 28.5946651,102.00474 27.1397368,99.5644232 C25.6848086,97.1241066 21.5092603,90.9992533 19.7229022,87.8648531 C17.9365441,84.7304529 14.3342396,80.1262659 10.2480944,75.9547682 C6.1619492,71.7832706 5.93354569,68.1081677 6.0109219,66.3425369 C6.08829811,64.576906 8.25834434,62.5 9.35800189,61.4876615 C10.0911069,60.8127692 11.504704,60.2306562 13.5987931,59.7413225 C12.8052346,58.922301 12.1737368,57.8795503 11.7042999,56.6130703 C11.0001444,54.7133503 11.661727,53.6139252 12.9080481,51.118489 C14.1543692,48.6230527 16.7912271,44.2589543 17.7172937,42.0391163 C18.6433603,39.8192783 18.1285478,37.1016674 18.4948874,35.7966037 C18.7391138,34.9265611 19.1484521,34.1640373 19.7229022,33.5090321 C19.4259918,32.9923914 19.1753617,32.617825 18.9710119,32.3853332 C18.6644871,32.0365954 18.1098689,32.2827788 17.9318078,31.9850797 C17.7537467,31.6873806 17.8069096,31.5509594 17.4059795,31.5091957 C17.0050494,31.467432 16.8115024,31.2633833 16.4641077,30.4662683 C16.116713,29.6691533 15.4526293,29.7040801 14.3342396,29.9292227 C13.21585,30.1543653 12.9080481,29.3744222 12.9080481,28.1859577 C12.9080481,26.9974932 12.9080481,24.4017816 12.7000796,23.5003633 C12.492111,22.5989449 11.2249292,22.5211414 10.7926016,22.0827282 C10.360274,21.644315 10.2585248,20.5749937 9.49647019,17.519881 C8.7344156,14.4647683 9.35640541,8.89259543 11.9959241,5.43574525 C14.6354428,1.97889506 16.9186264,-0.174587346 21.8153593,0.0111234823 C26.7120922,0.19683431 31.2297136,2.85105756 32.4753962,6.57333007 C33.7210787,10.2956026 35.8043827,13.9375276 37.0988111,15.0785044 C38.3932396,16.2194812 42.9189499,17.7144958 46.1864186,18.2279565 C49.4538873,18.7414173 55.3385239,20.0441491 56.7757844,21.0659826 C58.2130449,22.0878162 63.7598657,27.0475249 67.7832159,32.574754 C71.8065661,38.1019831 74.13658,44.2624522 75.1219293,46.7701844 C76.1072787,49.2779166 75.932517,51.3111957 77.0794304,53.6794328 C78.2263439,56.0476699 79.7895761,62.6903288 79.9277251,64.4834135 C80.0658741,66.2764982 80.0382457,67.9469428 79.5567464,70.8072287 C79.0752471,73.6675147 77.3855295,76.2937541 74.13658,78.9028216 C71.9706136,80.6422 68.9231758,81.7084826 64.9942664,82.1016694 C65.6222164,84.7988578 66.1949844,86.8806846 66.7125704,88.34715 C67.4889495,90.5468481 68.5567652,93.2462271 68.971425,94.3994998 C69.3860849,95.5527726 70.9454212,98.1253906 71.5470791,98.6007812 C71.9481843,98.9177083 72.1088987,99.2389223 72.0292223,99.5644232 C73.3367774,101.291364 74.1169255,102.602859 74.3696665,103.498906 C74.748778,104.842978 73.8698609,107.464765 73.5795138,108.398407 C73.2891667,109.33205 73.185076,114.439097 73.243188,115.98478 C73.3013,117.530462 72.6158766,120.572219 72.0292223,121.777219 C71.442568,122.982219 69.9161173,124.517514 67.7832159,124.905047 C65.6503145,125.292581 60.8598364,124.386075 59.6996899,124.118108 C58.5395434,123.850142 59.010435,120.850361 59.3550624,119.980106 C59.6996899,119.109852 60.9641045,117.475554 61.5241508,116.483188 C61.897515,115.821611 62.2159601,114.664735 62.4794863,113.012558 Z M29.4097352,46.2194849 C29.0534388,47.1982935 28.7771247,47.8627027 28.5807927,48.2127125 C28.3844608,48.5627223 27.7594381,49.4378527 26.7057245,50.8381039 C27.6505224,50.8236162 28.2755452,50.8752379 28.5807927,50.9929689 C28.8860403,51.1107 29.1623545,51.471451 29.4097352,52.0752221 C29.6156757,51.79096 29.9621628,51.5979493 30.4491965,51.4961899 C31.1797472,51.3435509 31.117606,51.4346681 31.9402737,52.0752221 C32.7629414,52.7157761 33.5160124,53.1231712 34.0455126,53.1410851 C34.3985127,53.1530277 35.9917319,52.79774 38.8251701,52.0752221 C37.9378802,51.5647293 37.3249017,51.1523566 36.9862344,50.8381039 C36.4782335,50.3667249 35.0870581,48.7500231 34.0455126,48.2127125 C33.003967,47.6754019 32.073111,47.7934851 30.9250268,47.0522318 C30.1596373,46.5580629 29.6545401,46.2804806 29.4097352,46.2194849 Z" id="scale/crouch-down-737x1250mm" fill="#AAAAAA"></path>
            <rect id="Rectangle-2-Copy" x="0" y="0" width="80" height="125"></rect>
        </g>
    </g>
</svg>