<?xml version="1.0" encoding="UTF-8"?>
<svg width="61px" height="121px" viewBox="0 0 61 121" version="1.1" xmlns="http://www.w3.org/2000/svg" xmlns:xlink="http://www.w3.org/1999/xlink">
    <!-- Generator: Sketch 47.1 (45422) - http://www.bohemiancoding.com/sketch -->
    <title>scale/human/look-down</title>
    <desc>Created with Sketch.</desc>
    <defs></defs>
    <g id="Symbols" stroke="none" stroke-width="1" fill="none" fill-rule="evenodd">
        <g id="scale/human/look-down" fill="#AAAAAA">
            <path d="M37.1847391,85.5994779 C30.1191704,87.9082564 30.1170923,87.9103345 27.0768197,81.19181 C26.6050891,80.1506777 26.1853112,79.0887643 25.740596,78.0351633 C25.5203165,78.04971 25.3021151,78.0663349 25.0839137,78.0808817 C25.0839137,81.4952138 25.1774286,84.9116241 25.0548202,88.3218 C24.9529929,91.1812772 24.6682921,94.0407544 24.3378728,96.8836067 C23.9471884,100.233517 23.1637416,103.562647 23.0473675,106.916714 C22.9746337,108.967807 23.7726273,111.064619 24.2942325,113.113633 C24.840775,115.262398 23.6417065,115.80894 21.9127203,115.860893 C18.11186,115.977267 14.3109997,116.110266 10.5101394,116.081172 C9.22586836,116.070782 7.86886356,115.767378 6.6947323,115.256163 C6.08584653,114.992243 5.42500805,113.944877 5.48319509,113.317288 C5.53722591,112.745808 6.45159361,112.072501 7.13321318,111.789878 C8.18681415,111.351398 9.4586165,111.397116 10.4623429,110.890057 C11.6551771,110.287406 12.6734502,109.329398 13.7436761,108.496077 C13.9972053,108.298656 14.1405948,107.78952 14.3733429,107.762504 C17.9185959,107.361429 17.0873525,104.697294 17.095665,102.509046 C17.1206023,96.9646529 17.1039774,91.4181815 17.1039774,85.6992271 C16.3891081,85.6514307 15.5786458,85.638962 14.7785741,85.5371347 C13.3800071,85.3625736 12.5633105,84.9116241 12.1975634,83.1826378 C11.5450374,80.0904125 11.2665708,77.0792334 11.5699747,73.9308991 C11.6925831,72.6549406 10.8945894,71.3124825 10.6701537,69.9721026 C10.4935145,68.9205797 10.5579359,67.8254166 10.5101394,66.7510345 C10.3605156,63.4780138 10.2607664,60.3400701 11.3496952,57.0296433 C12.3949837,53.8584499 12.4697956,50.2176039 12.2827658,46.8198967 C11.9087063,39.9912324 11.021354,33.1916616 10.4436399,26.3713098 C10.2358291,23.9232981 10.6244353,21.5875042 12.5903259,19.7400658 C12.9643854,19.3888655 12.8126835,18.4828102 12.9041203,17.8323623 C12.1809385,17.8406747 11.1501968,17.5435052 10.790684,17.9092523 C9.26950863,19.4615993 8.25331362,19.6403166 6.9919018,17.5497395 C6.43704685,16.6312156 5.05718286,16.2072815 4.00358189,15.5298181 C2.90218443,13.3519605 1.64077261,10.9018707 0.435469728,8.42476543 C0.179862392,7.89692589 -0.0695106188,7.23816552 0.017769935,6.69162301 C0.730561124,2.24654909 6.17104898,-1.1054398 10.2981723,0.340923665 C12.9519168,1.26776002 14.5208886,3.19832275 15.0237909,5.93934776 C15.8176283,10.2451884 17.7752064,12.2588755 22.0270162,13.0069945 C29.6349712,14.3473744 33.2425674,18.2230466 34.4374797,26.2341546 C35.0338969,30.2407477 36.0542481,34.214091 36.2724495,38.2352308 C36.4386982,41.3232999 35.592908,44.4591655 35.3019729,47.5825624 C35.0131158,50.6685535 33.7433915,53.8189658 36.6485871,56.620256 C37.450737,57.3933123 37.0974585,59.4007651 37.2096764,60.8450504 C37.6336105,66.300085 38.8950223,71.4974342 41.7628119,76.227209 C42.0184193,76.6511431 42.4423534,77.1166394 42.4194942,77.5405735 C42.2075271,81.2125911 45.0358327,83.1369195 46.7752095,85.7719609 C48.8450054,88.9119828 50.4596957,92.4489233 51.7003264,96.0128792 C53.0968153,100.015316 55.0169875,103.061823 59.4080306,104.159064 C60.0210725,104.312844 60.6902235,105.962862 60.6112553,106.858527 C60.3618823,109.730473 59.7405279,112.571247 59.3228281,115.430724 C58.8199259,118.869994 55.9583706,121.191241 52.5378041,120.987586 C50.6903657,120.875368 50.1230421,120.062828 50.3724151,118.246561 C50.6862095,115.973111 51.2867828,113.537568 50.7755682,111.409585 C50.2207132,109.092494 51.7398105,106.683966 49.9256218,104.445843 C48.2194948,102.344876 47.0391292,99.822052 45.5408131,97.542367 C43.4003614,94.2859712 41.1934102,91.0711374 38.9864591,87.8583818 C38.429526,87.0499976 37.7603751,86.3164253 37.1847391,85.5994779" id="Fill-1"></path>
        </g>
    </g>
</svg>