<?xml version="1.0" encoding="UTF-8"?>
<svg width="80px" height="200px" viewBox="0 0 80 200" version="1.1" xmlns="http://www.w3.org/2000/svg" xmlns:xlink="http://www.w3.org/1999/xlink">
    <!-- Generator: Sketch 47.1 (45422) - http://www.bohemiancoding.com/sketch -->
    <title>scale/crouch-down-737x1250mm</title>
    <desc>Created with Sketch.</desc>
    <defs></defs>
    <g id="Symbols" stroke="none" stroke-width="1" fill="none" fill-rule="evenodd">
        <rect id="Rectangle-2-Copy" x="0" y="0" width="80" height="200"></rect>
        <g id="scale/crouch-down-737x1250mm" fill="#AAAAAA">
            <path d="M62.4794863,188.012558 C61.8425959,187.416701 61.3599614,186.682832 61.0315825,185.810952 C60.5390143,184.503133 58.9191161,178.269312 56.3443082,174.177526 C53.7695003,170.08574 49.6184314,166.266584 46.1864186,163.34715 C42.7544057,160.427716 40.4050212,154.944371 40.3194497,154.43091 C40.2338782,153.91745 37.0988111,153.465892 35.9944706,153.250926 C35.2582435,153.107615 32.6835775,152.154681 28.2704726,150.392124 C31.0033678,154.412466 32.6625749,157.020757 33.248094,158.216994 C34.1263725,160.011351 37.2825131,164.267754 38.3012822,165.469681 C39.3200513,166.671607 41.193158,169.059286 42.1859576,169.921484 C42.847824,170.496283 43.0872234,170.869068 42.9041558,171.039839 C46.473821,174.400937 47.5679086,177.002549 46.1864186,178.844676 C44.1141835,181.607867 43.5977745,180.589637 40.3194497,182.063028 C37.0411249,183.536419 37.2751693,183.833323 36.08249,184.89851 C34.8898107,185.963697 34.5103799,188.012558 29.9567844,188.521461 C25.403189,189.030364 24.63709,188.402848 23.6257712,187.730282 C22.6144523,187.057716 23.4984782,184.918756 24.3990011,183.723613 C25.299524,182.528471 27.2270113,181.385268 28.2200237,181.213761 C29.2130362,181.042254 29.8352389,180.623133 30.3371732,180.174544 C30.8391074,179.725955 31.4896211,179.184934 30.882106,179.50484 C30.274591,179.824746 28.5946651,177.00474 27.1397368,174.564423 C25.6848086,172.124107 21.5092603,165.999253 19.7229022,162.864853 C17.9365441,159.730453 14.3342396,155.126266 10.2480944,150.954768 C6.1619492,146.783271 5.93354569,143.108168 6.0109219,141.342537 C6.08829811,139.576906 8.25834434,137.5 9.35800189,136.487662 C10.0911069,135.812769 11.504704,135.230656 13.5987931,134.741323 C12.8052346,133.922301 12.1737368,132.87955 11.7042999,131.61307 C11.0001444,129.71335 11.661727,128.613925 12.9080481,126.118489 C14.1543692,123.623053 16.7912271,119.258954 17.7172937,117.039116 C18.6433603,114.819278 18.1285478,112.101667 18.4948874,110.796604 C18.7391138,109.926561 19.1484521,109.164037 19.7229022,108.509032 C19.4259918,107.992391 19.1753617,107.617825 18.9710119,107.385333 C18.6644871,107.036595 18.1098689,107.282779 17.9318078,106.98508 C17.7537467,106.687381 17.8069096,106.550959 17.4059795,106.509196 C17.0050494,106.467432 16.8115024,106.263383 16.4641077,105.466268 C16.116713,104.669153 15.4526293,104.70408 14.3342396,104.929223 C13.21585,105.154365 12.9080481,104.374422 12.9080481,103.185958 C12.9080481,101.997493 12.9080481,99.4017816 12.7000796,98.5003633 C12.492111,97.5989449 11.2249292,97.5211414 10.7926016,97.0827282 C10.360274,96.644315 10.2585248,95.5749937 9.49647019,92.519881 C8.7344156,89.4647683 9.35640541,83.8925954 11.9959241,80.4357452 C14.6354428,76.9788951 16.9186264,74.8254127 21.8153593,75.0111235 C26.7120922,75.1968343 31.2297136,77.8510576 32.4753962,81.5733301 C33.7210787,85.2956026 35.8043827,88.9375276 37.0988111,90.0785044 C38.3932396,91.2194812 42.9189499,92.7144958 46.1864186,93.2279565 C49.4538873,93.7414173 55.3385239,95.0441491 56.7757844,96.0659826 C58.2130449,97.0878162 63.7598657,102.047525 67.7832159,107.574754 C71.8065661,113.101983 74.13658,119.262452 75.1219293,121.770184 C76.1072787,124.277917 75.932517,126.311196 77.0794304,128.679433 C78.2263439,131.04767 79.7895761,137.690329 79.9277251,139.483413 C80.0658741,141.276498 80.0382457,142.946943 79.5567464,145.807229 C79.0752471,148.667515 77.3855295,151.293754 74.13658,153.902822 C71.9706136,155.6422 68.9231758,156.708483 64.9942664,157.101669 C65.6222164,159.798858 66.1949844,161.880685 66.7125704,163.34715 C67.4889495,165.546848 68.5567652,168.246227 68.971425,169.3995 C69.3860849,170.552773 70.9454212,173.125391 71.5470791,173.600781 C71.9481843,173.917708 72.1088987,174.238922 72.0292223,174.564423 C73.3367774,176.291364 74.1169255,177.602859 74.3696665,178.498906 C74.748778,179.842978 73.8698609,182.464765 73.5795138,183.398407 C73.2891667,184.33205 73.185076,189.439097 73.243188,190.98478 C73.3013,192.530462 72.6158766,195.572219 72.0292223,196.777219 C71.442568,197.982219 69.9161173,199.517514 67.7832159,199.905047 C65.6503145,200.292581 60.8598364,199.386075 59.6996899,199.118108 C58.5395434,198.850142 59.010435,195.850361 59.3550624,194.980106 C59.6996899,194.109852 60.9641045,192.475554 61.5241508,191.483188 C61.897515,190.821611 62.2159601,189.664735 62.4794863,188.012558 Z M29.4097352,121.219485 C29.0534388,122.198293 28.7771247,122.862703 28.5807927,123.212712 C28.3844608,123.562722 27.7594381,124.437853 26.7057245,125.838104 C27.6505224,125.823616 28.2755452,125.875238 28.5807927,125.992969 C28.8860403,126.1107 29.1623545,126.471451 29.4097352,127.075222 C29.6156757,126.79096 29.9621628,126.597949 30.4491965,126.49619 C31.1797472,126.343551 31.117606,126.434668 31.9402737,127.075222 C32.7629414,127.715776 33.5160124,128.123171 34.0455126,128.141085 C34.3985127,128.153028 35.9917319,127.79774 38.8251701,127.075222 C37.9378802,126.564729 37.3249017,126.152357 36.9862344,125.838104 C36.4782335,125.366725 35.0870581,123.750023 34.0455126,123.212712 C33.003967,122.675402 32.073111,122.793485 30.9250268,122.052232 C30.1596373,121.558063 29.6545401,121.280481 29.4097352,121.219485 Z"></path>
        </g>
    </g>
</svg>