<?xml version="1.0" encoding="UTF-8"?>
<svg width="43px" height="75px" viewBox="0 0 43 75" version="1.1" xmlns="http://www.w3.org/2000/svg" xmlns:xlink="http://www.w3.org/1999/xlink">
    <!-- Generator: Sketch 47.1 (45422) - http://www.bohemiancoding.com/sketch -->
    <title>scale/human/crouching</title>
    <desc>Created with Sketch.</desc>
    <defs></defs>
    <g id="Symbols" stroke="none" stroke-width="1" fill="none" fill-rule="evenodd">
        <g id="scale/human/crouching" fill="#AAAAAA">
            <path d="M21.6355928,41.7060172 L21.8177212,41.8288128 C23.8698054,41.2390709 25.9234596,40.6509447 28.1262707,40.0208095 C27.8436577,38.7589233 27.7573038,37.4647225 27.261161,36.3660252 C26.3866309,34.4271476 25.5780437,32.4866543 25.1447039,30.3910508 C25.0866112,30.1066821 24.9280339,29.8433179 24.8165588,29.5686435 C24.7396253,29.571875 24.6642618,29.5734907 24.5873283,29.5751065 C23.6028931,33.619282 22.6184579,37.6618417 21.6355928,41.7060172 M14.3328864,0 L20.2135633,0 C20.2718502,0.758469294 20.6373249,1.18441552 21.4312872,1.25567046 C21.6471063,1.27308834 22.0110057,1.51852203 22.0220329,1.6784498 C22.144908,3.47565783 22.3449739,5.28394997 22.2583312,7.07640767 C22.1622366,9.07154611 21.8235424,11.0571839 21.5195052,13.0349044 C21.4391638,13.5542738 21.5746415,13.744287 22.0141563,13.8788797 C22.8333237,14.1306471 23.6351626,14.4457523 24.463782,14.6547668 C25.2797988,14.859031 25.8878731,15.2596421 26.3431411,15.9832757 C27.1245008,17.227862 28.1421588,18.3552736 28.7360552,19.6774487 C29.73796,21.9085202 30.476786,24.2583499 31.3495143,26.5480087 C31.5606075,27.1069642 31.5306764,27.4632389 30.8737671,27.627917 C30.5980858,27.6975885 30.2499396,27.8258474 30.4074718,28.2644612 C31.3148573,30.7916365 31.8803978,33.4644886 33.5455132,35.6733919 C33.7455791,35.9362435 33.8731801,36.2877679 33.936193,36.6171241 C34.0811226,37.3771768 34.2449561,38.1498971 34.2528327,38.9194505 C34.2654353,39.768176 34.7144021,39.978774 35.423297,40.1545362 C37.6066932,40.6944903 39.8278972,41.1521054 41.5985591,42.7387155 C42.0758817,43.1662452 42.4571096,43.6618629 42.4728628,44.2176514 C42.5216978,45.9895244 42.8666933,47.8484867 41.5591761,49.3828432 C41.3165765,49.6678629 41.064525,49.9972191 40.7431593,50.1571469 C38.3644231,51.3336452 36.2030813,52.8125811 34.3331742,54.7095461 C32.4380618,56.6318461 30.5350729,58.5446455 28.6399605,60.468529 C27.9137371,61.2064136 27.149706,61.861959 26.0674598,62.0092193 C25.9083522,62.0313875 25.6610267,62.2103166 25.6436982,62.3417423 C25.5286996,63.1920513 25.4483582,64.0486941 25.4010986,64.9069203 C25.3916466,65.0858494 25.5271243,65.3423672 25.6767799,65.4500413 C26.6676574,66.1689246 27.6317545,66.9558958 28.7061241,67.5243519 C29.5111136,67.9487147 29.8135754,68.4031629 29.5205655,69.2518885 C29.5158396,69.2693064 29.5000863,69.2851408 29.3992657,69.4371513 C28.2492807,69.2914746 27.0236802,69.1426309 25.8012303,68.9795362 C24.8623385,68.8560277 24.1219371,68.4158305 23.4287955,67.7397002 C22.0094304,66.3557709 20.5112992,65.0510137 19.008442,63.7573406 C18.1152344,62.9877872 17.1511374,62.3005728 16.1319041,61.5088512 C16.606076,60.6617091 16.933743,59.703726 17.5622964,59.0275957 C19.2195351,57.2462221 21.0122515,55.5931074 22.7403798,53.8782384 C23.1956478,53.4253737 23.6115328,52.9313394 24.1534436,52.3422985 C23.866735,52.3628833 23.7485858,52.3486323 23.6461899,52.3803011 C21.7447763,52.9867599 19.8480886,53.6074696 17.9435243,54.2012608 C17.5496938,54.3247694 17.5103108,54.6192898 17.4205174,54.9375619 C17.300793,55.3619247 17.1889451,55.8052888 16.973126,56.1837317 C15.8247163,58.1852039 14.2257645,59.7955657 12.447226,61.222248 C11.8738088,61.6814465 11.6406611,62.2134834 11.6501131,62.8975309 C11.6753182,64.7944959 11.3665551,66.6423741 10.9144377,68.4775847 C10.8435482,68.7689383 10.9081364,69.1632157 11.053066,69.4292341 C11.7383311,70.6880715 12.496061,71.9057393 13.1750247,73.1677435 C13.3246803,73.448013 13.4097477,73.9594651 13.2585168,74.1637293 C12.8851655,74.6672642 12.3653092,75.0330396 11.6485377,74.9997873 C10.7521795,74.9617847 9.85109536,74.9649516 8.95473716,74.9997873 C7.62516541,75.0520409 6.69887609,74.5390053 6.23258079,73.2405819 C6.018337,72.6452073 5.67964277,72.0925856 5.47485092,71.4940441 C5.29841485,70.9841753 5.14718395,70.4378874 5.13615669,69.9042671 C5.11567751,68.7736886 5.07629446,67.6700287 4.66828607,66.5853701 C4.45089163,66.0074134 4.35637231,65.3566182 4.33746845,64.734325 C4.26500364,62.3148238 4.23034656,59.8937391 4.21459334,57.4726545 C4.21301801,56.9691196 4.02713002,56.6508475 3.65692936,56.3294085 C2.5920117,55.4046777 1.55702517,54.4466945 0.528339917,53.4807942 C0.345602568,53.3097823 0.170741829,53.0564314 0.134509423,52.8189149 C0.0462913927,52.2346244 0.00533302135,51.6376663 0.00533302135,51.0438751 C-0.00254358852,45.2358054 -0.000968266542,39.4277358 0.00533302135,33.6212495 C0.00533302135,33.3789827 0.0462913927,33.133549 0.0982770178,32.8960325 C0.851280922,29.3792052 1.60113418,25.8607944 2.37776791,22.3487174 C2.45180805,22.0130274 2.64557265,21.6646699 2.8787203,21.4081521 C4.20041544,19.9545512 5.61505457,18.581706 6.87058618,17.0742681 C7.83310791,15.919938 8.87439574,15.1408839 10.4355398,15.3023951 C10.5158812,15.3118958 10.6040993,15.3134792 10.6781394,15.2865607 C10.7632068,15.2548918 10.8939585,15.1994713 10.9081364,15.1345501 C11.0514907,14.4536696 11.4500472,13.8107916 11.1381334,13.061823 C10.3079387,11.0730183 9.69041252,9.02562626 9.31075992,6.89589515 C9.12172129,5.83182132 9.08391356,4.88650572 9.69198784,3.92377226 C10.2134194,3.09879835 10.5521136,2.15981653 11.0262856,1.30000687 C11.1601879,1.05457317 11.4563485,0.831307681 11.7257285,0.741051419 C12.5827037,0.457615086 13.4633086,0.24226681 14.3328864,0" transform="translate(21.275000, 37.501694) scale(-1, 1) translate(-21.275000, -37.501694) "></path>
        </g>
    </g>
</svg>