<?xml version="1.0" encoding="utf-8"?>
<!-- Generator: Adobe Illustrator 17.0.2, SVG Export Plug-In . SVG Version: 6.00 Build 0)  -->
<!DOCTYPE svg PUBLIC "-//W3C//DTD SVG 1.1//EN" "http://www.w3.org/Graphics/SVG/1.1/DTD/svg11.dtd">
<svg version="1.1" id="Layer_1" xmlns="http://www.w3.org/2000/svg" xmlns:xlink="http://www.w3.org/1999/xlink" x="0px" y="0px"
	 width="60px" height="60px" viewBox="0 0 60 60" enable-background="new 0 0 60 60" xml:space="preserve">
<path fill="none" stroke="#000000" stroke-miterlimit="10" d="M23.92,28.05c2.197,0,3.977,1.781,3.977,3.977v11.856
	c0,2.197-1.781,3.977-3.977,3.977H11.214c-2.197,0-3.977-1.781-3.977-3.977V28.05c0-6.641,3.952-12.603,10.067-15.189l1.985,4.691
	c-4.227,1.788-6.958,5.908-6.958,10.498H23.92z M38.086,28.05c0-4.589,2.731-8.71,6.958-10.498l-1.985-4.691
	c-6.116,2.586-10.067,8.548-10.067,15.189v15.834c0,2.197,1.781,3.977,3.977,3.977h12.705c2.197,0,3.977-1.781,3.977-3.977V32.027
	c0-2.197-1.781-3.977-3.977-3.977H38.086z"/>
</svg>
