<?xml version="1.0" encoding="utf-8"?>
<!-- Generator: Adobe Illustrator 17.0.2, SVG Export Plug-In . SVG Version: 6.00 Build 0)  -->
<!DOCTYPE svg PUBLIC "-//W3C//DTD SVG 1.1//EN" "http://www.w3.org/Graphics/SVG/1.1/DTD/svg11.dtd">
<svg version="1.1" id="Layer_1" xmlns="http://www.w3.org/2000/svg" xmlns:xlink="http://www.w3.org/1999/xlink" x="0px" y="0px"
	 width="60px" height="60px" viewBox="0 0 60 60" enable-background="new 0 0 60 60" xml:space="preserve">
<path fill="none" stroke="#000000" stroke-miterlimit="10" d="M37.118,32.067c0,2.022-1.639,3.661-3.661,3.661
	c-2.022,0-3.661-1.639-3.661-3.661s1.639-3.661,3.661-3.661C35.479,28.407,37.118,30.046,37.118,32.067z M47.927,24.001v15.661
	c0,1.958-1.587,3.545-3.545,3.545h-27.91c-1.958,0-3.545-1.587-3.545-3.545V24.001c0-1.958,1.587-3.545,3.545-3.545h0.844
	c0.686,0,1.262-0.394,1.514-1.182c0.271-0.846,0.805-1.52,1.646-1.52h3.722c1.06,0,1.376,0.736,1.671,1.52
	c0.325,0.861,0.847,1.182,1.533,1.182h16.979C46.34,20.456,47.927,22.043,47.927,24.001z M40.919,32.067
	c0-4.122-3.341-7.463-7.463-7.463c-4.121,0-7.463,3.341-7.463,7.463c0,4.121,3.341,7.463,7.463,7.463
	C37.578,39.53,40.919,36.189,40.919,32.067z M45.356,24.638c0-0.944-0.765-1.709-1.709-1.709s-1.709,0.765-1.709,1.709
	c0,0.944,0.765,1.709,1.709,1.709S45.356,25.582,45.356,24.638z M13.853,46.629L47.002,13.48"/>
</svg>
