<?xml version="1.0" encoding="utf-8"?>
<!-- Generator: Adobe Illustrator 17.0.2, SVG Export Plug-In . SVG Version: 6.00 Build 0)  -->
<!DOCTYPE svg PUBLIC "-//W3C//DTD SVG 1.1//EN" "http://www.w3.org/Graphics/SVG/1.1/DTD/svg11.dtd">
<svg version="1.1" id="Layer_1" xmlns="http://www.w3.org/2000/svg" xmlns:xlink="http://www.w3.org/1999/xlink" x="0px" y="0px"
	 width="60px" height="60px" viewBox="0 0 60 60" enable-background="new 0 0 60 60" xml:space="preserve">
<path fill="none" stroke="#000000" stroke-miterlimit="10" d="M20.462,38.114c0,0.91-0.738,1.648-1.648,1.648h-1.236
	c-0.91,0-1.648-0.738-1.648-1.648v-4.531c0-0.91,0.738-1.648,1.648-1.648h1.236c0.91,0,1.648,0.738,1.648,1.648V38.114z
	 M22.477,31.568l-2.015,2.015 M20.462,35.848h2.849 M22.477,40.129l-2.015-2.015 M15.93,38.114l-2.015,2.015 M13.916,31.568
	l2.015,2.015 M13.081,35.848h2.849 M20.462,22.867c0-0.91-0.738-1.648-1.648-1.648h-1.236c-0.91,0-1.648,0.738-1.648,1.648v4.531
	c0,0.91,0.738,1.648,1.648,1.648h1.236c0.91,0,1.648-0.738,1.648-1.648V22.867z M22.477,20.852l-2.015,2.015 M23.311,25.132h-2.849
	 M22.477,29.413l-2.015-2.015 M15.93,27.398l-2.015,2.015 M15.93,22.867l-2.015-2.015 M15.93,25.132h-2.849 M45.232,33.583
	c0-0.91-0.738-1.648-1.648-1.648h-1.236c-0.91,0-1.648,0.738-1.648,1.648v4.531c0,0.91,0.738,1.648,1.648,1.648h1.236
	c0.91,0,1.648-0.738,1.648-1.648V33.583z M47.247,31.568l-2.015,2.015 M45.232,35.848h2.849 M45.232,38.114l2.015,2.015
	 M40.7,38.114l-2.015,2.015 M38.686,31.568l2.015,2.015 M37.851,35.848H40.7 M45.232,22.867c0-0.91-0.738-1.648-1.648-1.648h-1.236
	c-0.91,0-1.648,0.738-1.648,1.648v4.531c0,0.91,0.738,1.648,1.648,1.648h1.236c0.91,0,1.648-0.738,1.648-1.648V22.867z
	 M45.232,22.867l2.015-2.015 M48.081,25.132h-2.849 M45.232,27.398l2.015,2.015 M38.686,29.413l2.015-2.015 M38.686,20.852
	l2.015,2.015 M40.7,25.132h-2.849 M32.847,38.94c0-0.91-0.738-1.648-1.648-1.648h-1.236c-0.91,0-1.648,0.738-1.648,1.648v4.531
	c0,0.91,0.738,1.648,1.648,1.648h1.236c0.91,0,1.648-0.738,1.648-1.648V38.94z M32.847,38.94l2.015-2.015 M32.847,41.206h2.849
	 M32.847,43.472l2.015,2.015 M26.301,45.487l2.015-2.015 M26.301,36.926l2.015,2.015 M25.466,41.206h2.849 M32.847,28.225
	c0-0.91-0.738-1.648-1.648-1.648h-1.236c-0.91,0-1.648,0.738-1.648,1.648v4.531c0,0.91,0.738,1.648,1.648,1.648h1.236
	c0.91,0,1.648-0.738,1.648-1.648V28.225z M32.847,28.225l2.015-2.015 M35.696,30.49h-2.849 M32.847,32.756l2.015,2.015
	 M26.301,34.771l2.015-2.015 M26.301,26.21l2.015,2.015 M28.315,30.49h-2.849 M32.847,17.509c0-0.91-0.738-1.648-1.648-1.648h-1.236
	c-0.91,0-1.648,0.738-1.648,1.648v4.531c0,0.91,0.738,1.648,1.648,1.648h1.236c0.91,0,1.648-0.738,1.648-1.648V17.509z
	 M34.862,15.494l-2.015,2.015 M32.847,19.774h2.849 M32.847,22.04l2.015,2.015 M28.315,22.04l-2.015,2.015 M26.301,15.494
	l2.015,2.015 M25.466,19.774h2.849"/>
</svg>
