<?xml version="1.0" encoding="utf-8"?>
<!-- Generator: Adobe Illustrator 17.0.2, SVG Export Plug-In . SVG Version: 6.00 Build 0)  -->
<!DOCTYPE svg PUBLIC "-//W3C//DTD SVG 1.1//EN" "http://www.w3.org/Graphics/SVG/1.1/DTD/svg11.dtd">
<svg version="1.1" id="Layer_1" xmlns="http://www.w3.org/2000/svg" xmlns:xlink="http://www.w3.org/1999/xlink" x="0px" y="0px"
	 width="60px" height="60px" viewBox="0 0 60 60" enable-background="new 0 0 60 60" xml:space="preserve">
<path fill="none" stroke="#000000" stroke-miterlimit="10" d="M44.759,22.98c0.014,0.304,0.02,0.608,0.02,0.914
	c0,9.331-7.103,20.091-20.09,20.091c-3.989,0-7.7-1.169-10.824-3.174c0.552,0.066,1.114,0.1,1.684,0.1
	c3.308,0,6.352-1.129,8.769-3.023c-9.56-6.135-8.058-20.581-8.058-20.581c3.482,4.272,8.686,7.083,14.554,7.378
	c-0.121-0.517-0.183-1.055-0.183-1.609c0-3.9,3.162-7.061,7.061-7.061c2.03,0,4.417,0.51,5.662,3.087
	c1.608-0.317,3.317-0.375,5.51-1.6C48.865,17.502,47.977,20.613,44.759,22.98z"/>
</svg>
