<?xml version="1.0" encoding="utf-8"?>
<!-- Generator: Adobe Illustrator 17.0.2, SVG Export Plug-In . SVG Version: 6.00 Build 0)  -->
<!DOCTYPE svg PUBLIC "-//W3C//DTD SVG 1.1//EN" "http://www.w3.org/Graphics/SVG/1.1/DTD/svg11.dtd">
<svg version="1.1" id="Layer_1" xmlns="http://www.w3.org/2000/svg" xmlns:xlink="http://www.w3.org/1999/xlink" x="0px" y="0px"
	 width="60px" height="60px" viewBox="0 0 60 60" enable-background="new 0 0 60 60" xml:space="preserve">
<path fill="none" stroke="#000000" stroke-miterlimit="10" d="M30.41,44.3H17.811c-1.849,0-3.348-1.499-3.348-3.348V23.096
	c0-1.849,1.499-3.348,3.348-3.348h18.973c1.849,0,3.348,1.499,3.348,3.348v11.483 M22.496,27.291h-3.693v-3.693h3.693V27.291z
	 M22.496,33.871h-3.693v-3.693h3.693V33.871z M22.496,40.451h-3.693v-3.693h3.693V40.451z M29.144,40.451h-3.693v-3.693h3.693
	V40.451z M29.144,27.291h-3.693v-3.693h3.693V27.291z M29.144,33.871h-3.693v-3.693h3.693V33.871z M35.792,27.291h-3.693v-3.693
	h3.693V27.291z M35.792,33.871h-3.693v-3.693h3.693V33.871z M33.252,42.679h10.516 M38.51,37.421v10.516 M46.943,23.096
	c0-5.615-4.544-10.159-10.159-10.159 M43.556,23.096c0-3.743-3.029-6.773-6.773-6.773"/>
</svg>
