<?xml version="1.0" encoding="utf-8"?>
<!-- Generator: Adobe Illustrator 17.0.2, SVG Export Plug-In . SVG Version: 6.00 Build 0)  -->
<!DOCTYPE svg PUBLIC "-//W3C//DTD SVG 1.1//EN" "http://www.w3.org/Graphics/SVG/1.1/DTD/svg11.dtd">
<svg version="1.1" id="Layer_1" xmlns="http://www.w3.org/2000/svg" xmlns:xlink="http://www.w3.org/1999/xlink" x="0px" y="0px"
	 width="60px" height="60px" viewBox="0 0 60 60" enable-background="new 0 0 60 60" xml:space="preserve">
<path fill="none" stroke="#000000" stroke-miterlimit="10" d="M36.466,43.803h-9.077v2.25h9.077V43.803z M36.466,17.773h-9.077v2.25
	h9.077V17.773z M28.943,43.803V20.147 M34.912,43.803V20.147 M29.726,17.773v-1.966c0-0.573,0.465-1.038,1.038-1.038h2.326
	c0.573,0,1.038,0.465,1.038,1.038v1.966 M31.695,43.856l0.506-1.339c0.765-2.077,0.051-4.543-0.691-6.176
	c-0.743-1.634-1.017-5.634,0.691-9.657c1.708-4.023-0.691-6.537-0.691-6.537 M47.74,46.052V35.116c0-1.713-1.402-3.115-3.115-3.115
	h-2.847c-1.713,0-3.115,1.402-3.115,3.115v10.936H47.74z M47.74,37.585h-9.077 M41,32.002v-1.966c0-0.573,0.465-1.038,1.038-1.038
	h2.326c0.573,0,1.038,0.465,1.038,1.038v1.966 M25.191,46.052H12.74v-2.25h12.451V46.052z M25.191,26.17H12.74v2.25h12.451V26.17z
	 M14.124,28.42v15.383 M23.807,43.803V28.42 M16.764,26.17v-1.966c0-0.573,0.465-1.038,1.038-1.038h2.326
	c0.573,0,1.038,0.465,1.038,1.038v1.966 M19.878,43.856c0.797-0.797,1.29-1.897,1.29-3.113c0-2.432-1.971-4.403-4.403-4.403
	c-0.992,0-1.907,0.328-2.643,0.882 M21.167,39.411c0.985,0,1.897-0.313,2.641-0.845 M23.711,31.086
	c-0.726-0.491-1.602-0.777-2.544-0.777c-2.513,0-4.551,2.037-4.551,4.551c0,0.508,0.083,0.997,0.237,1.453"/>
</svg>
