<?xml version="1.0" encoding="utf-8"?>
<!-- Generator: Adobe Illustrator 17.0.2, SVG Export Plug-In . SVG Version: 6.00 Build 0)  -->
<!DOCTYPE svg PUBLIC "-//W3C//DTD SVG 1.1//EN" "http://www.w3.org/Graphics/SVG/1.1/DTD/svg11.dtd">
<svg version="1.1" id="Layer_1" xmlns="http://www.w3.org/2000/svg" xmlns:xlink="http://www.w3.org/1999/xlink" x="0px" y="0px"
	 width="60px" height="60px" viewBox="0 0 60 60" enable-background="new 0 0 60 60" xml:space="preserve">
<path fill="none" stroke="#000000" stroke-linecap="round" stroke-miterlimit="10" d="M14.695,36.575
	c0.954-0.954,3.789,0.335,6.332,2.878c2.543,2.543,3.832,5.378,2.878,6.332 M19.446,37.964l4.62-4.62 M37.86,19.551l-4.583,4.583
	 M27.137,36.414l-4.62,4.62 M40.93,22.621l-4.583,4.583 M39.417,30.274l4.629-4.629l2.533-2.533c1.017-1.017,1.017-2.667,0-3.684
	l-5.526-5.526c-1.017-1.017-2.667-1.017-3.684,0l-2.533,2.533l-4.629,4.629 M20.997,30.273l-6.389,6.389l-1.535,10.746l10.746-1.535
	l6.389-6.389 M34.836,16.434l9.211,9.211 M21.918,12.773l-9.211,9.211l25.789,25.789l9.211-9.211L21.918,12.773z M41.27,32.125
	l-4.819,4.819 M30.013,30.506l4.819-4.819 M28.394,19.249l-4.819,4.819 M25.175,16.031l-2.763,2.763 M31.613,22.468l-2.763,2.763
	 M38.051,28.906l-2.763,2.763 M44.488,35.344l-2.763,2.763"/>
</svg>
