<?xml version="1.0" encoding="utf-8"?>
<!-- Generator: Adobe Illustrator 17.0.2, SVG Export Plug-In . SVG Version: 6.00 Build 0)  -->
<!DOCTYPE svg PUBLIC "-//W3C//DTD SVG 1.1//EN" "http://www.w3.org/Graphics/SVG/1.1/DTD/svg11.dtd">
<svg version="1.1" id="Layer_1" xmlns="http://www.w3.org/2000/svg" xmlns:xlink="http://www.w3.org/1999/xlink" x="0px" y="0px"
	 width="60px" height="60px" viewBox="0 0 60 60" enable-background="new 0 0 60 60" xml:space="preserve">
<path fill="none" stroke="#000000" stroke-miterlimit="10" d="M41.407,39.837c-1.625,0-2.942,1.317-2.942,2.942
	c0,1.625,1.317,2.942,2.942,2.942c1.625,0,2.942-1.317,2.942-2.942C44.349,41.154,43.032,39.837,41.407,39.837z M23.777,39.837
	c-1.625,0-2.942,1.317-2.942,2.942c0,1.625,1.317,2.942,2.942,2.942s2.942-1.317,2.942-2.942
	C26.719,41.154,25.401,39.837,23.777,39.837z M13.668,15.26c-1.625,0-2.942,1.317-2.942,2.942s1.317,2.942,2.942,2.942
	s2.942-1.317,2.942-2.942S15.293,15.26,13.668,15.26z M41.407,39.837H23.777c-1.766,0-3.281-1.078-3.922-2.612l-5.28-16.237
	 M18.725,23.414c-0.392-1.209,0.326-2.197,1.597-2.197h23.701c1.271,0,1.989,0.989,1.597,2.197l-3.637,11.199
	c-0.392,1.209-1.753,2.197-3.024,2.197H25.385c-1.271,0-2.631-0.989-3.024-2.197L18.725,23.414z M30.408,36.811l-5.064-15.594
	 M33.937,36.811L39,21.217 M43.801,29.014H20.544"/>
</svg>
