<?xml version="1.0" encoding="utf-8"?>
<!-- Generator: Adobe Illustrator 17.0.2, SVG Export Plug-In . SVG Version: 6.00 Build 0)  -->
<!DOCTYPE svg PUBLIC "-//W3C//DTD SVG 1.1//EN" "http://www.w3.org/Graphics/SVG/1.1/DTD/svg11.dtd">
<svg version="1.1" id="Layer_1" xmlns="http://www.w3.org/2000/svg" xmlns:xlink="http://www.w3.org/1999/xlink" x="0px" y="0px"
	 width="60px" height="60px" viewBox="0 0 60 60" enable-background="new 0 0 60 60" xml:space="preserve">
<g>
	<path fill="none" stroke="#000000" stroke-miterlimit="10" d="M13.867,19.762c0-3.74,6.896-6.772,15.402-6.772
		s15.402,3.032,15.402,6.772v21.456c0,3.74-6.896,6.772-15.402,6.772s-15.402-3.032-15.402-6.772V19.762z"/>
	<path fill="none" stroke="#000000" stroke-miterlimit="10" d="M13.867,19.762c0,3.74,6.896,6.772,15.402,6.772
		s15.402-3.032,15.402-6.772"/>
	<path fill="none" stroke="#000000" stroke-miterlimit="10" d="M13.867,26.914c0,3.74,6.896,6.772,15.402,6.772
		s15.402-3.032,15.402-6.772"/>
	<path fill="none" stroke="#000000" stroke-miterlimit="10" d="M13.867,34.066c0,3.74,6.896,6.772,15.402,6.772
		s15.402-3.032,15.402-6.772"/>
</g>
</svg>
