<?xml version="1.0" encoding="utf-8"?>
<!-- Generator: Adobe Illustrator 17.0.2, SVG Export Plug-In . SVG Version: 6.00 Build 0)  -->
<!DOCTYPE svg PUBLIC "-//W3C//DTD SVG 1.1//EN" "http://www.w3.org/Graphics/SVG/1.1/DTD/svg11.dtd">
<svg version="1.1" id="Layer_1" xmlns="http://www.w3.org/2000/svg" xmlns:xlink="http://www.w3.org/1999/xlink" x="0px" y="0px"
	 width="60px" height="60px" viewBox="0 0 60 60" enable-background="new 0 0 60 60" xml:space="preserve">
<path fill="none" stroke="#000000" stroke-miterlimit="10" d="M43.571,34.547c0-4.383-2.308-4.883-4.041-4.883
	c-2.269,0-2.539,2.873-2.539,9.772s0.964,8.228,2.712,8.228c0.867,0,7.64-0.792,7.64-16.04c0-13.358-8.554-18.96-16.446-18.96
	s-16.446,5.602-16.446,18.96c0,15.248,6.774,16.04,7.64,16.04c1.748,0,2.712-1.329,2.712-8.228s-0.27-9.772-2.539-9.772
	c-1.733,0-4.041,0.5-4.041,4.883"/>
</svg>
