<!DOCTYPE svg PUBLIC "-//W3C//DTD SVG 1.1//EN" "http://www.w3.org/Graphics/SVG/1.1/DTD/svg11.dtd">
<svg xmlns="http://www.w3.org/2000/svg" width="109" height="117" viewBox="19.865 17.093 109 117" enable-background="new 19.865 17.093 109 117"><path d="M104.37 130.73c-11.305 0-20.5-9.196-20.5-20.5 0-3.553.907-6.896 2.504-9.812l-24.51-14.15c-3.607 5.886-10.1 9.82-17.495 9.82-11.305 0-20.5-9.195-20.5-20.5s9.195-20.5 20.5-20.5c7.394 0 13.887 3.937 17.493 9.823l24.51-14.15c-1.597-2.915-2.505-6.26-2.505-9.81 0-11.305 9.196-20.5 20.5-20.5s20.5 9.195 20.5 20.5-9.196 20.5-20.5 20.5c-7.395 0-13.888-3.937-17.494-9.823l-24.51 14.15c1.597 2.917 2.505 6.26 2.505 9.812 0 3.55-.91 6.895-2.505 9.81l24.51 14.153c3.607-5.887 10.1-9.822 17.495-9.822 11.304 0 20.5 9.197 20.5 20.5s-9.196 20.5-20.5 20.5zm0-40c-10.753 0-19.5 8.75-19.5 19.5s8.747 19.5 19.5 19.5 19.5-8.747 19.5-19.5-8.75-19.5-19.5-19.5zm-60-34.64c-10.752 0-19.5 8.747-19.5 19.5s8.748 19.5 19.5 19.5 19.5-8.75 19.5-19.5c0-10.753-8.747-19.5-19.5-19.5zm60-34.64c-10.753 0-19.5 8.75-19.5 19.5s8.747 19.5 19.5 19.5 19.5-8.748 19.5-19.5-8.75-19.5-19.5-19.5z"/></svg>