<!DOCTYPE svg PUBLIC "-//W3C//DTD SVG 1.1//EN" "http://www.w3.org/Graphics/SVG/1.1/DTD/svg11.dtd">
<svg xmlns="http://www.w3.org/2000/svg" width="76" height="108" viewBox="36.723 21.758 76 108" enable-background="new 36.723 21.758 76 108"><path d="M98.058 126.258H51.386c-.58 0-3.61-.08-6.384-1.68-3.19-1.843-4.878-5.04-4.878-9.252 0-6.83 5.684-9.682 11.18-12.44 5.596-2.808 10.882-5.46 10.882-11.978 0-4.96-2.238-7.64-5.07-11.033-4.07-4.875-9.133-10.94-9.133-26.597 0-19.355 13.43-28.02 26.74-28.02s26.738 8.665 26.738 28.02c0 15.66-5.06 21.724-9.13 26.597-2.833 3.394-5.07 6.074-5.07 11.032 0 6.52 5.285 9.17 10.88 11.98 5.497 2.757 11.18 5.608 11.18 12.438 0 4.21-1.685 7.41-4.876 9.25-2.774 1.602-5.805 1.683-6.385 1.683h-.002zm-23.336-100c-17.78 0-25.74 13.57-25.74 27.02 0 15.295 4.936 21.206 8.9 25.956 2.846 3.408 5.304 6.353 5.304 11.674 0 7.136-5.812 10.053-11.433 12.873-5.466 2.744-10.63 5.335-10.63 11.548 0 9.653 9.213 9.932 10.263 9.932h46.67c1.052 0 10.264-.28 10.264-9.933 0-6.213-5.163-8.804-10.63-11.546-5.62-2.82-11.433-5.734-11.433-12.87 0-5.32 2.458-8.266 5.304-11.674 3.967-4.75 8.9-10.66 8.9-25.957 0-13.45-7.957-27.02-25.737-27.02v-.002z"/></svg>