<!DOCTYPE svg PUBLIC "-//W3C//DTD SVG 1.1//EN" "http://www.w3.org/Graphics/SVG/1.1/DTD/svg11.dtd">
<svg xmlns="http://www.w3.org/2000/svg" width="108" height="107" viewBox="20.5 21.999 108 107" enable-background="new 20.5 21.999 108 107"><path d="M64.818 125.68c-1.704 0-3.3-.654-4.495-1.843L25.856 89.59C24.66 88.4 24 86.814 24 85.12c0-1.73.685-3.36 1.923-4.59L79.57 27.226c1.237-1.23 2.877-1.908 4.615-1.908 1.702 0 3.298.654 4.494 1.842l34.465 34.248c1.196 1.19 1.855 2.778 1.854 4.47 0 1.73-.684 3.36-1.92 4.59l-53.65 53.304c-1.238 1.23-2.877 1.908-4.614 1.908h.002zm19.367-99.362c-1.473 0-2.86.575-3.91 1.617L26.625 81.24C25.576 82.282 25 83.66 25 85.12c0 1.426.555 2.762 1.562 3.762L61.03 123.13c1.005 1 2.35 1.55 3.79 1.55 1.47 0 2.86-.574 3.91-1.616l53.645-53.305c1.05-1.043 1.626-2.42 1.626-3.88 0-1.427-.553-2.763-1.56-3.763L87.975 27.87c-1.007-1-2.353-1.552-3.79-1.552zM65.99 111.36c-1.17 0-2.258-.493-3.24-1.468-2.105-2.093-1.23-4.658-.384-7.14.8-2.346 1.556-4.563-.195-6.303-1.353-1.348-2.737-1.46-4.49-1.604-2.65-.217-5.945-.485-10.546-5.057-2.484-2.47-3.796-5.324-3.796-8.257 0-2.89 1.26-5.73 3.546-8.002 2.286-2.27 5.145-3.52 8.05-3.52 2.95 0 5.822 1.303 8.304 3.77 4.602 4.572 4.873 7.85 5.09 10.484.145 1.74.26 3.112 1.612 4.458.728.724 1.554 1.062 2.598 1.062 1.175 0 2.486-.44 3.754-.868 1.328-.447 2.7-.91 4.01-.91 1.256 0 2.292.423 3.167 1.292.98.975 1.477 2.058 1.477 3.22 0 1.91-1.353 3.353-1.624 3.622l-13.696 13.608c-.27.27-1.717 1.614-3.64 1.614l.003-.002zM54.933 71.01c-2.64 0-5.248 1.147-7.345 3.23s-3.25 4.673-3.25 7.294c0 2.66 1.21 5.27 3.5 7.547 4.34 4.313 7.307 4.555 9.924 4.77 1.8.146 3.5.285 5.114 1.89 2.194 2.18 1.26 4.92.436 7.336-.78 2.29-1.52 4.454.144 6.106.786.782 1.638 1.178 2.533 1.178 1.56 0 2.796-1.186 2.932-1.32l13.696-13.61c.135-.135 1.33-1.367 1.328-2.912 0-.886-.398-1.73-1.184-2.51-.688-.684-1.47-1-2.463-1-1.144 0-2.38.415-3.69.855-1.344.454-2.734.922-4.073.922-1.307 0-2.388-.442-3.304-1.353-1.615-1.605-1.755-3.296-1.903-5.085-.214-2.6-.458-5.545-4.798-9.857-2.29-2.277-4.918-3.48-7.6-3.48zm37.23 12.176l-5.492-5.458 19.346-19.222 5.493 5.46-19.345 19.22h-.002zm-4.074-5.458l4.073 4.048 17.926-17.81-4.076-4.05L88.09 77.728zm-5.88-4.432l-5.493-5.46 19.344-19.22 5.494 5.46-19.345 19.22zm-4.075-5.46l4.075 4.05 17.927-17.81-4.075-4.05-17.927 17.81zm-5.88-4.43l-5.493-5.46 19.344-19.22 5.493 5.458-19.345 19.222zm-4.074-5.46l4.076 4.05 17.926-17.812-4.075-4.048-17.926 17.81z"/></svg>