<!DOCTYPE svg PUBLIC "-//W3C//DTD SVG 1.1//EN" "http://www.w3.org/Graphics/SVG/1.1/DTD/svg11.dtd">
<svg xmlns="http://www.w3.org/2000/svg" width="93" height="108" viewBox="28.74 21.76 93 108" enable-background="new 28.74 21.76 93 108"><path d="M118.388 126.26H89.964v-1h27.424V97.88h1v28.38zm-57.883 0h-4.377c-12.992 0-21.078-5.467-23.386-15.808-.462-2.034-.65-4.31-.65-7.85v-4.72h1v4.72c0 3.46.18 5.67.626 7.63 2.194 9.83 9.943 15.027 22.41 15.027h4.377v1zM33.092 53.64h-1V25.26h28.424v1H33.092v27.38zm85.296-.004h-1v-4.718c0-3.462-.182-5.673-.625-7.63-2.194-9.832-9.943-15.028-22.41-15.028h-4.378v-1h4.377c12.992 0 21.08 5.466 23.387 15.808.46 2.034.647 4.31.647 7.85v4.718z"/></svg>