<!DOCTYPE svg PUBLIC "-//W3C//DTD SVG 1.1//EN" "http://www.w3.org/Graphics/SVG/1.1/DTD/svg11.dtd">
<svg xmlns="http://www.w3.org/2000/svg" width="140" height="108" viewBox="4.818 21.838 140 108" enable-background="new 4.818 21.838 140 108"><path d="M38.51 126.416l-6.06-14.324.46-.195c11.737-4.964 19.375-16.323 19.57-29.033H19.877c-6.542 0-11.864-5.322-11.864-11.864V37.124c0-6.542 5.322-11.864 11.864-11.864h36.3c6.543 0 11.865 5.322 11.865 11.864v45.24c0 19.175-11.41 36.39-29.068 43.857l-.46.197h-.004zm-4.75-13.796l5.282 12.483c17.025-7.413 28-24.134 28-42.74v-45.24c0-5.99-4.874-10.863-10.864-10.863H19.876c-5.99 0-10.864 4.874-10.864 10.864V71c0 5.99 4.874 10.863 10.864 10.863h33.61v.5c0 13.148-7.725 24.97-19.726 30.257zm78.336 13.795l-6.06-14.324.46-.193c11.737-4.965 19.375-16.324 19.57-29.033H93.458c-3.168 0-6.146-1.233-8.388-3.474-2.24-2.242-3.475-5.222-3.475-8.39V37.123c0-6.542 5.322-11.864 11.864-11.864h36.3c6.54 0 11.863 5.32 11.863 11.863v45.24c0 19.174-11.41 36.39-29.07 43.856l-.457.195zm-4.75-13.796l5.28 12.48c17.025-7.413 28-24.134 28-42.74V37.126c0-5.99-4.875-10.864-10.865-10.864h-36.3c-5.99 0-10.863 4.875-10.863 10.865V71c0 5.99 4.874 10.863 10.864 10.863h33.61v.5c0 13.146-7.724 24.967-19.724 30.256z"/></svg>