<!DOCTYPE svg PUBLIC "-//W3C//DTD SVG 1.1//EN" "http://www.w3.org/Graphics/SVG/1.1/DTD/svg11.dtd">
<svg xmlns="http://www.w3.org/2000/svg" width="108" height="108" viewBox="21.24 21.592 108 108" enable-background="new 21.24 21.592 108 108"><path d="M76.08 123.177L34.308 81.402c-11.615-11.615-11.615-30.513 0-42.128 11.497-11.5 30.132-11.615 41.774-.348C81.666 33.52 89 30.55 96.79 30.55c7.96 0 15.44 3.098 21.065 8.724 5.627 5.626 8.726 13.107 8.726 21.064s-3.097 15.438-8.724 21.064L76.08 123.177zM35.368 81.05l40.714 40.713 41.068-41.067c5.438-5.438 8.433-12.667 8.433-20.357s-2.994-14.92-8.432-20.36-12.67-8.43-20.36-8.43c-7.688 0-14.918 2.995-20.355 8.432L35.368 81.05zM55.37 31.562c-7.37 0-14.744 2.806-20.356 8.418-11.107 11.108-11.224 29.107-.35 40.36L75.37 39.63c-5.565-5.378-12.782-8.067-20-8.068z"/></svg>