<!DOCTYPE svg PUBLIC "-//W3C//DTD SVG 1.1//EN" "http://www.w3.org/Graphics/SVG/1.1/DTD/svg11.dtd">
<svg xmlns="http://www.w3.org/2000/svg" width="272" height="95" viewBox="14.508 28.039 272 95" enable-background="new 14.508 28.039 272 95"><path d="M106.094 119.554c-4.91 0-8.905-3.994-8.905-8.904 0-3.434 1.952-6.42 4.806-7.905H59.82c2.854 1.485 4.807 4.472 4.807 7.905 0 4.91-3.995 8.904-8.905 8.904s-8.905-3.994-8.905-8.904c0-3.784 2.373-7.025 5.71-8.312-3.764-.978-6.922-3.655-8.47-7.364L29.115 49.04c-.726.19-1.49.293-2.274.293-4.91 0-8.903-3.995-8.903-8.905 0-4.91 3.995-8.905 8.905-8.905s8.906 3.995 8.906 8.905c0 3.773-2.36 7.006-5.68 8.3l14.928 45.898c1.8 4.31 6.018 7.118 10.73 7.118h50.37c4.91 0 8.906 3.995 8.906 8.905s-3.996 8.903-8.906 8.903h-.002zm0-16.81c-4.36 0-7.905 3.546-7.905 7.905 0 4.356 3.544 7.902 7.903 7.902S114 115.007 114 110.65c0-4.36-3.547-7.906-7.906-7.906zm-50.372 0c-4.36 0-7.905 3.546-7.905 7.905 0 4.356 3.546 7.902 7.905 7.902s7.905-3.546 7.905-7.904c0-4.36-3.546-7.906-7.905-7.906v.002zm-28.88-70.22c-4.36 0-7.906 3.545-7.906 7.904 0 4.36 3.546 7.905 7.905 7.905s7.907-3.546 7.907-7.905c0-4.36-3.546-7.905-7.905-7.904zm200.072 70.428c-11.313 0-17.803-6.91-17.803-18.955v-16.5c0-12.045 6.49-18.954 17.805-18.954 11.312 0 17.8 6.91 17.8 18.955v16.5c0 12.045-6.487 18.954-17.8 18.954zm0-53.41c-10.68 0-16.803 6.545-16.803 17.956v16.5c0 11.41 6.126 17.954 16.805 17.954 10.677 0 16.8-6.544 16.8-17.955v-16.5c0-11.41-6.123-17.954-16.8-17.954zm-80.42 53.41c-6.177 0-11.134-1.564-15.602-4.923l.6-.8c4.286 3.22 9.053 4.72 15.002 4.72 8.712 0 14.34-5.235 14.34-13.34 0-9.38-5.6-11.09-14.074-13.682l-1.394-.42c-6.76-2.012-12.598-3.75-12.598-12.464 0-7.984 5.26-12.944 13.726-12.944 4.105 0 8.15 1.177 12.02 3.498l-.513.857c-3.712-2.227-7.583-3.355-11.505-3.355-7.97 0-12.726 4.465-12.726 11.944 0 7.967 5.243 9.53 11.883 11.506l1.4.42c8.583 2.625 14.783 4.52 14.783 14.64 0 8.71-6.022 14.34-15.34 14.34l-.002.002zm108.75-1.06h-1v-52.79h11.495c11.18 0 17.34 4.77 17.34 13.434v1.956c0 8.663-6.16 13.434-17.34 13.434h-10.497v23.966zm0-24.966h10.495c7.452 0 16.34-2.157 16.34-12.434v-1.956c0-5.672-2.837-12.434-16.34-12.434h-10.497v26.824zm-55.66 24.966h-1V74.83h-27.53v27.062h-1v-52.29h1V73.83h27.53V49.602h1v52.29zM99.1 94.097H60.318c-3.84 0-7.93-2.97-9.114-6.623l-10.39-32c-.593-1.825-.39-3.56.57-4.88.96-1.323 2.547-2.05 4.467-2.05h67.718c1.92 0 3.506.727 4.467 2.05.96 1.32 1.163 3.055.57 4.88l-10.39 32c-1.185 3.652-5.274 6.623-9.114 6.623zm-57.335-38.93l10.39 32c1.062 3.27 4.723 5.93 8.163 5.93H99.1c3.44 0 7.102-2.66 8.163-5.93l10.39-32c.492-1.514.34-2.93-.428-3.985-.768-1.057-2.067-1.638-3.658-1.638H45.85c-1.59 0-2.89.582-3.657 1.638-.768 1.055-.92 2.47-.428 3.985zm32.794 31.39h-1.493c-3.512 0-5.882-1.592-6.673-4.482-.195-.71-.274-1.483-.274-2.67v-23.24h8.758l9.98 13.926V56.085h1.496c3.51 0 5.878 1.59 6.67 4.477.194.697.273 1.473.273 2.674V86.48h-8.644l-.362-.51-9.73-13.635v14.222zm-7.44-29.393v22.24c0 1.09.07 1.787.24 2.405.66 2.415 2.687 3.745 5.707 3.745h.49v-16.34L85.17 85.48h7.128V63.234c0-1.104-.07-1.8-.238-2.406-.662-2.415-2.688-3.744-5.704-3.745h-.498v16.12l-11.495-16.04H67.12z"/></svg>