<?xml version="1.0" encoding="utf-8"?>
<!-- Generator: Adobe Illustrator 17.0.2, SVG Export Plug-In . SVG Version: 6.00 Build 0)  -->
<!DOCTYPE svg PUBLIC "-//W3C//DTD SVG 1.1//EN" "http://www.w3.org/Graphics/SVG/1.1/DTD/svg11.dtd">
<svg version="1.1" id="Layer_1" xmlns="http://www.w3.org/2000/svg" xmlns:xlink="http://www.w3.org/1999/xlink" x="0px" y="0px"
	 width="283px" height="283px" viewBox="-3.9 -3.9 283 283" enable-background="new -3.9 -3.9 283 283" xml:space="preserve">
<path d="M231.856,275.2H43.344C19.444,275.2,0,255.756,0,231.856V121.158h56.845l-0.116,0.595c-1.015,5.24-1.53,10.571-1.53,15.847
	c0,45.434,36.964,82.398,82.4,82.398c45.434,0,82.398-36.964,82.398-82.398c0-5.292-0.519-10.623-1.54-15.846l-0.117-0.596h56.86
	v110.698C275.2,255.756,255.756,275.2,231.856,275.2z M1,122.158v109.698C1,255.205,19.996,274.2,43.344,274.2h188.512
	c23.349,0,42.344-18.995,42.344-42.344V122.158h-54.647c0.958,5.096,1.444,10.287,1.444,15.442
	c0,45.986-37.412,83.398-83.398,83.398c-45.987,0-83.4-37.412-83.4-83.398c0-5.139,0.483-10.332,1.436-15.442H1z M137.605,189.114
	c-28.405,0-51.514-23.109-51.514-51.514s23.107-51.514,51.51-51.514c28.239,0,51.243,22.838,51.512,51.014h0.002l0.005,0.5
	C189.12,166.005,166.011,189.114,137.605,189.114z M137.601,87.086c-27.852,0-50.51,22.661-50.51,50.514
	c0,27.854,22.661,50.514,50.514,50.514c27.732,0,50.316-22.462,50.514-50.148l-0.004-0.366
	C188.115,109.747,165.455,87.086,137.601,87.086z M275.2,90.274h-70.175l-0.149-0.211c-15.443-21.828-40.593-34.86-67.276-34.86
	c-26.685,0-51.839,13.032-67.289,34.861l-0.149,0.211H0V43.347C0,19.445,19.443,0,43.343,0h188.515
	C255.757,0,275.2,19.445,275.2,43.347V90.274z M205.542,89.274H274.2V43.347C274.2,19.997,255.205,1,231.857,1H43.343
	C19.995,1,1,19.997,1,43.347v45.927h68.645c15.65-21.966,41.033-35.072,67.956-35.072C164.521,54.202,189.899,67.307,205.542,89.274
	z M245.151,61.579h-22.96c-4.494,0-8.15-3.66-8.15-8.158v-22.95c0-4.496,3.658-8.154,8.155-8.154h22.96
	c4.492,0,8.147,3.656,8.147,8.15l-0.009,23.169C253.183,58.035,249.572,61.579,245.151,61.579z M222.196,23.317
	c-3.945,0-7.155,3.209-7.155,7.154v22.95c0,3.947,3.208,7.158,7.15,7.158h22.96c3.94,0,7.146-3.209,7.146-7.153l0.007-22.959
	c0-3.942-3.206-7.15-7.147-7.15H222.196z"/>
</svg>
