<!DOCTYPE svg PUBLIC "-//W3C//DTD SVG 1.1//EN" "http://www.w3.org/Graphics/SVG/1.1/DTD/svg11.dtd">
<svg xmlns="http://www.w3.org/2000/svg" width="107" height="101" viewBox="21.389 24.828 107 101" enable-background="new 21.389 24.828 107 101"><path d="M104.717 122.772H94.255v-1h10.462v1zm-27.306 0H45.06v-1h32.35v1zm47.48-18.65h-100v-1h100v1zM110.57 85.19l-.898-.44c2.656-5.397 4.003-11.143 4.003-17.08 0-21.386-17.4-38.785-38.786-38.785S36.1 46.285 36.1 67.67c0 5.936 1.348 11.682 4.003 17.08l-.897.44C36.482 79.654 35.1 73.76 35.1 67.67c0-21.938 17.85-39.786 39.787-39.786s39.786 17.848 39.786 39.786c0 6.09-1.38 11.985-4.106 17.52h.002z"/></svg>