<!DOCTYPE svg PUBLIC "-//W3C//DTD SVG 1.1//EN" "http://www.w3.org/Graphics/SVG/1.1/DTD/svg11.dtd">
<svg xmlns="http://www.w3.org/2000/svg" width="108" height="83" viewBox="25.61 33.615 108 83" enable-background="new 25.61 33.615 108 83"><path d="M79.61 113.115c-21.49 0-35.832-4.146-35.975-4.188-7.105-2.557-9.688-6.495-10.596-8.615-.95-2.21-3.93-13.994-3.93-25.197 0-11.212 2.98-22.99 3.93-25.197.91-2.12 3.49-6.06 10.566-8.606.17-.05 14.512-4.197 36.003-4.197 21.49 0 35.83 4.146 35.973 4.188 7.106 2.557 9.688 6.495 10.597 8.616.948 2.206 3.93 13.983 3.93 25.195 0 11.203-2.98 22.985-3.93 25.197-.908 2.12-3.49 6.06-10.567 8.606-.17.05-14.512 4.195-36.003 4.195v.002zm0-75c-21.336 0-35.55 4.105-35.692 4.146-6.69 2.41-9.114 6.08-9.96 8.053-.678 1.583-3.848 13.095-3.848 24.803 0 11.698 3.17 23.218 3.85 24.803.844 1.97 3.266 5.64 9.987 8.06.113.03 14.33 4.137 35.664 4.137 21.35 0 35.553-4.105 35.694-4.146 6.692-2.41 9.113-6.08 9.958-8.05.68-1.586 3.85-13.104 3.85-24.803 0-11.707-3.17-23.22-3.85-24.803-.843-1.972-3.264-5.64-9.985-8.06-.114-.033-14.33-4.138-35.665-4.138h-.002zM68.817 92.28c-1.466 0-2.413-1.124-2.413-2.865v-28.6c0-1.742.947-2.867 2.412-2.867.603 0 1.24.194 1.898.576l26.85 14.726c.147.09 1.216.787 1.216 1.865 0 1.077-1.07 1.774-1.19 1.85l-26.886 14.75c-.646.374-1.285.567-1.887.567v-.002zm0-33.332c-.885 0-1.413.698-1.413 1.867v28.6c0 1.17.528 1.866 1.413 1.866.417 0 .9-.15 1.396-.437l26.872-14.74c.175-.11.695-.54.695-.986 0-.452-.533-.886-.72-1.002l-26.836-14.72c-.507-.294-.99-.446-1.407-.447z"/></svg>