<!DOCTYPE svg PUBLIC "-//W3C//DTD SVG 1.1//EN" "http://www.w3.org/Graphics/SVG/1.1/DTD/svg11.dtd">
<svg xmlns="http://www.w3.org/2000/svg" width="43" height="43" viewBox="8.545 8.591 43 43" enable-background="new 8.545 8.591 43 43"><path d="M47.105 47.85l-8.036-8.036C36.22 42.49 32.39 44.13 28.185 44.13c-8.768 0-15.9-7.132-15.9-15.9s7.132-15.9 15.9-15.9 15.9 7.134 15.9 15.9c0 4.207-1.642 8.037-4.317 10.884l8.036 8.036-.7.7zM28.187 13.32c-8.222 0-14.91 6.69-14.91 14.91 0 8.222 6.688 14.91 14.91 14.91s14.91-6.688 14.91-14.91c0-8.22-6.69-14.91-14.91-14.91z"/></svg>