<!DOCTYPE svg PUBLIC "-//W3C//DTD SVG 1.1//EN" "http://www.w3.org/Graphics/SVG/1.1/DTD/svg11.dtd">
<svg xmlns="http://www.w3.org/2000/svg" width="107" height="106" viewBox="21.708 22.52 107 106" enable-background="new 21.708 22.52 107 106"><path d="M124.928 125.945l-23.818-23.818c-8.105 7.93-19.192 12.823-31.4 12.823-24.773 0-44.928-20.155-44.928-44.93S44.936 25.093 69.71 25.093c24.773 0 44.93 20.155 44.93 44.93 0 12.207-4.895 23.292-12.823 31.398l23.818 23.82-.707.706zM69.71 26.092c-24.223 0-43.93 19.707-43.93 43.93s19.71 43.928 43.93 43.928 43.93-19.707 43.93-43.93c0-24.222-19.707-43.928-43.93-43.928z"/></svg>