<!DOCTYPE svg PUBLIC "-//W3C//DTD SVG 1.1//EN" "http://www.w3.org/Graphics/SVG/1.1/DTD/svg11.dtd">
<svg xmlns="http://www.w3.org/2000/svg" width="140" height="108" viewBox="4.818 21.838 140 108" enable-background="new 4.818 21.838 140 108"><path d="M55.803 126.26h-36.3c-6.543 0-11.865-5.322-11.865-11.863v-45.24c0-19.175 11.41-36.39 29.07-43.858l.46-.197 6.06 14.325-.46.194C31.03 44.59 23.393 55.948 23.198 68.658h32.607c3.168 0 6.146 1.234 8.387 3.474 2.24 2.24 3.475 5.22 3.475 8.39v33.874c0 6.542-5.322 11.864-11.864 11.864zM36.637 26.417c-17.025 7.414-28 24.135-28 42.74v45.24c0 5.99 4.875 10.862 10.865 10.862h36.3c5.99 0 10.865-4.875 10.865-10.865V80.52c0-5.99-4.874-10.863-10.864-10.863h-33.61v-.5c0-13.146 7.726-24.968 19.727-30.255l-5.283-12.485zm92.75 99.842h-36.3c-6.543 0-11.865-5.324-11.865-11.866v-45.24c0-19.174 11.41-36.39 29.07-43.856l.46-.196 6.06 14.325-.46.194c-11.737 4.965-19.375 16.325-19.57 29.035h32.605c6.542 0 11.864 5.322 11.864 11.864v33.872c0 6.542-5.32 11.864-11.862 11.864v.003zm-19.165-99.844c-17.026 7.413-28 24.134-28 42.74v45.238c0 5.99 4.874 10.864 10.864 10.864h36.3c5.99 0 10.865-4.875 10.865-10.865V80.52c0-5.99-4.872-10.863-10.862-10.863h-33.61v-.5c0-13.148 7.726-24.97 19.726-30.256l-5.28-12.482-.002-.002z"/></svg>