<!DOCTYPE svg PUBLIC "-//W3C//DTD SVG 1.1//EN" "http://www.w3.org/Graphics/SVG/1.1/DTD/svg11.dtd">
<svg xmlns="http://www.w3.org/2000/svg" width="109" height="102" viewBox="11.927 24.329 109 102" enable-background="new 11.927 24.329 109 102"><path d="M19.983 126.038l-.707-.707 8.924-8.922h-1.085c-5.86 0-10.63-4.77-10.63-10.63V61.033c0-5.86 4.77-10.63 10.63-10.63h2.413c1.856 0 3.224-1.075 3.85-3.03.97-3.022 2.808-4.688 5.178-4.688H49.19c3.482 0 4.458 2.587 5.243 4.665.797 2.11 2.004 3.053 3.913 3.053h8.142v-8c0-3.427 2.788-6.215 6.214-6.215H89.94c3.427 0 6.214 2.788 6.214 6.214v6.053L113.99 30.62l.706.707L96.153 49.87v.533h10.704c5.86 0 10.63 4.77 10.63 10.63v44.745c0 5.86-4.77 10.63-10.63 10.63H29.615l-9.63 9.63h-.002zm10.63-10.63h76.245c5.31 0 9.63-4.32 9.63-9.63V61.032c0-5.31-4.32-9.628-9.63-9.63h-12.24l-11.998 12c8.62 2.917 14.844 11.084 14.844 20.678 0 12.033-9.79 21.822-21.822 21.822-9.594 0-17.76-6.223-20.678-14.845l-24.35 24.35zm-3.498-64.005c-5.31 0-9.63 4.32-9.63 9.63v44.745c0 5.31 4.32 9.63 9.63 9.63H29.2l25.43-25.43c-.528-1.877-.81-3.855-.81-5.898 0-12.033 9.788-21.822 21.82-21.822 2.044 0 4.022.282 5.9.81l11.664-11.665h-34.86c-2.322 0-3.908-1.21-4.848-3.7-.888-2.353-1.716-4.02-4.307-4.02H38.554c-2.563 0-3.748 2.503-4.226 3.995-.76 2.367-2.51 3.725-4.803 3.725h-2.412zm28.642 38.862c2.64 8.47 10.556 14.638 19.884 14.638 11.483 0 20.824-9.34 20.824-20.822 0-9.327-6.167-17.242-14.638-19.883l-9.41 9.41c1.02-.314 2.104-.484 3.227-.484 6.043 0 10.96 4.916 10.96 10.96S81.683 95.04 75.64 95.04c-6.042 0-10.958-4.916-10.958-10.96 0-1.122.17-2.205.485-3.227l-9.413 9.412h.003zM67.17 78.853c-.942 1.52-1.486 3.312-1.486 5.228 0 5.493 4.467 9.96 9.958 9.96s9.96-4.467 9.96-9.96-4.47-9.957-9.96-9.957c-1.916 0-3.707.544-5.227 1.484l-3.245 3.246zm8.472-15.595c-11.48 0-20.822 9.34-20.822 20.822 0 1.752.217 3.454.627 5.08l10.936-10.936c.87-1.37 2.035-2.535 3.405-3.405l10.935-10.937c-1.627-.408-3.33-.626-5.08-.625zm-8.155-12.855h26.718l.948-.948v-7.053c0-2.875-2.34-5.214-5.214-5.214H72.7c-2.874 0-5.213 2.34-5.213 5.214v8zm37.27 17.832c-2.967 0-5.382-2.415-5.382-5.383s2.415-5.383 5.383-5.383 5.383 2.413 5.383 5.38c0 2.97-2.413 5.384-5.38 5.384h-.003zm0-9.766c-2.416 0-4.382 1.964-4.382 4.38s1.966 4.384 4.383 4.384 4.383-1.966 4.383-4.383c0-2.416-1.964-4.382-4.38-4.382h-.003zM88.014 44.293H74.626v-1h13.387v1zm-26.625-5.99l-5.126-2.324.413-.91 5.125 2.324-.413.91zm32.146-6.25l-.877-.48 2.71-4.932.876.48-2.71 4.932zm-24.43 0l-2.71-4.93.876-.482 2.71 4.932-.876.48zm12.715-1.082h-1v-5.628h1v5.628z"/></svg>