<!DOCTYPE svg PUBLIC "-//W3C//DTD SVG 1.1//EN" "http://www.w3.org/Graphics/SVG/1.1/DTD/svg11.dtd">
<svg xmlns="http://www.w3.org/2000/svg" width="107" height="93" viewBox="62 41 107 93" enable-background="new 62 41 107 93"><path d="M103.625 130.702l-.708-.708 5.61-5.61v-5.766h-7.642v-1h7.64v-5.768l-5.608-5.61.707-.706 5.017 5.018c.504-2.35 2.596-4.116 5.093-4.116h3.53c2.497 0 4.59 1.767 5.093 4.116l5.018-5.018.708.707-5.61 5.61v5.767h7.643v1h-7.64v5.766l5.608 5.61-.707.706-5.017-5.02c-.504 2.35-2.597 4.117-5.094 4.117h-3.53c-2.498 0-4.59-1.767-5.093-4.115l-5.018 5.02zm10.11-23.266c-2.32 0-4.21 1.888-4.21 4.208v12.947c0 2.32 1.89 4.208 4.21 4.208h3.53c2.32 0 4.208-1.888 4.208-4.208v-12.948c0-2.32-1.888-4.208-4.208-4.208h-3.53v.002zm49.027 7.957l-5.02-5.017c-.502 2.35-2.595 4.116-5.092 4.116h-3.53c-2.497 0-4.59-1.768-5.093-4.117l-5.018 5.018-.708-.706 5.61-5.61v-5.767h-7.643v-1h7.64v-5.768l-5.61-5.61.708-.706 5.02 5.02c.502-2.35 2.595-4.117 5.092-4.117h3.53c2.497 0 4.59 1.766 5.093 4.114l5.02-5.018.706.707-5.61 5.61v5.767h7.64v1h-7.64v5.768l5.61 5.61-.708.705zM149.12 92.13c-2.32 0-4.208 1.887-4.208 4.207v12.945c0 2.32 1.888 4.21 4.208 4.21h3.53c2.32 0 4.208-1.89 4.208-4.21V96.337c0-2.32-1.888-4.208-4.208-4.208h-3.53zm-57.13 23.264l-5.018-5.018c-.503 2.35-2.596 4.117-5.093 4.117h-3.53c-2.5 0-4.59-1.768-5.095-4.116l-5.017 5.017-.707-.706 5.61-5.608v-5.77H65.5v-1h7.64v-5.768l-5.61-5.61.707-.706 5.018 5.018c.503-2.35 2.596-4.115 5.093-4.115h3.53c2.5 0 4.59 1.766 5.094 4.115l5.02-5.02.706.708-5.61 5.61v5.767h7.64v1h-7.64v5.767l5.61 5.61-.708.707zM78.348 92.13c-2.32 0-4.208 1.887-4.208 4.207v12.945c0 2.32 1.888 4.21 4.208 4.21h3.53c2.32 0 4.21-1.89 4.21-4.21V96.337c0-2.32-1.89-4.208-4.21-4.208h-3.53zm25.276 7.955l-.708-.707 5.61-5.61v-5.766h-7.64v-1h7.64v-5.77l-5.61-5.61.708-.706 5.017 5.018c.504-2.35 2.596-4.116 5.093-4.116h3.53c2.497 0 4.59 1.767 5.093 4.116l5.018-5.018.708.707-5.61 5.61V87h7.643v1h-7.64v5.764l5.608 5.61-.708.706-5.018-5.017c-.503 2.35-2.596 4.116-5.093 4.116h-3.532c-2.497 0-4.59-1.77-5.092-4.117l-5.017 5.018v.005zm10.11-23.265c-2.32 0-4.21 1.888-4.21 4.208v12.947c0 2.32 1.89 4.208 4.21 4.208h3.53c2.32 0 4.208-1.888 4.208-4.208V81.027c0-2.32-1.888-4.208-4.208-4.208h-3.53zm49.027 7.956l-5.02-5.018c-.5 2.35-2.594 4.116-5.09 4.116h-3.53c-2.498 0-4.59-1.766-5.094-4.116l-5.02 5.018-.706-.707 5.61-5.61V72.69h-7.642v-1h7.642v-5.766l-5.61-5.61.707-.707 5.02 5.02c.502-2.35 2.595-4.118 5.092-4.118h3.53c2.496 0 4.59 1.767 5.092 4.116l5.02-5.02.706.708-5.61 5.61v5.766h7.642v1h-7.642v5.767l5.61 5.61-.707.706zm-13.64-23.264c-2.32 0-4.208 1.887-4.208 4.207v12.946c0 2.32 1.888 4.208 4.208 4.208h3.53c2.32 0 4.208-1.888 4.208-4.208V65.72c0-2.32-1.888-4.21-4.208-4.21l-3.53.002zM91.99 84.775l-5.018-5.018c-.503 2.35-2.596 4.117-5.093 4.117h-3.53c-2.5 0-4.59-1.767-5.095-4.115l-5.017 5.016-.707-.707 5.61-5.61v-5.77H65.5v-1h7.64v-5.766l-5.61-5.61.707-.706 5.018 5.018c.503-2.35 2.596-4.115 5.093-4.115h3.53c2.5 0 4.59 1.768 5.094 4.117l5.02-5.02.706.708-5.61 5.61v5.766h7.64v1h-7.64v5.767l5.61 5.61-.708.707zM78.348 61.512c-2.32 0-4.208 1.887-4.208 4.207v12.946c0 2.32 1.888 4.208 4.208 4.208h3.53c2.32 0 4.21-1.888 4.21-4.208V65.72c0-2.32-1.89-4.21-4.21-4.21l-3.53.002zm49.027 7.953l-5.018-5.018c-.503 2.35-2.596 4.116-5.093 4.116h-3.532c-2.497 0-4.59-1.767-5.092-4.116l-5.018 5.018-.707-.707 5.61-5.61v-5.765h-7.64v-1h7.64v-5.767l-5.608-5.61.707-.707 5.017 5.017c.504-2.35 2.596-4.116 5.093-4.116h3.53c2.497 0 4.59 1.768 5.093 4.118l5.02-5.02.706.708-5.61 5.61v5.767h7.64v1h-7.637v5.766l5.608 5.61-.708.705zm-13.64-23.263c-2.32 0-4.21 1.888-4.21 4.208v12.947c0 2.32 1.89 4.208 4.21 4.208h3.53c2.32 0 4.208-1.888 4.208-4.208V50.41c0-2.32-1.888-4.208-4.208-4.208h-3.53z"/></svg>