<!DOCTYPE svg PUBLIC "-//W3C//DTD SVG 1.1//EN" "http://www.w3.org/Graphics/SVG/1.1/DTD/svg11.dtd">
<svg xmlns="http://www.w3.org/2000/svg" width="43" height="43" viewBox="9.08 8.556 43 43" enable-background="new 9.08 8.556 43 43"><path d="M26.05 48.057c-.624 0-1.248-.237-1.722-.712l-3.156-3.156.18-.33c.268-.49.41-1.05.41-1.61 0-1.86-1.514-3.373-3.373-3.373-.564 0-1.122.142-1.614.41l-.328.18-3.156-3.156c-.95-.95-.95-2.495 0-3.444l20.098-20.1c.95-.948 2.493-.95 3.445 0l3.155 3.155-.18.33c-.268.492-.41 1.05-.41 1.613 0 1.86 1.514 3.372 3.373 3.372.57 0 1.113-.138 1.612-.41l.328-.18 3.154 3.156c.95.95.95 2.496.002 3.447l-20.1 20.1c-.472.472-1.096.71-1.72.71zm-3.654-4.06l2.64 2.64c.56.563 1.472.56 2.03 0L47.164 26.54c.56-.562.56-1.473 0-2.033l-2.64-2.64c-.55.24-1.146.366-1.75.366-2.41 0-4.37-1.96-4.37-4.372 0-.602.124-1.2.364-1.75l-2.64-2.638c-.56-.56-1.47-.56-2.03 0L14 33.572c-.56.56-.56 1.47 0 2.03l2.64 2.64c.548-.24 1.146-.366 1.75-.366 2.41 0 4.37 1.96 4.37 4.372 0 .603-.124 1.2-.364 1.75zm16.376-13.454l-1.15-1.15.707-.707 1.15 1.15-.708.707zm-3.764-3.766l-1.15-1.15.707-.707 1.15 1.15-.707.707zm-3.765-3.763l-1.15-1.15.708-.707 1.15 1.15-.707.707z"/></svg>