<!DOCTYPE svg PUBLIC "-//W3C//DTD SVG 1.1//EN" "http://www.w3.org/Graphics/SVG/1.1/DTD/svg11.dtd">
<svg xmlns="http://www.w3.org/2000/svg" width="108" height="94" viewBox="19.703 28.538 108 94" enable-background="new 19.703 28.538 108 94"><path d="M124.215 119.06H42.78l-.148-.224c-.07-.104-6.98-10.575-12.488-23.35-7.435-17.244-8.916-30.252-4.402-38.662 3.81-7.096 11.908-10.694 24.073-10.694 8.873 0 18.493 1.235 27.894 3.576v-17.69h27.814V58.02h18.69v61.04zm-26.816-1h25.813V59.02H97.4v59.04zm-18.69 0H96.4V58.02h8.125V33.017H78.71V49.96l.045.01-.046.18v67.91zm-34.863 0h33.86V90.007h-20.23l-13.63 28.053zm-14.81-28.053c4.9 12.94 12.047 24.543 13.95 27.535l13.376-27.535H29.037zm28.923-1h19.75V78.08l-12.9-3.174-6.85 14.1zm-28.498 0H56.85l6.97-14.347-16.523-4.07-17.835 18.417zm-5.07-24.057c-.762 7.137 1.194 15.577 4.11 23.613l17.67-18.25-21.78-5.363zm40.867 9.035l12.45 3.066V50.738l-1.034-.254L65.26 73.985zM48.1 69.76l16.164 3.98L75.68 50.245c-2.415-.564-4.84-1.053-7.258-1.467l-20.32 20.98-.002.002zm-23.585-5.81l22.46 5.533L67.223 48.58c-5.94-.956-11.823-1.45-17.407-1.45-11.768 0-19.57 3.42-23.19 10.168-1.08 2.008-1.76 4.25-2.108 6.653h-.003zm91.67 33.478h-11.758V85.67h11.756v11.76l.002-.002zm-10.758-1h9.756V86.67h-9.757v9.758zm10.756-18.178H104.43V66.493h11.756V78.25h-.003zm-10.757-1h9.756v-9.757h-9.757v9.757z"/></svg>