<!DOCTYPE svg PUBLIC "-//W3C//DTD SVG 1.1//EN" "http://www.w3.org/Graphics/SVG/1.1/DTD/svg11.dtd">
<svg xmlns="http://www.w3.org/2000/svg" width="43" height="47" viewBox="8.865 6.823 43 47" enable-background="new 8.865 6.823 43 47"><path d="M40.865 49.95c-4.136 0-7.5-3.365-7.5-7.5 0-1.188.277-2.31.77-3.31l-8.04-4.643c-1.35 2.005-3.638 3.327-6.23 3.327-4.136 0-7.5-3.364-7.5-7.5s3.364-7.5 7.5-7.5c2.592 0 4.88 1.322 6.23 3.326l8.04-4.643c-.492-1-.77-2.122-.77-3.31 0-4.135 3.364-7.5 7.5-7.5s7.5 3.365 7.5 7.5-3.364 7.5-7.5 7.5c-2.592 0-4.88-1.32-6.23-3.325l-8.04 4.643c.492 1 .77 2.122.77 3.31s-.278 2.31-.77 3.307l8.04 4.643c1.348-2.005 3.637-3.326 6.23-3.326 4.135 0 7.5 3.363 7.5 7.5s-3.364 7.5-7.5 7.5zm0-14c-3.584 0-6.5 2.915-6.5 6.5s2.916 6.5 6.5 6.5 6.5-2.917 6.5-6.5-2.916-6.5-6.5-6.5zm-21-12.125c-3.584 0-6.5 2.916-6.5 6.5s2.916 6.5 6.5 6.5 6.5-2.916 6.5-6.5-2.916-6.5-6.5-6.5zm21-12.125c-3.584 0-6.5 2.916-6.5 6.5s2.916 6.5 6.5 6.5 6.5-2.916 6.5-6.5-2.916-6.5-6.5-6.5z"/></svg>