<?xml version="1.0" encoding="utf-8"?>
<!-- Generator: Adobe Illustrator 16.0.4, SVG Export Plug-In . SVG Version: 6.00 Build 0)  -->
<!DOCTYPE svg PUBLIC "-//W3C//DTD SVG 1.1//EN" "http://www.w3.org/Graphics/SVG/1.1/DTD/svg11.dtd">
<svg version="1.1" id="Layer_2" xmlns="http://www.w3.org/2000/svg" xmlns:xlink="http://www.w3.org/1999/xlink" x="0px" y="0px"
	 width="43px" height="43px" viewBox="0 0 43 43" enable-background="new 0 0 43 43" xml:space="preserve">
<path fill="none" stroke="#000000" stroke-miterlimit="10" d="M39.519,26.165c0,4.927-3.992,8.918-8.918,8.918
	c-4.925,0-8.917-3.991-8.917-8.918c0-4.924,3.993-8.917,8.917-8.917C35.526,17.248,39.519,21.241,39.519,26.165z M30.601,22.274
	c-2.149,0-3.894,1.742-3.894,3.891c0,2.15,1.744,3.893,3.894,3.893c2.15,0,3.893-1.742,3.893-3.893
	C34.493,24.017,32.751,22.274,30.601,22.274z M41.311,34.219C43,31.977,44,29.188,44,26.165c0-7.399-5.999-13.398-13.399-13.398
	s-13.4,5.999-13.4,13.398c0,3.023,1,5.812,2.689,8.054l0.001-0.001l10.709,12.953L41.311,34.219L41.311,34.219z"/>
</svg>
