<!DOCTYPE svg PUBLIC "-//W3C//DTD SVG 1.1//EN" "http://www.w3.org/Graphics/SVG/1.1/DTD/svg11.dtd">
<svg xmlns="http://www.w3.org/2000/svg" width="108" height="70" viewBox="12.281 40.114 108 70" enable-background="new 12.281 40.114 108 70"><path d="M67.153 106.658c-.54 0-.85-.013-.892-.015 0 .002-.31.015-.85.015-5.823 0-35.575-1.51-49.58-31.33l-.1-.213.1-.212C29.834 45.083 59.585 43.57 65.41 43.57c.54 0 .85.016.89.018.003-.002.312-.016.852-.016 5.823 0 35.575 1.512 49.582 31.333l.1.212-.1.212c-14.005 29.82-43.757 31.33-49.58 31.328zm-.897-1.013c.056 0 .353.014.896.014 5.702 0 34.784-1.48 48.576-30.545C101.936 46.048 72.854 44.57 67.152 44.57c-.544 0-.84.015-.847.016-.056 0-.353-.015-.897-.015-5.702 0-34.783 1.478-48.575 30.545 13.792 29.066 42.874 30.543 48.575 30.543.545-.002.84-.015.848-.015v.002zm.025-5.197c-13.966 0-25.33-11.364-25.33-25.333S52.31 49.782 66.28 49.782s25.334 11.364 25.334 25.333-11.364 25.333-25.333 25.333zm0-49.666c-13.415 0-24.33 10.916-24.33 24.333s10.914 24.333 24.33 24.333 24.334-10.916 24.334-24.333S79.698 50.782 66.28 50.782zm0 37.292c-7.144 0-12.957-5.813-12.957-12.96 0-7.145 5.813-12.958 12.96-12.958S79.24 67.97 79.24 75.116c0 7.145-5.813 12.958-12.96 12.958zm0-24.918c-6.592 0-11.957 5.365-11.957 11.96s5.365 11.958 11.96 11.958S78.24 81.71 78.24 75.114c0-6.593-5.365-11.958-11.96-11.958z"/></svg>