<!DOCTYPE svg PUBLIC "-//W3C//DTD SVG 1.1//EN" "http://www.w3.org/Graphics/SVG/1.1/DTD/svg11.dtd">
<svg xmlns="http://www.w3.org/2000/svg" width="96" height="108" viewBox="26.999 18.76 96 108" enable-background="new 26.999 18.76 96 108"><path d="M56.332 123.26H52.47c-11.328 0-18.958-5.09-21.487-14.33-.63-2.313-.89-4.845-.89-8.743V22.535h27.9L93.667 72.31V22.26h3.876c11.32 0 18.944 5.083 21.472 14.312.632 2.265.89 4.802.89 8.753V123h-27.51l-.874-1.223-35.187-49.304v50.787zM31.094 23.534v76.65c0 3.804.248 6.26.854 8.48 2.398 8.766 9.687 13.594 20.522 13.594h2.862V69.35L92.907 122h25.997V45.324c0-3.854-.247-6.313-.854-8.487-2.397-8.757-9.68-13.58-20.508-13.58h-2.876V75.42L57.48 23.536H31.095v-.002z"/></svg>