<?xml version="1.0" encoding="utf-8"?>
<!-- Generator: Adobe Illustrator 17.0.2, SVG Export Plug-In . SVG Version: 6.00 Build 0)  -->
<!DOCTYPE svg PUBLIC "-//W3C//DTD SVG 1.1//EN" "http://www.w3.org/Graphics/SVG/1.1/DTD/svg11.dtd">
<svg version="1.1" id="Layer_1" xmlns="http://www.w3.org/2000/svg" xmlns:xlink="http://www.w3.org/1999/xlink" x="0px" y="0px"
	 width="150px" height="150px" viewBox="0 0 150 150" enable-background="new 0 0 150 150" xml:space="preserve">
<path fill="none" stroke="#000000" stroke-miterlimit="10" d="M91.114,75.115c0,13.715-11.118,24.833-24.833,24.833
	S41.448,88.83,41.448,75.115s11.118-24.833,24.833-24.833S91.114,61.4,91.114,75.115z M66.281,62.656
	c-6.881,0-12.459,5.578-12.459,12.459c0,6.881,5.578,12.459,12.459,12.459c6.881,0,12.459-5.578,12.459-12.459
	C78.74,68.234,73.162,62.656,66.281,62.656z M16.281,75.115c15.371,32.725,50,31.029,50,31.029s34.629,1.696,50-31.029
	c-15.371-32.725-50-31.029-50-31.029S31.652,42.389,16.281,75.115z"/>
</svg>
