<?xml version="1.0" encoding="utf-8"?>
<!-- Generator: Adobe Illustrator 17.0.2, SVG Export Plug-In . SVG Version: 6.00 Build 0)  -->
<!DOCTYPE svg PUBLIC "-//W3C//DTD SVG 1.1//EN" "http://www.w3.org/Graphics/SVG/1.1/DTD/svg11.dtd">
<svg version="1.1" id="Layer_1" xmlns="http://www.w3.org/2000/svg" xmlns:xlink="http://www.w3.org/1999/xlink" x="0px" y="0px"
	 width="298.75px" height="150px" viewBox="0 0 298.75 150" enable-background="new 0 0 298.75 150" xml:space="preserve">
<path fill="none" stroke="#000000" stroke-miterlimit="10" d="M106.094,102.244c-4.642,0-8.405,3.763-8.405,8.405
	s3.763,8.405,8.405,8.405s8.405-3.763,8.405-8.405S110.737,102.244,106.094,102.244z M55.722,102.244
	c-4.642,0-8.405,3.763-8.405,8.405s3.763,8.405,8.405,8.405s8.405-3.763,8.405-8.405S60.364,102.244,55.722,102.244z M26.841,32.023
	c-4.642,0-8.405,3.763-8.405,8.405s3.763,8.405,8.405,8.405s8.405-3.763,8.405-8.405S31.483,32.023,26.841,32.023z M106.094,102.244
	H55.722c-5.047,0-9.374-3.08-11.204-7.464L29.43,48.39 M41.289,55.321c-1.121-3.453,0.932-6.278,4.562-6.278h67.716
	c3.63,0,5.683,2.825,4.562,6.278l-10.39,31.998c-1.121,3.453-5.009,6.278-8.639,6.278H60.318c-3.63,0-7.518-2.825-8.639-6.278
	L41.289,55.321z M86.353,56.582c3.263,0,5.461,1.461,6.187,4.11c0.183,0.654,0.257,1.391,0.257,2.541v22.035v0.712h-0.712h-6.807
	h-0.367l-0.213-0.299L74.059,70.775v14.57v0.712h-0.712h-0.279c-3.266,0-5.465-1.462-6.191-4.115
	c-0.183-0.667-0.257-1.403-0.257-2.538V57.376v-0.712h0.712h6.922h0.366l0.213,0.297l10.524,14.685V57.295v-0.712h0.712H86.353
	L86.353,56.582z M158.258,53.029c-3.614-2.167-7.535-3.427-11.764-3.427c-8.535,0-13.226,4.964-13.226,12.444
	c0,8.879,6.383,10.206,13.534,12.373c8.688,2.657,14.533,4.405,14.533,14.192c0,8.737-6.228,13.841-14.841,13.841
	c-6.613,0-11.304-1.817-15.301-4.822 M244.214,67.498v16.499c0,11.395-6.076,18.455-17.3,18.455
	c-11.227,0-17.303-7.06-17.303-18.455V67.498c0-11.115,5.768-18.455,17.303-18.455C238.446,49.043,244.214,56.382,244.214,67.498z
	 M254.744,101.892v-52.29h10.995c9.92,0,16.84,3.846,16.84,12.934v1.956c0,9.088-6.921,12.934-16.84,12.934h-10.995
	 M170.555,101.892v-52.29 M199.083,49.602v52.29 M170.555,74.33h28.527"/>
</svg>
