<?xml version="1.0" encoding="utf-8"?>
<!-- Generator: Adobe Illustrator 17.0.2, SVG Export Plug-In . SVG Version: 6.00 Build 0)  -->
<!DOCTYPE svg PUBLIC "-//W3C//DTD SVG 1.1//EN" "http://www.w3.org/Graphics/SVG/1.1/DTD/svg11.dtd">
<svg version="1.1" id="Layer_1" xmlns="http://www.w3.org/2000/svg" xmlns:xlink="http://www.w3.org/1999/xlink" x="0px" y="0px"
	 width="150px" height="150px" viewBox="0 0 150 150" enable-background="new 0 0 150 150" xml:space="preserve">
<path fill="none" stroke="#000000" stroke-miterlimit="10" d="M115.052,87.852c0-12.523-10.539-13.952-15.491-13.952
	c-6.483,0-7.253,8.21-7.253,27.921s2.754,23.508,7.749,23.508c2.477,0,21.83-2.262,21.83-45.829
	c0-38.166-24.439-54.171-46.988-54.171S27.911,41.334,27.911,79.5c0,43.567,19.353,45.829,21.83,45.829
	c4.995,0,7.749-3.797,7.749-23.508S56.718,73.9,50.236,73.9c-4.952,0-15.491,1.429-15.491,13.952"/>
</svg>
