<?xml version="1.0" encoding="utf-8"?>
<!-- Generator: Adobe Illustrator 17.0.2, SVG Export Plug-In . SVG Version: 6.00 Build 0)  -->
<!DOCTYPE svg PUBLIC "-//W3C//DTD SVG 1.1//EN" "http://www.w3.org/Graphics/SVG/1.1/DTD/svg11.dtd">
<svg version="1.1" id="Layer_1" xmlns="http://www.w3.org/2000/svg" xmlns:xlink="http://www.w3.org/1999/xlink" x="0px" y="0px"
	 width="150px" height="150px" viewBox="0 0 150 150" enable-background="new 0 0 150 150" xml:space="preserve">
<path fill="none" stroke="#000000" stroke-miterlimit="10" d="M130.937,44.099c-3.681,1.633-7.634,2.734-11.785,3.231
	c4.237-2.539,7.49-6.56,9.023-11.35c-3.966,2.35-8.356,4.058-13.029,4.978c-3.743-3.988-9.076-6.478-14.975-6.478
	c-11.33,0-20.516,9.185-20.516,20.515c0,1.608,0.18,3.174,0.531,4.675c-17.05-0.854-32.171-9.022-42.287-21.436
	c-1.766,3.031-2.779,6.555-2.779,10.314c0,7.117,3.622,13.396,9.127,17.076c-3.361-0.106-6.526-1.028-9.292-2.565
	c-0.002,0.085-0.002,0.17-0.002,0.257c0,9.941,7.074,18.233,16.457,20.117c-1.72,0.469-3.533,0.721-5.405,0.721
	c-1.32,0-2.605-0.128-3.86-0.368c2.611,8.15,10.19,14.083,19.166,14.247c-7.023,5.504-15.867,8.784-25.48,8.784
	c-1.656,0-3.288-0.098-4.893-0.29c9.078,5.823,19.86,9.221,31.45,9.221c37.736,0,58.373-31.264,58.373-58.376
	c0-0.887-0.019-1.773-0.059-2.655C124.708,51.828,128.186,48.215,130.937,44.099z"/>
</svg>
