<?xml version="1.0" encoding="utf-8"?>
<!-- Generator: Adobe Illustrator 17.0.2, SVG Export Plug-In . SVG Version: 6.00 Build 0)  -->
<!DOCTYPE svg PUBLIC "-//W3C//DTD SVG 1.1//EN" "http://www.w3.org/Graphics/SVG/1.1/DTD/svg11.dtd">
<svg version="1.1" id="Layer_1" xmlns="http://www.w3.org/2000/svg" xmlns:xlink="http://www.w3.org/1999/xlink" x="0px" y="0px"
	 width="150px" height="150px" viewBox="0 0 150 150" enable-background="new 0 0 150 150" xml:space="preserve">
<path fill="none" stroke="#000000" stroke-miterlimit="10" d="M38.079,27.069v26.415 M110.483,53.484V27.069 M92.382,27.069v26.415
	 M74.281,27.069v26.415 M56.18,27.069v26.415 M110.483,78.506H99.071v11.412h11.412V78.506z M90.152,78.506H78.74v11.412h11.412
	V78.506z M69.822,78.506H58.41v11.412h11.412V78.506z M110.483,98.837H99.071v11.412h11.412V98.837z M90.152,98.837H78.74v11.412
	h11.412V98.837z M69.822,98.837H58.41v11.412h11.412V98.837z M49.491,98.837H38.079v11.412h11.412V98.837z M124.281,112.718
	c0,6.166-4.998,11.164-11.164,11.164H35.445c-6.166,0-11.164-4.998-11.164-11.164V51.473c0-6.166,4.998-11.164,11.164-11.164h77.671
	c6.166,0,11.164,4.998,11.164,11.164V112.718z"/>
</svg>
