<?xml version="1.0" encoding="utf-8"?>
<!-- Generator: Adobe Illustrator 17.0.2, SVG Export Plug-In . SVG Version: 6.00 Build 0)  -->
<!DOCTYPE svg PUBLIC "-//W3C//DTD SVG 1.1//EN" "http://www.w3.org/Graphics/SVG/1.1/DTD/svg11.dtd">
<svg version="1.1" id="Layer_1" xmlns="http://www.w3.org/2000/svg" xmlns:xlink="http://www.w3.org/1999/xlink" x="0px" y="0px"
	 width="150px" height="150px" viewBox="0 0 150 150" enable-background="new 0 0 150 150" xml:space="preserve">
<path fill="none" stroke="#000000" stroke-miterlimit="10" d="M85.542,81.08c0,5.776-4.683,10.459-10.459,10.459
	c-5.776,0-10.459-4.683-10.459-10.459c0-5.776,4.683-10.459,10.459-10.459C80.86,70.621,85.542,75.304,85.542,81.08z
	 M116.427,58.032v44.746c0,5.594-4.535,10.129-10.129,10.129H26.556c-5.594,0-10.129-4.535-10.129-10.129V58.032
	c0-5.594,4.535-10.129,10.129-10.129h2.413c1.96,0,3.605-1.127,4.326-3.377c0.775-2.419,2.299-4.342,4.702-4.342h10.635
	c3.028,0,3.93,2.103,4.775,4.342c0.929,2.461,2.42,3.377,4.38,3.377h48.512C111.893,47.904,116.427,52.438,116.427,58.032z
	 M96.405,81.08c0-11.776-9.546-21.322-21.322-21.322c-11.776,0-21.322,9.546-21.322,21.322c0,11.776,9.546,21.322,21.322,21.322
	C86.859,102.402,96.405,92.856,96.405,81.08z M109.082,59.852c0-2.697-2.186-4.883-4.883-4.883c-2.697,0-4.883,2.186-4.883,4.883
	s2.186,4.883,4.883,4.883C106.896,64.735,109.082,62.549,109.082,59.852z M19.071,122.685l94.712-94.712"/>
</svg>
