<?xml version="1.0" encoding="utf-8"?>
<!-- Generator: Adobe Illustrator 17.0.2, SVG Export Plug-In . SVG Version: 6.00 Build 0)  -->
<!DOCTYPE svg PUBLIC "-//W3C//DTD SVG 1.1//EN" "http://www.w3.org/Graphics/SVG/1.1/DTD/svg11.dtd">
<svg version="1.1" id="Layer_1" xmlns="http://www.w3.org/2000/svg" xmlns:xlink="http://www.w3.org/1999/xlink" x="0px" y="0px"
	 width="150px" height="150px" viewBox="0 0 150 150" enable-background="new 0 0 150 150" xml:space="preserve">
<path fill="none" stroke="#000000" stroke-miterlimit="10" d="M28.897,52.961c-2.957-1.031-2.957-2.719,0-3.751l26.884-9.378
	c2.957-1.031,7.795-1.031,10.752,0l26.884,9.378c2.957,1.031,2.957,2.719,0,3.751l-26.884,9.378c-2.957,1.031-7.795,1.031-10.752,0
	L28.897,52.961z M42.327,57.654l18.83-6.569 M94.75,89.056h24.731c3.976,0,7.199,3.223,7.199,7.199v2.872
	c0,3.976-3.223,7.199-7.199,7.199H94.75 M94.75,97.691h25.357 M120.107,80.169H95.377c-3.976,0-7.199-3.223-7.199-7.199v-2.872
	c0-3.976,3.223-7.199,7.199-7.199h24.731 M120.107,71.534H94.75 M45.286,73.794c3.037,5.232,7.086,7.059,7.086,12.789
	c0,9.891-16.102,8.229-16.102,17.822c0,7.01,6.389,7.614,7.855,7.614h17.032h17.032c1.466,0,7.855-0.604,7.855-7.614
	c0-9.593-16.102-7.931-16.102-17.822c0-9.168,10.366-8.344,10.366-27.463c0-0.535-0.014-1.059-0.042-1.571 M50.042,92.634
	c1.831,3.358,6.118,5.715,11.115,5.715c5.205,0,9.64-2.557,11.331-6.14 M42.327,57.654v9.323 M42.327,66.937
	c-2.257,0-4.087,1.83-4.087,4.087c0,2.257,1.83,4.087,4.087,4.087s4.087-1.83,4.087-4.087
	C46.414,68.767,44.584,66.937,42.327,66.937z"/>
</svg>
