<?xml version="1.0" encoding="utf-8"?>
<!-- Generator: Adobe Illustrator 17.0.2, SVG Export Plug-In . SVG Version: 6.00 Build 0)  -->
<!DOCTYPE svg PUBLIC "-//W3C//DTD SVG 1.1//EN" "http://www.w3.org/Graphics/SVG/1.1/DTD/svg11.dtd">
<svg version="1.1" id="Layer_1" xmlns="http://www.w3.org/2000/svg" xmlns:xlink="http://www.w3.org/1999/xlink" x="0px" y="0px"
	 width="150px" height="150px" viewBox="0 0 150 150" enable-background="new 0 0 150 150" xml:space="preserve">
<path fill="none" stroke="#000000" stroke-miterlimit="10" d="M80.437,113.66H31.748c-4.153,0-7.52-3.367-7.52-7.52V63.061
	c0-4.153,3.367-7.52,7.52-7.52h46.615 M45.177,73.969h-8.296v-8.296h8.296V73.969z M45.177,88.749h-8.296v-8.296h8.296V88.749z
	 M45.177,103.528h-8.296v-8.296h8.296V103.528z M53.563,69.822h26.308 M53.563,84.601h26.308 M53.563,99.38h22.092 M107.407,87.088
	c0-9.577,10.829-8.717,10.829-28.689c0-14.35-9.787-20.982-20.006-20.982s-20.006,6.632-20.006,20.982
	c0,19.972,10.829,19.112,10.829,28.689c0,10.332-16.821,8.597-16.821,18.618c0,7.323,6.674,7.954,8.206,7.954H98.23h17.792
	c1.532,0,8.206-0.631,8.206-7.954C124.228,95.685,107.407,97.421,107.407,87.088z M115.738,47.351c0,0-6.433,12.187-15.757,8.902
	c-8.959-3.157-14.467-1.42-21.597,6.061"/>
</svg>
