<?xml version="1.0" encoding="utf-8"?>
<!-- Generator: Adobe Illustrator 17.0.2, SVG Export Plug-In . SVG Version: 6.00 Build 0)  -->
<!DOCTYPE svg PUBLIC "-//W3C//DTD SVG 1.1//EN" "http://www.w3.org/Graphics/SVG/1.1/DTD/svg11.dtd">
<svg version="1.1" id="Layer_1" xmlns="http://www.w3.org/2000/svg" xmlns:xlink="http://www.w3.org/1999/xlink" x="0px" y="0px"
	 width="150px" height="150px" viewBox="0 0 150 150" enable-background="new 0 0 150 150" xml:space="preserve">
<path fill="none" stroke="#000000" stroke-miterlimit="10" d="M122.967,59.068l-8.258-8.259c-1.573,0.857-3.375,1.346-5.291,1.346
	c-6.111,0-11.064-4.954-11.064-11.063c0-1.916,0.49-3.719,1.347-5.291l-8.259-8.259c-2.152-2.152-5.671-2.152-7.823,0L26.194,84.967
	c-2.151,2.151-2.151,5.67,0,7.821l8.26,8.259c1.572-0.857,3.375-1.345,5.291-1.345c6.111,0,11.063,4.951,11.063,11.062
	c0,1.916-0.489,3.719-1.347,5.292l8.259,8.259c2.152,2.151,5.672,2.151,7.824,0l57.423-57.425
	C125.119,64.739,125.119,61.22,122.967,59.068z M91.526,68.843l3.286,3.286 M101.384,78.702l-3.286-3.286 M84.954,62.271
	l3.286,3.286 M78.381,55.699l3.286,3.286 M75.095,52.413l-3.286-3.286"/>
</svg>
