<?xml version="1.0" encoding="utf-8"?>
<!-- Generator: Adobe Illustrator 17.0.2, SVG Export Plug-In . SVG Version: 6.00 Build 0)  -->
<!DOCTYPE svg PUBLIC "-//W3C//DTD SVG 1.1//EN" "http://www.w3.org/Graphics/SVG/1.1/DTD/svg11.dtd">
<svg version="1.1" id="Layer_1" xmlns="http://www.w3.org/2000/svg" xmlns:xlink="http://www.w3.org/1999/xlink" x="0px" y="0px"
	 width="150px" height="150px" viewBox="0 0 150 150" enable-background="new 0 0 150 150" xml:space="preserve">
<path fill="none" stroke="#000000" stroke-linecap="round" stroke-miterlimit="10" d="M34.72,93.543
	c2.725-2.725,10.825,0.957,18.092,8.224c7.267,7.267,10.949,15.367,8.224,18.092 M48.294,97.512l13.201-13.201 M100.904,44.902
	L87.811,57.996 M70.268,93.083l-13.201,13.201 M109.676,53.674L96.583,66.768 M105.355,75.54l13.226-13.226l7.237-7.237
	c2.907-2.907,2.907-7.62,0-10.526l-15.789-15.789c-2.907-2.907-7.62-2.907-10.526,0l-7.237,7.237L79.039,49.224 M52.723,75.539
	L34.468,93.795l-4.386,30.702l30.702-4.386l18.255-18.255 M92.265,35.998l26.316,26.316 M55.356,25.539L29.04,51.855l73.684,73.684
	l26.316-26.316L55.356,25.539z M110.646,80.829L96.878,94.597 M78.484,76.204l13.768-13.768 M73.859,44.042L60.091,57.81
	 M64.662,34.845l-7.895,7.895 M83.056,53.239l-7.895,7.895 M101.449,71.633l-7.895,7.895 M119.843,90.026l-7.895,7.895"/>
</svg>
