<?xml version="1.0" encoding="utf-8"?>
<!-- Generator: Adobe Illustrator 17.0.2, SVG Export Plug-In . SVG Version: 6.00 Build 0)  -->
<!DOCTYPE svg PUBLIC "-//W3C//DTD SVG 1.1//EN" "http://www.w3.org/Graphics/SVG/1.1/DTD/svg11.dtd">
<svg version="1.1" id="Layer_1" xmlns="http://www.w3.org/2000/svg" xmlns:xlink="http://www.w3.org/1999/xlink" x="0px" y="0px"
	 width="150px" height="150px" viewBox="0 0 150 150" enable-background="new 0 0 150 150" xml:space="preserve">
<path fill="none" stroke="#000000" stroke-miterlimit="10" d="M109.223,102.244c-4.642,0-8.406,3.763-8.406,8.406
	s3.763,8.406,8.406,8.406s8.406-3.763,8.406-8.406S113.865,102.244,109.223,102.244z M58.85,102.244
	c-4.642,0-8.406,3.763-8.406,8.406s3.763,8.406,8.406,8.406s8.406-3.763,8.406-8.406S63.492,102.244,58.85,102.244z M29.969,32.023
	c-4.642,0-8.406,3.763-8.406,8.406s3.763,8.406,8.406,8.406s8.406-3.763,8.406-8.406S34.611,32.023,29.969,32.023z M109.223,102.244
	H58.85c-5.047,0-9.374-3.08-11.204-7.464L32.558,48.39 M44.417,55.32c-1.121-3.453,0.932-6.278,4.562-6.278h67.716
	c3.63,0,5.683,2.825,4.562,6.278l-10.39,31.999c-1.121,3.453-5.009,6.278-8.639,6.278H63.446c-3.63,0-7.518-2.825-8.639-6.278
	L44.417,55.32z M77.795,93.597L63.328,49.043 M87.879,93.597l14.467-44.554 M116.063,71.32h-66.45"/>
</svg>
