<?xml version="1.0" encoding="utf-8"?>
<!-- Generator: Adobe Illustrator 17.0.2, SVG Export Plug-In . SVG Version: 6.00 Build 0)  -->
<!DOCTYPE svg PUBLIC "-//W3C//DTD SVG 1.1//EN" "http://www.w3.org/Graphics/SVG/1.1/DTD/svg11.dtd">
<svg version="1.1" id="Layer_1" xmlns="http://www.w3.org/2000/svg" xmlns:xlink="http://www.w3.org/1999/xlink" x="0px" y="0px"
	 width="150px" height="150px" viewBox="0 0 150 150" enable-background="new 0 0 150 150" xml:space="preserve">
<path fill="none" stroke="#000000" stroke-miterlimit="10" d="M48.412,97.321c0,2.6-2.108,4.708-4.708,4.708h-3.531
	c-2.6,0-4.708-2.108-4.708-4.708V84.374c0-2.6,2.108-4.708,4.708-4.708h3.531c2.6,0,4.708,2.108,4.708,4.708V97.321z M54.169,78.617
	l-5.756,5.756 M48.412,90.847h8.141 M54.169,103.077l-5.756-5.756 M35.466,97.321l-5.756,5.756 M29.709,78.617l5.756,5.756
	 M27.325,90.847h8.141 M48.412,53.757c0-2.6-2.108-4.708-4.708-4.708h-3.531c-2.6,0-4.708,2.108-4.708,4.708v12.947
	c0,2.6,2.108,4.708,4.708,4.708h3.531c2.6,0,4.708-2.108,4.708-4.708V53.757z M54.169,48l-5.756,5.756 M56.553,60.23h-8.141
	 M54.169,72.46l-5.756-5.756 M35.466,66.704l-5.756,5.756 M35.466,53.757L29.709,48 M35.466,60.23h-8.141 M119.184,84.374
	c0-2.6-2.108-4.708-4.708-4.708h-3.531c-2.6,0-4.708,2.108-4.708,4.708v12.947c0,2.6,2.108,4.708,4.708,4.708h3.531
	c2.6,0,4.708-2.108,4.708-4.708V84.374z M124.94,78.617l-5.756,5.756 M119.184,90.847h8.141 M119.184,97.321l5.756,5.756
	 M106.237,97.321l-5.756,5.756 M100.48,78.617l5.756,5.756 M98.096,90.847h8.141 M119.184,53.757c0-2.6-2.108-4.708-4.708-4.708
	h-3.531c-2.6,0-4.708,2.108-4.708,4.708v12.947c0,2.6,2.108,4.708,4.708,4.708h3.531c2.6,0,4.708-2.108,4.708-4.708V53.757z
	 M119.184,53.757L124.94,48 M127.325,60.23h-8.141 M119.184,66.704l5.756,5.756 M100.48,72.46l5.756-5.756 M100.48,48l5.756,5.756
	 M106.237,60.23h-8.141 M83.798,99.682c0-2.6-2.108-4.708-4.708-4.708h-3.531c-2.6,0-4.708,2.108-4.708,4.708v12.947
	c0,2.6,2.108,4.708,4.708,4.708h3.531c2.6,0,4.708-2.108,4.708-4.708V99.682z M83.798,99.682l5.756-5.756 M83.798,106.156h8.141
	 M83.798,112.629l5.756,5.756 M65.095,118.386l5.756-5.756 M65.095,93.926l5.756,5.756 M62.71,106.156h8.141 M83.798,69.065
	c0-2.6-2.108-4.708-4.708-4.708h-3.531c-2.6,0-4.708,2.108-4.708,4.708v12.947c0,2.6,2.108,4.708,4.708,4.708h3.531
	c2.6,0,4.708-2.108,4.708-4.708V69.065z M83.798,69.065l5.756-5.756 M91.939,75.539h-8.141 M83.798,82.012l5.756,5.756
	 M65.095,87.769l5.756-5.756 M65.095,63.309l5.756,5.756 M70.851,75.539H62.71 M83.798,38.448c0-2.6-2.108-4.708-4.708-4.708h-3.531
	c-2.6,0-4.708,2.108-4.708,4.708v12.947c0,2.6,2.108,4.708,4.708,4.708h3.531c2.6,0,4.708-2.108,4.708-4.708V38.448z M89.555,32.692
	l-5.756,5.756 M83.798,44.922h8.141 M83.798,51.395l5.756,5.756 M70.851,51.395l-5.756,5.756 M65.095,32.692l5.756,5.756
	 M62.71,44.922h8.141"/>
</svg>
