<?xml version="1.0" encoding="utf-8"?>
<!-- Generator: Adobe Illustrator 17.0.2, SVG Export Plug-In . SVG Version: 6.00 Build 0)  -->
<!DOCTYPE svg PUBLIC "-//W3C//DTD SVG 1.1//EN" "http://www.w3.org/Graphics/SVG/1.1/DTD/svg11.dtd">
<svg version="1.1" id="Layer_1" xmlns="http://www.w3.org/2000/svg" xmlns:xlink="http://www.w3.org/1999/xlink" x="0px" y="0px"
	 width="150px" height="150px" viewBox="0 0 150 150" enable-background="new 0 0 150 150" xml:space="preserve">
<path fill="none" stroke="#000000" stroke-miterlimit="10" d="M86.102,84.08c0,5.776-4.683,10.459-10.459,10.459
	c-5.776,0-10.459-4.683-10.459-10.459c0-5.776,4.683-10.459,10.459-10.459C81.419,73.621,86.102,78.304,86.102,84.08z
	 M116.987,61.032v44.746c0,5.594-4.535,10.129-10.129,10.129H27.115c-5.594,0-10.129-4.535-10.129-10.129V61.032
	c0-5.594,4.535-10.129,10.129-10.129h2.413c1.96,0,3.605-1.127,4.326-3.377c0.775-2.419,2.299-4.342,4.702-4.342H49.19
	c3.028,0,3.93,2.103,4.775,4.342c0.929,2.461,2.42,3.377,4.38,3.377h48.512C112.452,50.904,116.987,55.438,116.987,61.032z
	 M96.964,84.08c0-11.776-9.546-21.322-21.322-21.322c-11.776,0-21.322,9.546-21.322,21.322c0,11.776,9.546,21.322,21.322,21.322
	C87.418,105.402,96.964,95.856,96.964,84.08z M109.641,62.852c0-2.697-2.186-4.883-4.883-4.883c-2.697,0-4.883,2.186-4.883,4.883
	s2.186,4.883,4.883,4.883C107.455,67.735,109.641,65.549,109.641,62.852z M19.63,125.685l94.712-94.712 M95.653,50.904v-8.502
	c0-3.156-2.558-5.714-5.714-5.714H72.701c-3.156,0-5.714,2.558-5.714,5.714v8.502 M88.013,43.795H74.626 M81.32,30.973v-5.628
	 M66.833,26.883l2.71,4.932 M93.097,31.815l2.71-4.932 M56.469,35.525l5.125,2.324"/>
</svg>
