<?xml version="1.0" encoding="UTF-8"?>
<svg width="31px" height="20px" viewBox="0 0 31 20" version="1.1" xmlns="http://www.w3.org/2000/svg" xmlns:xlink="http://www.w3.org/1999/xlink">
    <!-- Generator: Sketch 47.1 (45422) - http://www.bohemiancoding.com/sketch -->
    <title>diet/meat</title>
    <desc>Created with Sketch.</desc>
    <defs></defs>
    <g id="Symbols" stroke="none" stroke-width="1" fill="none" fill-rule="evenodd">
        <g id="diet/meat" fill-rule="nonzero" fill="#BF491F">
            <path d="M30.2476166,14.768201 C29.8714125,14.4615015 29.8714125,14.1164646 29.7961717,13.7330903 C29.4199675,12.0845806 28.103253,11.5095191 26.9746406,12.6979796 C25.3569628,14.3848266 23.6264237,13.9631149 21.7830234,13.5030657 C21.1810968,13.3497159 20.8801335,13.0430165 20.7672723,12.3912801 C19.4505578,5.9122539 15.1618306,2.34687263 9.25542553,0.391663537 C6.65961695,-0.451759992 5.00431873,0.00828920553 3.49950216,2.34687263 C1.31751814,5.68222931 0.226526132,9.43929775 0.000803646677,12.6596421 C-0.0368167675,17.2984715 1.24227731,19.1003309 4.70335542,19.5603801 C10.6850013,20.3654662 16.6290267,20.0971042 22.4978113,18.486932 C24.3412116,17.9885453 26.1846119,17.3751464 28.1784939,17.873533 C28.8180409,18.0268828 29.4575879,17.9118705 30.0218942,17.5284961 C31.2257474,16.6467352 31.3386086,15.7266368 30.2476166,14.768201 Z M6.32103323,17.2984715 C3.68760424,18.2569074 1.88182436,17.2601341 1.76896311,14.4231641 C1.58086104,10.1293715 2.85995512,6.2572908 5.34290246,2.80692182 C6.43389447,1.31176193 7.78822938,1.31176193 9.21780512,2.46188492 C10.9107238,3.76535765 12.0017158,6.3723031 11.9640954,8.90257369 C11.9264749,12.5062924 9.4435276,16.1483485 6.32103323,17.2984715 Z M29.5328288,16.1100111 C29.3447267,16.5700603 28.8180409,16.6083977 28.2161143,16.6083977 C27.2379835,16.455048 26.1469915,16.0716737 24.9807587,16.5317229 C24.6045545,16.6850726 24.4916933,16.3400357 24.4540729,16.0333362 C24.4540729,15.6882993 24.3412116,15.2282502 24.8678974,15.2282502 C25.9965098,15.2665876 26.8241589,14.7298635 27.5389468,13.88644 C27.6894285,13.6947528 27.915151,13.5030657 28.1784939,13.618078 C28.4794572,13.7714277 28.5923184,14.0397897 28.4418368,14.3848266 C28.1784939,14.9215507 28.554698,15.1899127 28.8556613,15.5349496 C29.1190042,15.6882993 29.7585513,15.573287 29.5328288,16.1100111 Z" id="Shape"></path>
            <path d="M6.61255078,3.54923274 C5.65173291,4.37648513 4.99837675,5.4293518 4.42188603,6.51982086 C4.19128974,6.97104944 3.80696259,7.45988039 4.11442431,7.91110897 C4.38345331,8.32473516 4.95994404,7.98631373 5.3827039,7.98631373 C7.38120508,7.83590421 7.88083037,8.17432564 7.6886668,10.0544447 C7.53493594,11.7465519 8.76478282,11.7841542 9.7640334,11.9721661 C11.032313,12.1977804 10.5711204,10.9945042 10.763284,10.4304685 C10.9938803,9.82883042 10.9554476,9.15198755 10.9938803,8.81356612 C11.0707457,6.74543515 10.4173896,5.20373752 9.37970625,3.85005179 C8.61105196,2.83478749 7.57336865,2.72198035 6.61255078,3.54923274 Z" id="Shape"></path>
            <path d="M8.65763034,13.4230221 C8.07000492,13.006158 4.1525021,12.8166743 3.64322673,13.2335384 C3.56487668,13.3093319 3.52570165,13.3851253 3.44735159,13.4609188 C3.13395137,13.9914731 2.78137611,14.4841306 3.17312639,15.1283751 C3.60405171,15.8105163 4.27002718,16 4.93600266,16 C6.42465374,15.9621033 7.59990458,15.3936523 8.61845532,14.4841306 C8.97103057,14.1809568 9.24525577,13.8398862 8.65763034,13.4230221 Z" id="Shape"></path>
            <path d="M7,10.2421076 C6.95597191,9.6561435 6.82388763,8.96677394 5.85526962,9.00124242 C4.44637069,9.00124242 4.09414595,9.86295437 4.00608977,10.7591348 C3.96206168,11.3450989 4.13817404,12 5.15082015,12 C6.51569099,11.9655315 6.82388763,11.1382881 7,10.2421076 Z" id="Shape"></path>
        </g>
    </g>
</svg>