<?xml version="1.0" encoding="UTF-8"?>
<svg width="30px" height="20px" viewBox="0 0 30 20" version="1.1" xmlns="http://www.w3.org/2000/svg" xmlns:xlink="http://www.w3.org/1999/xlink">
    <!-- Generator: Sketch 47.1 (45422) - http://www.bohemiancoding.com/sketch -->
    <title>diet/leaf</title>
    <desc>Created with Sketch.</desc>
    <defs></defs>
    <g id="Symbols" stroke="none" stroke-width="1" fill="none" fill-rule="evenodd">
        <g id="diet/leaf" fill="#357900">
            <path d="M17.5196144,18.0699747 C16.249192,15.5638194 15.3013606,14.4660133 13.7766876,13.2034844 C13.0737593,4.73469449 8.84310335,4.87386764 0,7.83825569 C4.57609619,10.9576037 3.01257935,18.4428341 12.9418564,14.2869577 C14.0407011,14.7613928 15.4964107,16.3868105 17.042479,19.9589905 L17.5196144,18.0699747 L17.5196144,18.0699747 Z" id="Path"></path>
            <path d="M15.1365155,19.30747 C14.5472107,19.4510053 14.0898088,19.5546581 13.4816014,19.740984 C14.4703539,11.8108149 20.4977975,5.59870724 28.1039217,1.6821256 C21.402423,4.6155632 18.536287,6.59597632 15.7185501,11.0808829 C12.2986297,-0.90275597 23.4677941,2.93613798 30,0 C26.763705,6.23038716 27.2744912,16.1334914 17.8526769,12.4462338 C16.6769753,13.7388823 15.3729022,16.521099 15.1365155,19.30747 Z" id="Path"></path>
        </g>
    </g>
</svg>