<?xml version="1.0" encoding="UTF-8"?>
<svg width="65px" height="19px" viewBox="0 0 65 19" version="1.1" xmlns="http://www.w3.org/2000/svg" xmlns:xlink="http://www.w3.org/1999/xlink">
    <!-- Generator: Sketch 47.1 (45422) - http://www.bohemiancoding.com/sketch -->
    <title>diet/meat+veg</title>
    <desc>Created with Sketch.</desc>
    <defs></defs>
    <g id="Page-1" stroke="none" stroke-width="1" fill="none" fill-rule="evenodd">
        <g id="Mobile-Gallimimus" transform="translate(-131.000000, -659.000000)">
            <g id="diet/meat+veg" transform="translate(131.000000, 659.000000)">
                <g id="diet/meat" fill-rule="nonzero" fill="#BF491F">
                    <path d="M29.2718871,14.0297909 C28.9078185,13.7384264 28.9078185,13.4106414 28.8350048,13.0464357 C28.4709363,11.4803516 27.1966965,10.9340432 26.1044909,12.0630806 C24.5389963,13.6655853 22.864281,13.2649591 21.0803453,12.8279124 C20.4978356,12.6822301 20.2065808,12.3908656 20.0973603,11.7717161 C18.8231204,5.61664121 14.6727392,2.22952899 8.95686342,0.37208036 C6.4447906,-0.429171992 4.84288909,0.00787474525 3.386615,2.22952899 C1.27501756,5.39811784 0.219218837,8.96733286 0.000777722591,12.02666 C-0.0356291298,16.433548 1.20220385,18.1453144 4.55163428,18.5823611 C10.3403238,19.3471929 16.0926065,19.0922489 21.7720755,17.5625854 C23.5560112,17.0891181 25.339947,16.5063891 27.2695102,16.9798564 C27.8884267,17.1255386 28.5073432,17.0162769 29.053446,16.6520713 C30.2184652,15.8143984 30.3276858,14.9403049 29.2718871,14.0297909 Z M6.11712893,16.433548 C3.56864926,17.344062 1.82112034,16.3971274 1.71189979,13.7020059 C1.52986552,9.62290297 2.76769851,5.94442626 5.17055077,2.66657573 C6.22634949,1.24617383 7.53699617,1.24617383 8.92045657,2.33879068 C10.5587649,3.57708977 11.6145636,6.05368795 11.5781568,8.457445 C11.5417499,11.8809778 9.13889768,15.3409311 6.11712893,16.433548 Z M28.5801569,15.3045106 C28.3981226,15.7415573 27.8884267,15.7779779 27.305917,15.7779779 C26.3593389,15.6322956 25.3035402,15.26809 24.1749277,15.7051367 C23.8108592,15.850819 23.7016386,15.5230339 23.6652318,15.2316694 C23.6652318,14.9038844 23.5560112,14.4668376 24.0657072,14.4668376 C25.1579127,14.5032582 25.9588635,13.9933703 26.6505937,13.192118 C26.7962211,13.0100152 27.0146622,12.8279124 27.2695102,12.9371741 C27.560765,13.0828563 27.6699856,13.3378002 27.5243582,13.6655853 C27.2695102,14.1754732 27.6335787,14.4304171 27.9248335,14.7582021 C28.1796815,14.9038844 28.798598,14.7946227 28.5801569,15.3045106 Z" id="Shape"></path>
                    <path d="M6.39924269,3.3717711 C5.46941894,4.15766087 4.83713879,5.15788421 4.27924454,6.19382982 C4.05608685,6.62249697 3.68415735,7.08688637 3.98170095,7.51555352 C4.24205159,7.90849841 4.79994584,7.58699805 5.20906829,7.58699805 C7.14310169,7.444109 7.62661004,7.76560936 7.44064529,9.55172247 C7.29187349,11.1592243 8.48204789,11.1949465 9.44906458,11.3735578 C10.6764319,11.5878914 10.2301165,10.444779 10.4160813,9.90894509 C10.639239,9.33738889 10.602046,8.69438817 10.639239,8.37288781 C10.7136249,6.40816339 10.0813447,4.94355064 9.07713508,3.6575492 C8.33327609,2.69304812 7.32906644,2.58588133 6.39924269,3.3717711 Z" id="Shape"></path>
                    <path d="M8.37835195,12.751871 C7.80968218,12.3558501 4.01855042,12.1758406 3.52570329,12.5718615 C3.44988066,12.6438653 3.41196934,12.7158691 3.3361467,12.7878729 C3.03285616,13.2918994 2.6916543,13.7599241 3.07076748,14.3719564 C3.48779197,15.0199905 4.13228437,15.2 4.77677677,15.2 C6.21740684,15.1639981 7.35474637,14.6239696 8.34044063,13.7599241 C8.68164249,13.4719089 8.94702171,13.1478918 8.37835195,12.751871 Z" id="Shape"></path>
                    <path d="M6.77419355,9.73000224 C6.73158572,9.17333632 6.60376223,8.51843524 5.66638995,8.5511803 C4.30293937,8.5511803 3.96207673,9.36980665 3.87686107,10.2211781 C3.83425324,10.777844 4.00468456,11.4 4.98466466,11.4 C6.30550741,11.3672549 6.60376223,10.5813736 6.77419355,9.73000224 Z" id="Shape"></path>
                </g>
                <g id="diet/leaf" transform="translate(35.000000, 0.000000)" fill-rule="evenodd" fill="#357900">
                    <path d="M17.5196144,17.166476 C16.249192,14.7856285 15.3013606,13.7427127 13.7766876,12.5433102 C13.0737593,4.49795977 8.84310335,4.63017426 0,7.4463429 C4.57609619,10.4097235 3.01257935,17.5206924 12.9418564,13.5726099 C14.0407011,14.0233231 15.4964107,15.56747 17.042479,18.961041 L17.5196144,17.166476 L17.5196144,17.166476 Z" id="Path"></path>
                    <path d="M15.1365155,18.3420965 C14.5472107,18.478455 14.0898088,18.5769252 13.4816014,18.7539348 C14.4703539,11.2202742 20.4977975,5.31877188 28.1039217,1.59801932 C21.402423,4.38478504 18.536287,6.2661775 15.7185501,10.5268388 C12.2986297,-0.857618172 23.4677941,2.78933108 30,0 C26.763705,5.9188678 27.2744912,15.3268168 17.8526769,11.8239221 C16.6769753,13.0519382 15.3729022,15.695044 15.1365155,18.3420965 Z" id="Path"></path>
                </g>
            </g>
        </g>
    </g>
</svg>