<?xml version="1.0" encoding="utf-8"?>
<!-- Generator: Adobe Illustrator 17.0.2, SVG Export Plug-In . SVG Version: 6.00 Build 0)  -->
<!DOCTYPE svg PUBLIC "-//W3C//DTD SVG 1.1//EN" "http://www.w3.org/Graphics/SVG/1.1/DTD/svg11.dtd">
<svg version="1.1" id="Layer_1" xmlns="http://www.w3.org/2000/svg" xmlns:xlink="http://www.w3.org/1999/xlink" x="0px" y="0px"
	 width="60px" height="60px" viewBox="0 0 60 60" enable-background="new 0 0 60 60" xml:space="preserve">
<path fill="none" stroke="#000000" stroke-miterlimit="10" d="M25.927,26.825l8.877-5.125 M34.802,38.948l-8.877-5.125 M40.865,11.2
	c-3.866,0-7,3.134-7,7s3.134,7,7,7s7-3.134,7-7S44.731,11.2,40.865,11.2z M19.865,23.325c-3.866,0-7,3.134-7,7s3.134,7,7,7
	s7-3.134,7-7S23.731,23.325,19.865,23.325z M40.865,35.449c-3.866,0-7,3.134-7,7s3.134,7,7,7s7-3.134,7-7
	S44.731,35.449,40.865,35.449z"/>
</svg>
