<?xml version="1.0" encoding="utf-8"?>
<!-- Generator: Adobe Illustrator 17.0.2, SVG Export Plug-In . SVG Version: 6.00 Build 0)  -->
<!DOCTYPE svg PUBLIC "-//W3C//DTD SVG 1.1//EN" "http://www.w3.org/Graphics/SVG/1.1/DTD/svg11.dtd">
<svg version="1.1" id="Layer_1" xmlns="http://www.w3.org/2000/svg" xmlns:xlink="http://www.w3.org/1999/xlink" x="0px" y="0px"
	 width="60px" height="60px" viewBox="0 0 60 60" enable-background="new 0 0 60 60" xml:space="preserve">
<g>
	<path fill="none" stroke="#000000" stroke-miterlimit="10" d="M33.256,35.008c0.971,0.965,0.156,1.941-0.051,2.146l-2.397,2.381
		l-2.397,2.381c-0.206,0.205-1.189,1.015-2.16,0.05c-1.329-1.32,1.167-3.343-0.203-4.705c-1.27-1.262-2.615,0.301-5.263-2.331
		c-1.903-1.891-1.464-4.075-0.087-5.442c1.376-1.368,3.574-1.804,5.477,0.087c2.649,2.632,1.076,3.968,2.346,5.23
		C29.891,36.167,31.927,33.687,33.256,35.008z M35.435,18.128l-6.522,6.481 M38.919,21.59l-6.522,6.481 M42.402,25.051l-6.522,6.481
		 M35.079,13.26c-0.806-0.801-2.123-0.79-2.942,0.023L13.361,31.94c-0.819,0.813-0.829,2.122-0.023,2.923l12.063,11.986
		c0.806,0.801,2.123,0.791,2.942-0.023l18.776-18.657c0.819-0.813,0.829-2.122,0.023-2.923L35.079,13.26z"/>
</g>
</svg>
