<?xml version="1.0" encoding="utf-8"?>
<!-- Generator: Adobe Illustrator 17.0.2, SVG Export Plug-In . SVG Version: 6.00 Build 0)  -->
<!DOCTYPE svg PUBLIC "-//W3C//DTD SVG 1.1//EN" "http://www.w3.org/Graphics/SVG/1.1/DTD/svg11.dtd">
<svg version="1.1" id="Layer_1" xmlns="http://www.w3.org/2000/svg" xmlns:xlink="http://www.w3.org/1999/xlink" x="0px" y="0px"
	 width="60px" height="60px" viewBox="0 0 60 60" enable-background="new 0 0 60 60" xml:space="preserve">
<path fill="none" stroke="#000000" stroke-miterlimit="10" d="M29.588,25.216v-3.523c0-1.58,1.281-2.861,2.861-2.861h4.196
	c1.58,0,2.861,1.281,2.861,2.861v11.827c0,1.873-1.051,3.484-2.583,4.328v3.373c-0.752,0.232-1.549,0.358-2.376,0.358
	s-1.625-0.126-2.376-0.358v-3.373c-1.533-0.844-2.583-2.455-2.583-4.328v-1.836 M29.588,25.215c-1.786,0-3.234,1.448-3.234,3.234
	c0,1.786,1.448,3.234,3.234,3.234s3.234-1.448,3.234-3.234C32.822,26.663,31.374,25.215,29.588,25.215z M29.806,34.961
	c3.497-0.115,6.297-2.986,6.297-6.511c0-3.598-2.917-6.515-6.515-6.515 M22.951,38.709c-2.602,0-4.711,2.109-4.711,4.711
	c0,2.602,2.109,4.711,4.711,4.711s4.711-2.109,4.711-4.711C27.661,40.818,25.552,38.709,22.951,38.709z M27.422,44.896h11.449
	c0,0,2.137-0.234,2.137-2.137 M42.934,48.131H22.951 M37.045,18.894v-4.585c0-0.651-0.527-1.178-1.178-1.178h-2.639
	c-0.651,0-1.178,0.527-1.178,1.178v4.585 M27.495,30.909c-0.874,0.415-1.833,1.065-2.562,2.076
	c-1.043,1.448-1.451,3.391-1.219,5.791 M26.506,27.484c-1.432,0.595-3.116,1.623-4.405,3.39c-1.657,2.272-2.279,5.189-1.855,8.692
	 M22.951,41.502c-1.059,0-1.918,0.859-1.918,1.918s0.859,1.918,1.918,1.918c1.059,0,1.918-0.859,1.918-1.918
	S24.01,41.502,22.951,41.502z"/>
</svg>
