<?xml version="1.0" encoding="utf-8"?>
<!-- Generator: Adobe Illustrator 17.0.2, SVG Export Plug-In . SVG Version: 6.00 Build 0)  -->
<!DOCTYPE svg PUBLIC "-//W3C//DTD SVG 1.1//EN" "http://www.w3.org/Graphics/SVG/1.1/DTD/svg11.dtd">
<svg version="1.1" id="Layer_1" xmlns="http://www.w3.org/2000/svg" xmlns:xlink="http://www.w3.org/1999/xlink" x="0px" y="0px"
	 width="60px" height="60px" viewBox="0 0 60 60" enable-background="new 0 0 60 60" xml:space="preserve">
<path fill="none" stroke="#000000" stroke-miterlimit="10" d="M47.516,24.153l-2.89-2.891c-0.551,0.3-1.181,0.471-1.852,0.471
	c-2.139,0-3.872-1.734-3.872-3.872c0-0.671,0.171-1.302,0.471-1.852l-2.891-2.891c-0.753-0.753-1.985-0.753-2.738,0L13.646,33.218
	c-0.753,0.753-0.753,1.984,0,2.738l2.891,2.891c0.55-0.3,1.181-0.471,1.852-0.471c2.139,0,3.872,1.733,3.872,3.872
	c0,0.671-0.171,1.302-0.471,1.852l2.891,2.891c0.753,0.753,1.985,0.753,2.738,0l20.098-20.099
	C48.269,26.138,48.269,24.906,47.516,24.153z M39.126,30.189l-1.15-1.15 M34.211,25.274l1.15,1.15 M31.597,22.66l-1.15-1.15"/>
</svg>
