<?xml version="1.0" encoding="utf-8"?>
<!-- Generator: Adobe Illustrator 17.0.2, SVG Export Plug-In . SVG Version: 6.00 Build 0)  -->
<!DOCTYPE svg PUBLIC "-//W3C//DTD SVG 1.1//EN" "http://www.w3.org/Graphics/SVG/1.1/DTD/svg11.dtd">
<svg version="1.1" id="Layer_1" xmlns="http://www.w3.org/2000/svg" xmlns:xlink="http://www.w3.org/1999/xlink" x="0px" y="0px"
	 width="60px" height="60px" viewBox="0 0 60 60" enable-background="new 0 0 60 60" xml:space="preserve">
<path fill="none" stroke="#000000" stroke-miterlimit="10" d="M33.032,43.294H15.991c-1.454,0-2.632-1.178-2.632-2.632V25.584
	c0-1.454,1.178-2.632,2.632-2.632h16.315 M20.691,29.402h-2.904v-2.904h2.904V29.402z M20.691,34.575h-2.904v-2.904h2.904V34.575z
	 M20.691,39.747h-2.904v-2.904h2.904V39.747z M23.626,27.95h9.208 M23.626,33.123h9.208 M23.626,38.296h7.732 M42.472,33.993
	c0-3.352,3.79-3.051,3.79-10.041c0-5.022-3.426-7.344-7.002-7.344c-3.576,0-7.002,2.321-7.002,7.344c0,6.99,3.79,6.689,3.79,10.041
	c0,3.616-5.887,3.009-5.887,6.516c0,2.563,2.336,2.784,2.872,2.784h6.227h6.227c0.536,0,2.872-0.221,2.872-2.784
	C48.359,37.002,42.472,37.61,42.472,33.993z M45.387,20.085c0,0-2.252,4.266-5.515,3.116c-3.136-1.105-5.064-0.497-7.559,2.122"/>
</svg>
