<?xml version="1.0" encoding="utf-8"?>
<!-- Generator: Adobe Illustrator 17.0.2, SVG Export Plug-In . SVG Version: 6.00 Build 0)  -->
<!DOCTYPE svg PUBLIC "-//W3C//DTD SVG 1.1//EN" "http://www.w3.org/Graphics/SVG/1.1/DTD/svg11.dtd">
<svg version="1.1" id="Layer_1" xmlns="http://www.w3.org/2000/svg" xmlns:xlink="http://www.w3.org/1999/xlink" x="0px" y="0px"
	 width="60px" height="60px" viewBox="0 0 60 60" enable-background="new 0 0 60 60" xml:space="preserve">
<path fill="none" stroke="#000000" stroke-miterlimit="10" d="M41.016,12.602l-7.937,0.526c-0.87,0.058-1.69,0.429-2.307,1.046
	L14.341,30.607c-0.936,0.936-0.937,2.455,0,3.391l12.895,12.895c0.936,0.936,2.455,0.936,3.391,0l16.432-16.432
	c0.617-0.617,0.989-1.437,1.046-2.307l0.526-7.937c0.062-0.929-0.281-1.839-0.939-2.497l-4.179-4.179
	C42.855,12.883,41.945,12.541,41.016,12.602z M42.289,24.658c-1.645,1.645-4.312,1.645-5.956,0c-1.645-1.645-1.645-4.311,0-5.956
	c1.645-1.645,4.312-1.645,5.956,0C43.934,20.346,43.934,23.013,42.289,24.658z"/>
</svg>
