<?xml version="1.0" encoding="utf-8"?>
<!-- Generator: Adobe Illustrator 17.0.2, SVG Export Plug-In . SVG Version: 6.00 Build 0)  -->
<!DOCTYPE svg PUBLIC "-//W3C//DTD SVG 1.1//EN" "http://www.w3.org/Graphics/SVG/1.1/DTD/svg11.dtd">
<svg version="1.1" id="Layer_1" xmlns="http://www.w3.org/2000/svg" xmlns:xlink="http://www.w3.org/1999/xlink" x="0px" y="0px"
	 width="60px" height="60px" viewBox="0 0 60 60" enable-background="new 0 0 60 60" xml:space="preserve">
<path fill="none" stroke="#000000" stroke-miterlimit="10" d="M13.978,22.588c-1.035-0.361-1.035-0.952,0-1.313l9.409-3.282
	c1.035-0.361,2.728-0.361,3.763,0l9.409,3.282c1.035,0.361,1.035,0.952,0,1.313l-9.409,3.282c-1.035,0.361-2.728,0.361-3.763,0
	L13.978,22.588z M18.679,24.231l6.59-2.299 M37.027,35.221h8.656c1.392,0,2.52,1.128,2.52,2.52v1.005c0,1.392-1.128,2.52-2.52,2.52
	h-8.656 M37.027,38.243h8.875 M45.902,32.111h-8.656c-1.392,0-2.52-1.128-2.52-2.52v-1.005c0-1.392,1.128-2.52,2.52-2.52h8.656
	 M45.902,29.089h-8.875 M19.715,29.88c1.063,1.831,2.48,2.471,2.48,4.476c0,3.462-5.636,2.88-5.636,6.238
	c0,2.454,2.236,2.665,2.749,2.665h5.961h5.961c0.513,0,2.749-0.211,2.749-2.665c0-3.357-5.636-2.776-5.636-6.238
	c0-3.209,3.628-2.921,3.628-9.612c0-0.187-0.005-0.371-0.015-0.55 M21.379,36.474c0.641,1.175,2.141,2,3.89,2
	c1.822,0,3.374-0.895,3.966-2.149 M18.679,24.231v3.263 M18.679,27.48c-0.79,0-1.431,0.64-1.431,1.431s0.64,1.431,1.431,1.431
	s1.431-0.64,1.431-1.431S19.469,27.48,18.679,27.48z"/>
</svg>
