<?xml version="1.0" encoding="utf-8"?>
<!-- Generator: Adobe Illustrator 17.0.2, SVG Export Plug-In . SVG Version: 6.00 Build 0)  -->
<!DOCTYPE svg PUBLIC "-//W3C//DTD SVG 1.1//EN" "http://www.w3.org/Graphics/SVG/1.1/DTD/svg11.dtd">
<svg version="1.1" id="Layer_1" xmlns="http://www.w3.org/2000/svg" xmlns:xlink="http://www.w3.org/1999/xlink" x="0px" y="0px"
	 width="97.169px" height="60px" viewBox="0 0 97.169 60" enable-background="new 0 0 97.169 60" xml:space="preserve">
<path fill="none" stroke="#000000" stroke-miterlimit="10" d="M33.04,39.568c-1.625,0-2.942,1.317-2.942,2.942
	c0,1.625,1.317,2.942,2.942,2.942c1.625,0,2.942-1.317,2.942-2.942C35.982,40.885,34.665,39.568,33.04,39.568z M15.41,39.568
	c-1.625,0-2.942,1.317-2.942,2.942c0,1.625,1.317,2.942,2.942,2.942s2.942-1.317,2.942-2.942
	C18.352,40.885,17.035,39.568,15.41,39.568z M5.302,14.99c-1.625,0-2.942,1.317-2.942,2.942c0,1.625,1.317,2.942,2.942,2.942
	s2.942-1.317,2.942-2.942C8.244,16.308,6.927,14.99,5.302,14.99z M33.04,39.568H15.41c-1.766,0-3.281-1.078-3.921-2.612
	l-5.28-16.237 M10.358,23.145c-0.392-1.208,0.326-2.197,1.597-2.197h23.7c1.271,0,1.989,0.989,1.597,2.197l-3.637,11.199
	c-0.392,1.208-1.753,2.197-3.024,2.197H17.019c-1.271,0-2.631-0.989-3.024-2.197L10.358,23.145z M26.131,23.586
	c1.142,0,1.911,0.511,2.165,1.438c0.064,0.229,0.09,0.487,0.09,0.889v7.712v0.249h-0.249h-2.382h-0.128l-0.075-0.104l-3.724-5.218
	v5.1v0.249h-0.249h-0.098c-1.143,0-1.913-0.512-2.167-1.44c-0.064-0.234-0.09-0.491-0.09-0.888v-7.71v-0.249h0.249h2.423h0.128
	l0.075,0.104l3.684,5.14v-5.023v-0.249h0.249H26.131L26.131,23.586z M51.297,22.342c-1.265-0.758-2.637-1.199-4.118-1.199
	c-2.987,0-4.629,1.737-4.629,4.355c0,3.108,2.234,3.572,4.737,4.33c3.041,0.93,5.087,1.542,5.087,4.967
	c0,3.058-2.18,4.844-5.194,4.844c-2.315,0-3.956-0.636-5.355-1.688 M81.382,27.407v5.774c0,3.988-2.126,6.459-6.055,6.459
	c-3.929,0-6.056-2.471-6.056-6.459v-5.774c0-3.89,2.019-6.459,6.056-6.459C79.363,20.947,81.382,23.516,81.382,27.407z
	 M85.067,39.445V21.143h3.848c3.472,0,5.894,1.346,5.894,4.527v0.685c0,3.181-2.422,4.527-5.894,4.527h-3.848 M55.601,39.445V21.143
	 M65.586,21.143v18.302 M55.601,29.798h9.985"/>
</svg>
