<?xml version="1.0" encoding="utf-8"?>
<!-- Generator: Adobe Illustrator 17.0.2, SVG Export Plug-In . SVG Version: 6.00 Build 0)  -->
<!DOCTYPE svg PUBLIC "-//W3C//DTD SVG 1.1//EN" "http://www.w3.org/Graphics/SVG/1.1/DTD/svg11.dtd">
<svg version="1.1" id="Layer_1" xmlns="http://www.w3.org/2000/svg" xmlns:xlink="http://www.w3.org/1999/xlink" x="0px" y="0px"
	 width="60px" height="60px" viewBox="0 0 60 60" enable-background="new 0 0 60 60" xml:space="preserve">
<path fill="none" stroke="#000000" stroke-miterlimit="10" d="M17.61,13.112v9.245 M42.952,22.357v-9.245 M36.616,13.112v9.245
	 M30.281,13.112v9.245 M23.946,13.112v9.245 M42.952,31.115h-3.994v3.994h3.994V31.115z M35.836,31.115h-3.994v3.994h3.994V31.115z
	 M28.72,31.115h-3.994v3.994h3.994V31.115z M42.952,38.231h-3.994v3.994h3.994V38.231z M35.836,38.231h-3.994v3.994h3.994V38.231z
	 M28.72,38.231h-3.994v3.994h3.994V38.231z M21.604,38.231H17.61v3.994h3.994V38.231z M47.781,43.089
	c0,2.158-1.749,3.908-3.908,3.908H16.688c-2.158,0-3.908-1.749-3.908-3.908V21.653c0-2.158,1.749-3.908,3.908-3.908h27.185
	c2.158,0,3.908,1.749,3.908,3.908V43.089z"/>
</svg>
