<?xml version="1.0" encoding="utf-8"?>
<!-- Generator: Adobe Illustrator 17.0.2, SVG Export Plug-In . SVG Version: 6.00 Build 0)  -->
<!DOCTYPE svg PUBLIC "-//W3C//DTD SVG 1.1//EN" "http://www.w3.org/Graphics/SVG/1.1/DTD/svg11.dtd">
<svg version="1.1" id="Layer_1" xmlns="http://www.w3.org/2000/svg" xmlns:xlink="http://www.w3.org/1999/xlink" x="0px" y="0px"
	 width="60px" height="60px" viewBox="0 0 60 60" enable-background="new 0 0 60 60" xml:space="preserve">
<path fill="none" stroke="#000000" stroke-miterlimit="10" d="M46.86,21.25c-0.292-0.681-1.167-2.042-3.597-2.917
	c0,0-4.958-1.458-12.542-1.458c-7.583,0-12.542,1.458-12.542,1.458c-2.431,0.875-3.306,2.236-3.597,2.917
	c-0.292,0.681-1.361,4.764-1.361,8.75c0,3.986,1.069,8.069,1.361,8.75c0.292,0.681,1.167,2.042,3.597,2.917
	c0,0,4.958,1.458,12.542,1.458c7.583,0,12.542-1.458,12.542-1.458c2.431-0.875,3.306-2.236,3.597-2.917s1.361-4.764,1.361-8.75
	C48.221,26.014,47.152,21.93,46.86,21.25z M36.921,30.499l-9.401,5.157c-0.685,0.398-1.246,0.105-1.246-0.651v-10.01
	c0-0.756,0.561-1.049,1.246-0.651l9.401,5.157c0,0,0.334,0.208,0.334,0.499C37.255,30.291,36.921,30.499,36.921,30.499z"/>
</svg>
